<?xml version="1.0" encoding="UTF-8"?>
<svg width="102px" height="109px" viewBox="0 0 102 109" version="1.1" xmlns="http://www.w3.org/2000/svg" xmlns:xlink="http://www.w3.org/1999/xlink">
    <!-- Generator: Sketch 59.1 (86144) - https://sketch.com -->
    <title>切片</title>
    <desc>Created with Sketch.</desc>
    <defs>
        <path d="M99.0000919,0 C100.656946,-3.04359188e-16 102.000092,1.34314575 102.000092,3 L102,68 L102,68 C99.2385763,68 97,70.2385763 97,73 C97,75.7614237 99.2385763,78 102,78 L102.000092,106 C102.000092,107.656854 100.656946,109 99.0000919,109 L3.0000919,109 C1.34323765,109 9.18990671e-05,107.656854 9.18990671e-05,106 L-8.52651283e-14,78 L-8.52651283e-14,78 C2.76142375,78 5,75.7614237 5,73 C5,70.2385763 2.76142375,68 -8.52651283e-14,68 L9.18990671e-05,3 C9.18990671e-05,1.34314575 1.34323765,3.04359188e-16 3.0000919,0 L99.0000919,0 Z" id="path-1"></path>
    </defs>
    <g id="深色模式" stroke="none" stroke-width="1" fill="none" fill-rule="evenodd">
        <g id="个人号_次数充值2" transform="translate(-137.000000, -315.000000)">
            <g id="编组-6" transform="translate(10.000000, 258.000000)">
                <g id="编组-2" transform="translate(127.000000, 57.000000)">
                    <g id="矩形">
                        <g id="bg_frame_unselect2">
                            <g>
                                <mask id="mask-2" fill="white">
                                    <use xlink:href="#path-1"></use>
                                </mask>
                                <path stroke-opacity="0.1" stroke="#FFFFFF" d="M0.500000675,67.5224216 C3.30325036,67.7750363 5.5,70.130979 5.5,73 C5.5,75.8690207 3.30325082,78.2249632 0.500001567,78.4775784 L0.500091899,106 C0.500091899,107.380712 1.61938002,108.5 3.0000919,108.5 L99.0000919,108.5 C100.380804,108.5 101.500092,107.380712 101.500092,106.000002 L101.500002,78.4775786 C98.6967508,78.224965 96.5,75.8690218 96.5,73 C96.5,70.1309785 98.6967503,67.7750355 101.500001,67.5224214 L101.500092,3 C101.500092,1.61928813 100.380804,0.5 99.0000919,0.5 L3.0000919,0.5 C1.61938002,0.5 0.500091899,1.61928813 0.500091899,3.00000071 L0.500000675,67.5224216 Z"></path>
                            </g>
                        </g>
                    </g>
                </g>
            </g>
        </g>
    </g>
</svg>