<?xml version="1.0" encoding="UTF-8"?>
<svg width="300px" height="316px" viewBox="0 0 300 316" version="1.1" xmlns="http://www.w3.org/2000/svg" xmlns:xlink="http://www.w3.org/1999/xlink">
    <!-- Generator: Sketch 52.2 (67145) - http://www.bohemiancoding.com/sketch -->
    <title>bg_pop</title>
    <desc>Created with Sketch.</desc>
    <defs>
        <path d="M0,10.0011894 C0,4.477685 4.47365195,0 10.0029514,0 L289.997049,0 C295.521526,0 300,4.48221675 300,10.0011894 L300,305.998811 C300,311.522315 295.526348,316 289.997049,316 L10.0029514,316 C4.47847388,316 0,311.517783 0,305.998811 L0,10.0011894 Z" id="path-1"></path>
        <linearGradient x1="87.9315349%" y1="-16.2817785%" x2="56.6539259%" y2="60.9328391%" id="linearGradient-3">
            <stop stop-color="#3C7294" offset="0%"></stop>
            <stop stop-color="#2C2C2C" offset="100%"></stop>
        </linearGradient>
        <linearGradient x1="0%" y1="100%" x2="82.146477%" y2="18.2707225%" id="linearGradient-4">
            <stop stop-color="#78C5F6" offset="0%"></stop>
            <stop stop-color="#45AFF0" offset="100%"></stop>
        </linearGradient>
        <linearGradient x1="0%" y1="100%" x2="82.146477%" y2="18.2707225%" id="linearGradient-5">
            <stop stop-color="#7BC7F7" offset="0%"></stop>
            <stop stop-color="#51B4F1" offset="100%"></stop>
        </linearGradient>
        <linearGradient x1="50%" y1="37.8560199%" x2="50%" y2="85.6032615%" id="linearGradient-6">
            <stop stop-color="#FFFFFF" offset="0%"></stop>
            <stop stop-color="#EDF4FF" offset="100%"></stop>
        </linearGradient>
        <path d="M16,0 C24,0 32,11.4479593 32,23.1275054 C32,34.8070515 29.1220911,44.4503073 23.3662734,55.9218643 C21.0249275,59.9739548 18.6660095,62 16.2895194,62 C16.1933006,62 15.8066994,62 15.7104806,62 C13.3339905,62 10.9750725,59.9739548 8.63372665,55.9218643 C2.87790888,44.4503073 -2.27373675e-13,34.8070515 0,23.1275054 C2.27373675e-13,11.4479593 8,1.95736203e-15 16,0 Z" id="path-7"></path>
        <linearGradient x1="50%" y1="0%" x2="50%" y2="100%" id="linearGradient-9">
            <stop stop-color="#36DEA5" offset="0%"></stop>
            <stop stop-color="#19BA6C" offset="100%"></stop>
        </linearGradient>
        <linearGradient x1="50%" y1="56.9542862%" x2="50%" y2="81.2008434%" id="linearGradient-10">
            <stop stop-color="#1BBD70" offset="0%"></stop>
            <stop stop-color="#0C9855" offset="100%"></stop>
        </linearGradient>
        <linearGradient x1="50%" y1="58.0780332%" x2="50%" y2="78.8120508%" id="linearGradient-11">
            <stop stop-color="#5A91E7" offset="0%"></stop>
            <stop stop-color="#3476D0" offset="100%"></stop>
        </linearGradient>
        <linearGradient x1="83.8169785%" y1="0%" x2="24.6383292%" y2="88.857199%" id="linearGradient-12">
            <stop stop-color="#57B7F2" offset="0%"></stop>
            <stop stop-color="#93D5FF" offset="100%"></stop>
        </linearGradient>
        <polygon id="path-13" points="2.57307469 0.414213562 0 12.5402412 0.536753405 30.4142136 4 11.2397099 4 0.414213562"></polygon>
        <path d="M43.7607208,30.1222416 L46.9474102,30.1222416 C48.0519797,30.1222416 48.9474102,31.0176721 48.9474102,32.1222416 C48.9474102,32.6147605 48.7656771,33.0899608 48.437031,33.456794 L39.2896565,43.6670486 C38.5526036,44.4897434 37.2881782,44.5591699 36.4654834,43.822117 C36.4109968,43.7733025 36.3592295,43.7215352 36.3104149,43.6670486 L27.1630405,33.456794 C26.4259876,32.6340991 26.4954141,31.3696738 27.3181089,30.6326209 C27.6849421,30.3039748 28.1601424,30.1222416 28.6526612,30.1222416 L31.8393506,30.1222416 L31.8393506,22 C31.8393506,20.8954305 32.7347811,20 33.8393506,20 L41.7607208,20 C42.8652903,20 43.7607208,20.8954305 43.7607208,22 L43.7607208,30.1222416 Z" id="path-15"></path>
    </defs>
    <g id="bg_pop" stroke="none" stroke-width="1" fill="none" fill-rule="evenodd">
        <g>
            <g id="路径">
                <mask id="mask-2" fill="white">
                    <use xlink:href="#path-1"></use>
                </mask>
                <use id="Mask" fill="#2C2C2C" xlink:href="#path-1"></use>
                <path d="M-4,63.0510265 C4.22994734,59.4923491 12.6952874,62.1000713 21.3960201,70.8741931 C39.2127228,64.238726 54.4768264,64.636242 67.1883311,72.0667411 C79.8998358,79.4972402 93.5238601,78.5338482 108.060404,69.1765652 C123.199981,60.1674463 136.982859,60.6743066 149.409038,70.6971459 C157.498526,63.709354 167.508282,63.709354 179.438306,70.6971459 C192.596803,61.6819132 209.511259,61.1750529 230.181676,69.1765652 C253.429497,52.0380358 278.035606,53.0014278 304,72.0667411 L304,-18 L-4,-18 L-4,63.0510265 Z" fill="#1B1B1F" mask="url(#mask-2)" transform="translate(150.000000, 29.500000) scale(-1, 1) translate(-150.000000, -29.500000) "></path>
                <path d="M-2,61.6421272 C6.22994734,58.0455997 14.6952874,60.6810577 23.3960201,69.5485013 C41.2127228,62.8424592 56.4768264,63.2442032 69.1883311,70.7537333 C81.8998358,78.2632634 95.5238601,77.2896248 110.060404,67.8328174 C125.199981,58.7278773 138.982859,59.2401285 151.409038,69.369571 C159.498526,62.3074568 169.508282,62.3074568 181.438306,69.369571 C194.596803,60.258452 211.511259,59.7462008 232.181676,67.8328174 C255.429497,50.5120021 280.035606,51.4856407 306,70.7537333 L306,87.5927367 L-2,87.5927367 L-2,61.6421272 Z" fill="#2C2C2C" opacity="0.378138951" mask="url(#mask-2)"></path>
                <g id="分组-16" opacity="0.900000036" mask="url(#mask-2)">
                    <g transform="translate(88.000000, -8.000000)">
                        <path d="M42.6189075,49.6895966 C33.3164272,68.2164961 21.6283541,78.1527272 7.55468822,79.4982898 L3.73786826,87.4189093 L56.9117473,87.4967212 C41.9449274,80.1570301 39.947894,69.8569434 50.9206473,56.5964612 L42.6189075,49.6895966 Z" id="路径-5" fill="url(#linearGradient-3)" transform="translate(30.324808, 68.593159) rotate(11.000000) translate(-30.324808, -68.593159) "></path>
                        <g id="分组-12" stroke-width="1" fill="none" transform="translate(65.406175, 41.069025) rotate(-315.000000) translate(-65.406175, -41.069025) translate(43.406175, 5.069025)">
                            <polygon id="路径-2" fill="url(#linearGradient-4)" points="9.65417747 36 1.44752686 43.5274101 0 60 6.67775102 50.655416 14 46.5064753"></polygon>
                            <polygon id="路径-2-copy" fill="url(#linearGradient-5)" transform="translate(37.000000, 48.000000) scale(-1, 1) translate(-37.000000, -48.000000) " points="39.6541775 36 31.4475269 43.5274101 30 60 36.677751 50.655416 44 46.5064753"></polygon>
                            <g id="椭圆形" transform="translate(6.000000, 0.000000)">
                                <mask id="mask-8" fill="white">
                                    <use xlink:href="#path-7"></use>
                                </mask>
                                <use id="Mask" fill="url(#linearGradient-6)" xlink:href="#path-7"></use>
                                <ellipse fill="url(#linearGradient-9)" mask="url(#mask-8)" cx="16" cy="9.58578644" rx="20" ry="14"></ellipse>
                                <path d="M-4,39 C-4,46.7319865 4.954305,53 16,53 C27.045695,53 36,46.7319865 36,39 L36,62 L-4,62 L-4,39 Z" id="路径-copy" fill="url(#linearGradient-10)" mask="url(#mask-8)"></path>
                                <path d="M-4,44 C-4,51.7319865 4.954305,58 16,58 C27.045695,58 36,51.7319865 36,44 L36,67 L-4,67 L-4,44 Z" id="路径" fill="url(#linearGradient-11)" mask="url(#mask-8)"></path>
                            </g>
                            <path d="M19.1549591,4 C15.9869995,6.75956623 13.9322864,9.15062807 12.9908197,11.1731855 M11.9321332,13.9492152 C11.5220534,14.6670841 11.2113423,15.4382707 11,16.2627749" id="形状" stroke="#FFFFFF" stroke-width="1.5" stroke-linecap="round" stroke-linejoin="round"></path>
                            <g id="分组-15" transform="translate(19.000000, 41.000000)">
                                <g id="路径-3">
                                    <mask id="mask-14" fill="white">
                                        <use xlink:href="#path-13"></use>
                                    </mask>
                                    <use id="Mask" fill="url(#linearGradient-12)" xlink:href="#path-13"></use>
                                    <polygon fill="#5A93E8" opacity="0.5" mask="url(#mask-14)" points="3.32697082 -1.5804804e-13 2.16074212 12.1741032 2 22.306874 7.83819772 3.45056674"></polygon>
                                </g>
                            </g>
                            <circle id="椭圆形" stroke-opacity="0.363620924" stroke="#62BAF1" stroke-width="3.5" fill="#5A93E8" cx="22" cy="35" r="7"></circle>
                        </g>
                    </g>
                </g>
            </g>
            <path d="M95,52 L95,49 L97,49 L97,52 L100,52 L100,54 L97,54 L97,57 L95,57 L95,54 L92,54 L92,52 L95,52 Z" id="合并形状" fill="#FFFFFF" opacity="0.19740979"></path>
            <path d="M211,16 L211,13 L213,13 L213,16 L216,16 L216,18 L213,18 L213,21 L211,21 L211,18 L208,18 L208,16 L211,16 Z" id="合并形状-copy-2" fill="#FFFFFF" opacity="0.199316412"></path>
            <path d="M68,16 C65.244206,16 63.244206,18 62,22 C60.755794,18 58.755794,16 56,16 C58.755794,16 60.755794,14 62,10 C63.244206,14 65.244206,16 68,16 Z" id="合并形状" fill="#FFFFFF" opacity="0.700502268"></path>
            <path d="M112.098076,32.0980762 C110.720179,32.0980762 109.720179,33.0980762 109.098076,35.0980762 C108.475973,33.0980762 107.475973,32.0980762 106.098076,32.0980762 C107.475973,32.0980762 108.475973,31.0980762 109.098076,29.0980762 C109.720179,31.0980762 110.720179,32.0980762 112.098076,32.0980762 Z" id="合并形状-copy-4" fill="#FFFFFF" opacity="0.60147418"></path>
            <path d="M280,51 C276.784907,51 274.451574,53.3333333 273,58 C271.548426,53.3333333 269.215093,51 266,51 C269.215093,51 271.548426,48.6666667 273,44 C274.451574,48.6666667 276.784907,51 280,51 Z" id="合并形状-copy-3" fill="#FFFFFF" opacity="0.800920759"></path>
            <path d="M246.659215,7.8623635e-14 L270.453954,7.8623635e-14 L270.453954,16.0817789 L275.074406,16.0817789 C277.857159,16.0817789 280.113026,18.2230427 280.113026,20.8644254 C280.113026,21.9736397 279.706843,23.0483655 278.964005,23.9046315 L262.446184,42.9446707 C260.677259,44.9837052 257.501829,45.2755226 255.353662,43.5964631 C255.103194,43.4006916 254.873234,43.1824139 254.666985,42.9446707 L238.149164,23.9046315 C236.380238,21.865597 236.687674,18.8514863 238.835841,17.1724268 C239.737936,16.4673276 240.870182,16.0817789 242.038764,16.0817789 L246.659215,16.0817789 L246.659215,1.0658141e-14 Z" id="路径" fill="#FFFFFF" opacity="0.0367559539"></path>
            <mask id="mask-16" fill="white">
                <use xlink:href="#path-15"></use>
            </mask>
            <use id="合并形状" fill="#FFFFFF" opacity="0.101855472" xlink:href="#path-15"></use>
        </g>
    </g>
</svg>