<?xml version="1.0" encoding="UTF-8"?>
<svg width="22px" height="22px" viewBox="0 0 22 22" version="1.1" xmlns="http://www.w3.org/2000/svg" xmlns:xlink="http://www.w3.org/1999/xlink">
    <!-- Generator: Sketch 52.2 (67145) - http://www.bohemiancoding.com/sketch -->
    <title>icon_delete_record</title>
    <desc>Created with Sketch.</desc>
    <g id="icon_delete_record" stroke="none" stroke-width="1" fill="none" fill-rule="evenodd">
        <g>
            <rect id="矩形" x="0" y="0" width="22" height="22"></rect>
            <g id="manage_delete" transform="translate(1.000000, 1.000000)">
                <g>
                    <rect id="矩形" x="0" y="0" width="20" height="20"></rect>
                    <g id="分组-4" transform="translate(2.000000, 1.000000)" stroke="#666666">
                        <path d="M4.75,2 L4.75,3.75 L0.75,3.75 C0.611928813,3.75 0.5,3.86192881 0.5,4 C0.5,4.13807119 0.611928813,4.25 0.75,4.25 L15.25,4.25 C15.3880712,4.25 15.5,4.13807119 15.5,4 C15.5,3.86192881 15.3880712,3.75 15.25,3.75 L11.25,3.75 L11.25,2 C11.25,1.30964406 10.6903559,0.75 10,0.75 L6,0.75 C5.30964406,0.75 4.75,1.30964406 4.75,2 Z M10.75,3.75 L5.25,3.75 L5.25,2 C5.25,1.58578644 5.58578644,1.25 6,1.25 L10,1.25 C10.4142136,1.25 10.75,1.58578644 10.75,2 L10.75,3.75 Z M13.75,7 L13.75,15 C13.75,15.9664983 12.9664983,16.75 12,16.75 L4,16.75 C3.03350169,16.75 2.25,15.9664983 2.25,15 L2.25,7 C2.25,6.86192881 2.13807119,6.75 2,6.75 C1.86192881,6.75 1.75,6.86192881 1.75,7 L1.75,15 C1.75,16.2426407 2.75735931,17.25 4,17.25 L12,17.25 C13.2426407,17.25 14.25,16.2426407 14.25,15 L14.25,7 C14.25,6.86192881 14.1380712,6.75 14,6.75 C13.8619288,6.75 13.75,6.86192881 13.75,7 Z M5.75,7.5 C5.61192881,7.5 5.5,7.61192881 5.5,7.75 L5.5,13.5625 C5.5,13.7005712 5.61192881,13.8125 5.75,13.8125 C5.88807119,13.8125 6,13.7005712 6,13.5625 L6,7.75 C6,7.61192881 5.88807119,7.5 5.75,7.5 Z M9.75,7.5 C9.61192881,7.5 9.5,7.61192881 9.5,7.75 L9.5,13.5625 C9.5,13.7005712 9.61192881,13.8125 9.75,13.8125 C9.88807119,13.8125 10,13.7005712 10,13.5625 L10,7.75 C10,7.61192881 9.88807119,7.5 9.75,7.5 Z" id="形状"></path>
                    </g>
                </g>
            </g>
        </g>
    </g>
</svg>