<?xml version="1.0" encoding="UTF-8"?>
<svg width="20px" height="20px" viewBox="0 0 20 20" version="1.1" xmlns="http://www.w3.org/2000/svg" xmlns:xlink="http://www.w3.org/1999/xlink">
    <!-- Generator: Sketch 52.2 (67145) - http://www.bohemiancoding.com/sketch -->
    <title>manage_delete</title>
    <desc>Created with Sketch.</desc>
    <g id="manage_delete" stroke="none" stroke-width="1" fill="none" fill-rule="evenodd" opacity="0.6">
        <g>
            <rect id="矩形" x="0" y="0" width="20" height="20"></rect>
            <g id="分组-4" transform="translate(2.000000, 2.000000)">
                <rect id="矩形" fill="#FFFFFF" x="0" y="2.25" width="16" height="1.5" rx="0.75"></rect>
                <path d="M5,3 L5,1 C5,0.44771525 5.44771525,1.01453063e-16 6,0 L10,0 C10.5522847,-1.01453063e-16 11,0.44771525 11,1 L11,3" id="路径" stroke="#FFFFFF" stroke-width="1.5"></path>
                <path d="M2,16 L2,8 C2,6.8954305 2.8954305,6 4,6 L12,6 C13.1045695,6 14,6.8954305 14,8 L14,16" id="路径-copy" stroke="#FFFFFF" stroke-width="1.5" stroke-linecap="round" transform="translate(8.000000, 11.000000) rotate(-180.000000) translate(-8.000000, -11.000000) "></path>
                <rect id="矩形" fill="#FFFFFF" x="5" y="6" width="1.5" height="7.3125"></rect>
                <rect id="矩形-copy-2" fill="#FFFFFF" x="9" y="6" width="1.5" height="7.3125"></rect>
            </g>
        </g>
    </g>
</svg>