<?xml version="1.0" encoding="UTF-8"?>
<svg width="50px" height="50px" viewBox="0 0 50 50" version="1.1" xmlns="http://www.w3.org/2000/svg" xmlns:xlink="http://www.w3.org/1999/xlink">
    <!-- Generator: Sketch 52.2 (67145) - http://www.bohemiancoding.com/sketch -->
    <title>购买失败</title>
    <desc>Created with Sketch.</desc>
    <g id="购买失败" stroke="none" stroke-width="1" fill="none" fill-rule="evenodd">
        <g>
            <circle id="椭圆形" fill="#EA4444" cx="25" cy="25" r="25"></circle>
            <path d="M24.7781746,21.9497475 L31.1421356,15.5857864 C31.9231842,14.8047379 33.1895142,14.8047379 33.9705627,15.5857864 C34.7516113,16.366835 34.7516113,17.633165 33.9705627,18.4142136 L27.6066017,24.7781746 L33.9705627,31.1421356 C34.7516113,31.9231842 34.7516113,33.1895142 33.9705627,33.9705627 C33.1895142,34.7516113 31.9231842,34.7516113 31.1421356,33.9705627 L24.7781746,27.6066017 L18.4142136,33.9705627 C17.633165,34.7516113 16.366835,34.7516113 15.5857864,33.9705627 C14.8047379,33.1895142 14.8047379,31.9231842 15.5857864,31.1421356 L21.9497475,24.7781746 L15.5857864,18.4142136 C14.8047379,17.633165 14.8047379,16.366835 15.5857864,15.5857864 C16.366835,14.8047379 17.633165,14.8047379 18.4142136,15.5857864 L24.7781746,21.9497475 Z" id="合并形状" fill="#FFFFFF"></path>
        </g>
    </g>
</svg>