<?xml version="1.0" encoding="UTF-8"?>
<svg width="74px" height="74px" viewBox="0 0 74 74" version="1.1" xmlns="http://www.w3.org/2000/svg" xmlns:xlink="http://www.w3.org/1999/xlink">
    <!-- Generator: Sketch 52.2 (67145) - http://www.bohemiancoding.com/sketch -->
    <title>call_speakerphone_pressed</title>
    <desc>Created with Sketch.</desc>
    <g id="call_speakerphone_pressed" stroke="none" stroke-width="1" fill="none" fill-rule="evenodd">
        <path d="M37,74 C16.5654643,74 0,57.4345357 0,37 C0,16.5654643 16.5654643,0 37,0 C57.4345357,0 74,16.5654643 74,37 C74,57.4345357 57.4345357,74 37,74 Z M28.2317708,32.7482024 L23.0424107,32.7482024 L23.0424107,41.1572933 L28.2317708,41.1572933 L37.5368304,47.9896797 L37.5368304,25.915816 L28.2317708,32.7482024 Z M41.2946429,30.7331303 L41.2946429,32.8806639 C43.1469515,33.3474135 44.515625,34.9935984 44.515625,36.9527478 C44.515625,38.9118972 43.1469515,40.5580822 41.2946429,41.0248317 L41.2946429,43.1723654 C44.3413842,42.6719424 46.6629464,40.0777723 46.6629464,36.9527478 C46.6629464,33.8277233 44.3413842,31.2335533 41.2946429,30.7331303 Z M41.2946429,25.437384 L41.2946429,27.5502582 C46.1260629,28.07314 49.8839286,32.0833022 49.8839286,36.9527478 C49.8839286,41.8221934 46.1260629,45.8323557 41.2946429,46.3552375 L41.2946429,48.4681117 C47.3141217,47.9370474 52.03125,42.984213 52.03125,36.9527478 C52.03125,30.9212827 47.3141217,25.9684483 41.2946429,25.437384 Z" id="形状" fill="#FFFFFF"></path>
    </g>
</svg>