<?xml version="1.0" encoding="UTF-8"?>
<svg width="28px" height="20px" viewBox="0 0 28 20" version="1.1" xmlns="http://www.w3.org/2000/svg">
    <!-- Generator: Sketch 52.2 (67145) - http://www.bohemiancoding.com/sketch -->
    <title>number_icon_backspace</title>
    <desc>Created with Sketch.</desc>
    <g id="number_icon_backspace" stroke="none" stroke-width="1" fill="none" fill-rule="evenodd">
        <g fill="#CCCCCC" id="合并形状">
            <path d="M9.62490095,1.04658772e-14 L24,1.02140518e-14 C26.209139,9.80823958e-15 28,1.790861 28,4 L28,16 C28,18.209139 26.209139,20 24,20 L9.63084219,20 C8.43803269,20 7.30745913,19.4676629 6.54757253,18.5482245 L0.517896625,11.2525107 C-0.0944241946,10.5116223 -0.093120527,9.43993587 0.521001005,8.70053931 L6.54784005,1.44428166 C7.30778533,0.529314682 8.43549716,9.98845255e-15 9.62490095,9.76996262e-15 Z M16.7853069,8.88332228 L13.9421866,6.04020203 C13.637882,5.73589738 13.1445067,5.73589738 12.840202,6.04020203 C12.5358974,6.34450667 12.5358974,6.83788198 12.840202,7.14218662 L15.6833223,9.98530687 L12.9430539,12.7255752 C12.6306345,13.0379947 12.6306345,13.5445266 12.9430539,13.8569461 C13.2554734,14.1693655 13.7620053,14.1693655 14.0744248,13.8569461 L16.8146931,11.1166777 L19.6578134,13.959798 C19.962118,14.2641026 20.4554933,14.2641026 20.759798,13.959798 C21.0641026,13.6554933 21.0641026,13.162118 20.759798,12.8578134 L17.9166777,10.0146931 L20.6569461,7.27442477 C20.9693655,6.96200534 20.9693655,6.45547335 20.6569461,6.14305392 C20.3445266,5.83063449 19.8379947,5.83063449 19.5255752,6.14305392 L16.7853069,8.88332228 Z"></path>
        </g>
    </g>
</svg>