<?xml version="1.0" encoding="UTF-8"?>
<svg width="74px" height="74px" viewBox="0 0 74 74" version="1.1" xmlns="http://www.w3.org/2000/svg" xmlns:xlink="http://www.w3.org/1999/xlink">
    <!-- Generator: Sketch 52.2 (67145) - http://www.bohemiancoding.com/sketch -->
    <title>call_refuse_default</title>
    <desc>Created with Sketch.</desc>
    <defs>
        <rect id="path-1" x="0" y="0" width="34.6875" height="34.6875"></rect>
    </defs>
    <g id="call_refuse_default" stroke="none" stroke-width="1" fill="none" fill-rule="evenodd">
        <g>
            <circle id="椭圆形" fill="#FA5150" cx="37" cy="37" r="37"></circle>
            <g id="路径" transform="translate(37.000000, 37.000000) rotate(-225.000000) translate(-37.000000, -37.000000) translate(19.656250, 19.656250)">
                <mask id="mask-2" fill="white">
                    <use xlink:href="#path-1"></use>
                </mask>
                <g id="Mask"></g>
                <path d="M24.2785708,17.5222839 L23.6814396,14.8972739 C23.540088,14.2758873 23.9057587,13.651702 24.510194,13.4826233 L31.222099,11.6051019 C31.6829866,11.4761778 32.17458,11.6458212 32.4632888,12.0334225 C33.4950925,13.4186542 33.893531,15.1633412 33.6586044,17.2674837 C32.8253629,22.4767329 25.2602918,26.015625 16.8619792,26.015625 C8.46366653,26.015625 0.898595386,22.4767329 0.0653539004,17.2674837 C-0.169572707,15.1633412 0.22886584,13.4186542 1.26066954,12.0334225 C1.54937831,11.6458212 2.04097171,11.4761778 2.5018593,11.6051019 L9.21376436,13.4826233 C9.81819963,13.651702 10.1838703,14.2758873 10.0425188,14.8972739 L9.44538755,17.5222839 C9.89185427,19.617308 13.1536834,21.259354 16.8619792,21.259354 C20.570275,21.259354 23.8321041,19.617308 24.2785708,17.5222839 Z" fill="#FFFFFF" mask="url(#mask-2)" transform="translate(16.861979, 18.789062) rotate(-315.000000) translate(-16.861979, -18.789062) "></path>
            </g>
        </g>
    </g>
</svg>