<?xml version="1.0" encoding="UTF-8"?>
<svg width="22px" height="22px" viewBox="0 0 22 22" version="1.1" xmlns="http://www.w3.org/2000/svg" xmlns:xlink="http://www.w3.org/1999/xlink">
    <!-- Generator: Sketch 52.2 (67145) - http://www.bohemiancoding.com/sketch -->
    <title>btn_number_voicephone</title>
    <desc>Created with Sketch.</desc>
    <defs>
        <rect id="path-1" x="0" y="0" width="22" height="22"></rect>
    </defs>
    <g id="btn_number_voicephone" stroke="none" stroke-width="1" fill="none" fill-rule="evenodd">
        <g id="路径">
            <g>
                <mask id="mask-2" fill="white">
                    <use xlink:href="#path-1"></use>
                </mask>
                <g id="Mask"></g>
                <path d="M15.3983008,11.1132323 L15.0195797,9.44836107 C14.9299297,9.05425643 15.1618506,8.65837678 15.5452041,8.55114128 L19.8021241,7.36035292 C20.0944348,7.27858484 20.4062201,7.38617846 20.5893291,7.63200852 C21.2437343,8.51056987 21.4964377,9.61711013 21.3474392,10.9516293 C20.8189689,14.2555135 16.0209418,16.5 10.6944444,16.5 C5.36794706,16.5 0.569919957,14.2555135 0.041449681,10.9516293 C-0.107548816,9.61711013 0.145154551,8.51056987 0.799559782,7.63200852 C0.982668764,7.38617846 1.29445413,7.27858484 1.58676482,7.36035292 L5.84368479,8.55114128 C6.22703832,8.65837678 6.4589592,9.05425643 6.36930919,9.44836107 L5.99058814,11.1132323 C6.27375262,12.4419683 8.34251629,13.4834101 10.6944444,13.4834101 C13.0463726,13.4834101 15.1151363,12.4419683 15.3983008,11.1132323 Z" fill="#FFFFFF" mask="url(#mask-2)" transform="translate(10.694444, 11.916667) rotate(-315.000000) translate(-10.694444, -11.916667) "></path>
                <path d="M15.75,3 C16.1642136,3 16.5,3.33578644 16.5,3.75 L16.5,6.25 C16.5,6.66421356 16.1642136,7 15.75,7 C15.3357864,7 15,6.66421356 15,6.25 L15,3.75 C15,3.33578644 15.3357864,3 15.75,3 Z M19.75,3 C20.1642136,3 20.5,3.33578644 20.5,3.75 L20.5,6.25 C20.5,6.66421356 20.1642136,7 19.75,7 C19.3357864,7 19,6.66421356 19,6.25 L19,3.75 C19,3.33578644 19.3357864,3 19.75,3 Z M17.75,2 C18.1642136,2 18.5,2.33578644 18.5,2.75 L18.5,7.25 C18.5,7.66421356 18.1642136,8 17.75,8 C17.3357864,8 17,7.66421356 17,7.25 L17,2.75 C17,2.33578644 17.3357864,2 17.75,2 Z" id="形状结合" fill="#FFFFFF" mask="url(#mask-2)"></path>
            </g>
        </g>
    </g>
</svg>