<?xml version="1.0" encoding="UTF-8"?>
<svg width="74px" height="74px" viewBox="0 0 74 74" version="1.1" xmlns="http://www.w3.org/2000/svg" xmlns:xlink="http://www.w3.org/1999/xlink">
    <!-- Generator: Sketch 52.2 (67145) - http://www.bohemiancoding.com/sketch -->
    <title>call_keyboard_pressed</title>
    <desc>Created with Sketch.</desc>
    <g id="call_keyboard_pressed" stroke="none" stroke-width="1" fill="none" fill-rule="evenodd">
        <path d="M37,74 C16.5654643,74 0,57.4345357 0,37 C0,16.5654643 16.5654643,0 37,0 C57.4345357,0 74,16.5654643 74,37 C74,57.4345357 57.4345357,74 37,74 Z M28.1057692,30.7740385 C29.5794136,30.7740385 30.7740385,29.5794136 30.7740385,28.1057692 C30.7740385,26.6321248 29.5794136,25.4375 28.1057692,25.4375 C26.6321248,25.4375 25.4375,26.6321248 25.4375,28.1057692 C25.4375,29.5794136 26.6321248,30.7740385 28.1057692,30.7740385 Z M28.1057692,39.6682692 C29.5794136,39.6682692 30.7740385,38.4736444 30.7740385,37 C30.7740385,35.5263556 29.5794136,34.3317308 28.1057692,34.3317308 C26.6321248,34.3317308 25.4375,35.5263556 25.4375,37 C25.4375,38.4736444 26.6321248,39.6682692 28.1057692,39.6682692 Z M28.1057692,48.5625 C29.5794136,48.5625 30.7740385,47.3678752 30.7740385,45.8942308 C30.7740385,44.4205864 29.5794136,43.2259615 28.1057692,43.2259615 C26.6321248,43.2259615 25.4375,44.4205864 25.4375,45.8942308 C25.4375,47.3678752 26.6321248,48.5625 28.1057692,48.5625 Z M37,30.7740385 C38.4736444,30.7740385 39.6682692,29.5794136 39.6682692,28.1057692 C39.6682692,26.6321248 38.4736444,25.4375 37,25.4375 C35.5263556,25.4375 34.3317308,26.6321248 34.3317308,28.1057692 C34.3317308,29.5794136 35.5263556,30.7740385 37,30.7740385 Z M37,39.6682692 C38.4736444,39.6682692 39.6682692,38.4736444 39.6682692,37 C39.6682692,35.5263556 38.4736444,34.3317308 37,34.3317308 C35.5263556,34.3317308 34.3317308,35.5263556 34.3317308,37 C34.3317308,38.4736444 35.5263556,39.6682692 37,39.6682692 Z M37,48.5625 C38.4736444,48.5625 39.6682692,47.3678752 39.6682692,45.8942308 C39.6682692,44.4205864 38.4736444,43.2259615 37,43.2259615 C35.5263556,43.2259615 34.3317308,44.4205864 34.3317308,45.8942308 C34.3317308,47.3678752 35.5263556,48.5625 37,48.5625 Z M45.8942308,30.7740385 C47.3678752,30.7740385 48.5625,29.5794136 48.5625,28.1057692 C48.5625,26.6321248 47.3678752,25.4375 45.8942308,25.4375 C44.4205864,25.4375 43.2259615,26.6321248 43.2259615,28.1057692 C43.2259615,29.5794136 44.4205864,30.7740385 45.8942308,30.7740385 Z M45.8942308,39.6682692 C47.3678752,39.6682692 48.5625,38.4736444 48.5625,37 C48.5625,35.5263556 47.3678752,34.3317308 45.8942308,34.3317308 C44.4205864,34.3317308 43.2259615,35.5263556 43.2259615,37 C43.2259615,38.4736444 44.4205864,39.6682692 45.8942308,39.6682692 Z M45.8942308,48.5625 C47.3678752,48.5625 48.5625,47.3678752 48.5625,45.8942308 C48.5625,44.4205864 47.3678752,43.2259615 45.8942308,43.2259615 C44.4205864,43.2259615 43.2259615,44.4205864 43.2259615,45.8942308 C43.2259615,47.3678752 44.4205864,48.5625 45.8942308,48.5625 Z" id="形状" fill="#FFFFFF"></path>
    </g>
</svg>