<?xml version="1.0" encoding="UTF-8"?>
<svg width="74px" height="74px" viewBox="0 0 74 74" version="1.1" xmlns="http://www.w3.org/2000/svg" xmlns:xlink="http://www.w3.org/1999/xlink">
    <!-- Generator: Sketch 52.2 (67145) - http://www.bohemiancoding.com/sketch -->
    <title>call_mute_pressed</title>
    <desc>Created with Sketch.</desc>
    <g id="call_mute_pressed" stroke="none" stroke-width="1" fill="none" fill-rule="evenodd">
        <path d="M37,74 C16.5654643,74 0,57.4345357 0,37 C0,16.5654643 16.5654643,0 37,0 C57.4345357,0 74,16.5654643 74,37 C74,57.4345357 57.4345357,74 37,74 Z M32.8515198,45.740506 C34.136345,46.2970542 35.5536272,46.6055324 37.0429584,46.6055324 C42.8719977,46.6055324 47.5973678,41.8801624 47.5973678,36.0511231 L47.5973678,35.9324555 L45.6778511,35.9324555 C45.6258714,40.6569985 41.7798091,44.470917 37.0429584,44.470917 C36.1513121,44.470917 35.2912288,44.3357791 34.482073,44.0848674 L32.8515198,45.740506 Z M28.0427453,41.5668555 L29.5158793,40.071058 C28.8250175,38.8459533 28.4245999,37.4352727 28.4080658,35.9324555 L26.4885491,35.9324555 L26.4885491,36.0511231 C26.4885491,38.0728337 27.0569828,39.9617795 28.0427453,41.5668555 Z M42.2098142,27.1818317 C41.7687532,24.8713364 39.7376361,23.125 37.2986402,23.125 L36.7872766,23.125 C34.0258529,23.125 31.7872766,25.3635763 31.7872766,28.125 L31.7872766,37.3365385 C31.7872766,37.4750089 31.7929055,37.6121647 31.8039468,37.7477894 L42.2098142,27.1818317 Z M42.2986402,36.1480453 L36.2337457,42.3062459 C36.4155003,42.3262631 36.6001885,42.3365385 36.7872766,42.3365385 L37.2986402,42.3365385 C40.060064,42.3365385 42.2986402,40.0979622 42.2986402,37.3365385 L42.2986402,36.1480453 Z M35.9918221,48.7403846 L31.7872766,48.7403846 L31.7872766,50.875 L42.2986402,50.875 L42.2986402,48.7403846 L38.0940948,48.7403846 L38.0940948,46.6057692 L35.9918221,46.6057692 L35.9918221,48.7403846 Z M46.6624535,25.6794924 L25.8510152,46.8111066 L27.3375465,48.3205076 L48.1489848,27.1888934 L46.6624535,25.6794924 Z" id="形状" fill="#FFFFFF"></path>
    </g>
</svg>