<?xml version="1.0" encoding="UTF-8"?>
<svg width="74px" height="74px" viewBox="0 0 74 74" version="1.1" xmlns="http://www.w3.org/2000/svg" xmlns:xlink="http://www.w3.org/1999/xlink">
    <!-- Generator: Sketch 52.2 (67145) - http://www.bohemiancoding.com/sketch -->
    <title>call_mute_default</title>
    <desc>Created with Sketch.</desc>
    <g id="call_mute_default" stroke="none" stroke-width="1" fill="none" fill-rule="evenodd">
        <g>
            <circle id="椭圆形" stroke="#FFFFFF" stroke-width="2" opacity="0.2" cx="37" cy="37" r="36"></circle>
            <g id="编组-2" transform="translate(25.437500, 23.125000)" fill="#FFFFFF">
                <path d="M7.41401977,22.615506 L9.044573,20.9598674 C9.85372884,21.2107791 10.7138121,21.345917 11.6054584,21.345917 C16.3423091,21.345917 20.1883714,17.5319985 20.2403511,12.8074555 L22.1598678,12.8074555 L22.1598678,12.9261231 C22.1598678,18.7551624 17.4344977,23.4805324 11.6054584,23.4805324 C10.1161272,23.4805324 8.69884496,23.1720542 7.41401977,22.615506 Z M2.60524534,18.4418555 C1.61948282,16.8367795 1.0510491,14.9478337 1.0510491,12.9261231 L1.0510491,12.8074555 L2.97056579,12.8074555 C2.98709987,14.3102727 3.3875175,15.7209533 4.07837926,16.946058 L2.60524534,18.4418555 Z M16.7723142,4.05683172 L6.36644684,14.6227894 C6.35540546,14.4871647 6.34977661,14.3500089 6.34977661,14.2115385 L6.34977661,5 C6.34977661,2.23857625 8.58835286,5.07265313e-16 11.3497766,0 L11.8611402,0 C14.3001361,-4.48036265e-16 16.3312532,1.74633636 16.7723142,4.05683172 Z M16.8611402,13.0230453 L16.8611402,14.2115385 C16.8611402,16.9729622 14.622564,19.2115385 11.8611402,19.2115385 L11.3497766,19.2115385 C11.1626885,19.2115385 10.9780003,19.2012631 10.7962457,19.1812459 L16.8611402,13.0230453 Z M10.5543221,25.6153846 L10.5543221,23.4807692 L12.6565948,23.4807692 L12.6565948,25.6153846 L16.8611402,25.6153846 L16.8611402,27.75 L6.34977661,27.75 L6.34977661,25.6153846 L10.5543221,25.6153846 Z" id="形状结合"></path>
                <polygon id="矩形" transform="translate(11.562500, 13.875000) scale(-1, 1) rotate(45.000000) translate(-11.562500, -13.875000) " points="-3.27469406 12.7025787 26.3835227 12.9289773 26.3996941 15.0474213 -3.25852273 14.8210227"></polygon>
            </g>
        </g>
    </g>
</svg>