<?xml version="1.0" encoding="UTF-8"?>
<svg width="74px" height="74px" viewBox="0 0 74 74" version="1.1" xmlns="http://www.w3.org/2000/svg" xmlns:xlink="http://www.w3.org/1999/xlink">
    <!-- Generator: Sketch 52.2 (67145) - http://www.bohemiancoding.com/sketch -->
    <title>call_speakerphone_default</title>
    <desc>Created with Sketch.</desc>
    <g id="call_speakerphone_default" stroke="none" stroke-width="1" fill="none" fill-rule="evenodd">
        <g>
            <circle id="椭圆形" stroke="#FFFFFF" stroke-width="2" opacity="0.2" cx="37" cy="37" r="36"></circle>
            <g id="编组" transform="translate(21.968750, 25.437500)" fill="#FFFFFF">
                <path d="M2.3125,10.2114345 L15.5680804,0.478316024 L15.5680804,22.5521797 L2.3125,12.8190612 L2.3125,10.2114345 Z" id="合并形状"></path>
                <rect id="矩形" x="1.07366071" y="7.31070239" width="6.44196429" height="8.40909091"></rect>
                <path d="M19.3258929,5.29563029 C22.3726342,5.79605329 24.6941964,8.39022333 24.6941964,11.5152478 C24.6941964,14.6402723 22.3726342,17.2344424 19.3258929,17.7348654 L19.3258929,15.5873317 C21.1782015,15.1205822 22.546875,13.4743972 22.546875,11.5152478 C22.546875,9.55609844 21.1782015,7.90991348 19.3258929,7.44316395 L19.3258929,5.29563029 Z" id="形状结合"></path>
                <path d="M19.3258929,-0.000116033987 C25.3453717,0.530948307 30.0625,5.48378266 30.0625,11.5152478 C30.0625,17.546713 25.3453717,22.4995474 19.3258929,23.0306117 L19.3258929,20.9177375 C24.1573129,20.3948557 27.9151786,16.3846934 27.9151786,11.5152478 C27.9151786,6.64580224 24.1573129,2.63563999 19.3258929,2.1127582 L19.3258929,-0.000116033987 Z" id="形状结合"></path>
            </g>
        </g>
    </g>
</svg>