<?xml version="1.0" encoding="UTF-8"?>
<svg width="24px" height="24px" viewBox="0 0 24 24" version="1.1" xmlns="http://www.w3.org/2000/svg" xmlns:xlink="http://www.w3.org/1999/xlink">
    <!-- Generator: Sketch 59.1 (86144) - https://sketch.com -->
    <title>切片</title>
    <desc>Created with Sketch.</desc>
    <g id="Page-1" stroke="none" stroke-width="1" fill="none" fill-rule="evenodd">
        <g id="激活分机" transform="translate(-15.000000, -54.000000)">
            <g id="nav_icon_close" transform="translate(15.000000, 54.000000)">
                <g>
                    <rect id="矩形" x="0" y="0" width="24" height="24"></rect>
                    <path d="M7.05025253,5.63603897 L11.9991458,10.5851458 L16.9497475,5.63603897 C17.3102314,5.27555501 17.8774625,5.24782547 18.2697537,5.55285036 L18.363961,5.63603897 C18.7544853,6.02656326 18.7544853,6.65972824 18.363961,7.05025253 L18.363961,7.05025253 L13.4141458,11.9991458 L18.363961,16.9497475 C18.7544853,17.3402718 18.7544853,17.9734367 18.363961,18.363961 C17.9734367,18.7544853 17.3402718,18.7544853 16.9497475,18.363961 L11.9991458,13.4141458 L7.05025253,18.363961 C6.68976857,18.724445 6.12253751,18.7521745 5.73024631,18.4471496 L5.63603897,18.363961 C5.24551468,17.9734367 5.24551468,17.3402718 5.63603897,16.9497475 L5.63603897,16.9497475 L10.5851458,11.9991458 L5.63603897,7.05025253 C5.24551468,6.65972824 5.24551468,6.02656326 5.63603897,5.63603897 C6.02656326,5.24551468 6.65972824,5.24551468 7.05025253,5.63603897 Z" id="合并形状" fill="#212121"></path>
                </g>
            </g>
        </g>
    </g>
</svg>