<?xml version="1.0" encoding="UTF-8"?>
<svg width="20px" height="20px" viewBox="0 0 20 20" version="1.1" xmlns="http://www.w3.org/2000/svg" xmlns:xlink="http://www.w3.org/1999/xlink">
    <!-- Generator: Sketch 59.1 (86144) - https://sketch.com -->
    <title>切片</title>
    <desc>Created with Sketch.</desc>
    <g id="Page-1" stroke="none" stroke-width="1" fill="none" fill-rule="evenodd">
        <g id="分机管理" transform="translate(-289.000000, -469.000000)">
            <g id="分组-5" transform="translate(10.000000, 301.000000)">
                <g id="分组" transform="translate(0.000000, 134.000000)">
                    <g id="icon_转发" transform="translate(279.000000, 34.000000)">
                        <g>
                            <rect id="矩形" fill="#FFFFFF" x="0" y="0" width="20" height="20"></rect>
                            <path d="M17,11.0078133 L17,16 C17,17.1045695 16.1605339,18 15.125,18 L3.875,18 C2.83946609,18 2,17.1045695 2,16 L2,4 C2,2.8954305 2.83946609,2 3.875,2 L8.56330382,2" id="路径" stroke="#666666" stroke-width="1.5" stroke-linecap="round"></path>
                            <path d="M9,12 L9,9 C9,6.790861 10.790861,5 13,5 L16,5 L16,5" id="路径" stroke="#666666" stroke-width="1.5" stroke-linecap="round"></path>
                            <path d="M12.8284271,6.82842712 L12.8284271,3.82842712 C12.8284271,3.27614237 13.2761424,2.82842712 13.8284271,2.82842712 L16.8284271,2.82842712 L16.8284271,2.82842712" id="路径-copy" stroke="#666666" stroke-width="1.5" stroke-linecap="round" transform="translate(14.828427, 4.828427) rotate(-225.000000) translate(-14.828427, -4.828427) "></path>
                        </g>
                    </g>
                </g>
            </g>
        </g>
    </g>
</svg>