<?xml version="1.0" encoding="UTF-8"?>
<svg width="20px" height="20px" viewBox="0 0 20 20" version="1.1" xmlns="http://www.w3.org/2000/svg" xmlns:xlink="http://www.w3.org/1999/xlink">
    <!-- Generator: Sketch 52.2 (67145) - http://www.bohemiancoding.com/sketch -->
    <title>提示</title>
    <desc>Created with Sketch.</desc>
    <g id="提示" stroke="none" stroke-width="1" fill="none" fill-rule="evenodd">
        <g>
            <circle id="椭圆形" fill="#F85852" cx="10" cy="10" r="10"></circle>
            <g id="分组-3" transform="translate(10.000000, 10.500000) scale(-1, -1) translate(-10.000000, -10.500000) translate(9.000000, 5.000000)" fill="#FFFFFF">
                <path d="M0,9.33333333 L0,4.33333333 C-6.76353751e-17,3.78104858 0.44771525,3.33333333 1,3.33333333 L1,3.33333333 C1.55228475,3.33333333 2,3.78104858 2,4.33333333 L2,9.33333333 C2,9.88561808 1.55228475,10.3333333 1,10.3333333 L1,10.3333333 C0.44771525,10.3333333 6.76353751e-17,9.88561808 0,9.33333333 Z" id="路径"></path>
                <path d="M1.00571429,2 C0.422857143,2 0,1.575 0,1 C0,0.4 0.422857143,0 1.00571429,0 C1.57714286,0 2,0.4 2,1 C2,1.575 1.57714286,2 1.00571429,2 Z" id="路径"></path>
            </g>
        </g>
    </g>
</svg>