<?xml version="1.0" encoding="UTF-8"?>
<svg width="50px" height="50px" viewBox="0 0 50 50" version="1.1" xmlns="http://www.w3.org/2000/svg" xmlns:xlink="http://www.w3.org/1999/xlink">
    <!-- Generator: Sketch 52.2 (67145) - http://www.bohemiancoding.com/sketch -->
    <title>icon_mail</title>
    <desc>Created with Sketch.</desc>
    <g id="icon_mail" stroke="none" stroke-width="1" fill="none" fill-rule="evenodd">
        <g>
            <rect id="矩形" x="0" y="0" width="50" height="50"></rect>
            <g id="分组-18" transform="translate(7.000000, 9.000000)">
                <path d="M15,23.3529412 L16.0588235,23.3529412 C16.6435956,23.3529412 17.1176471,22.8788897 17.1176471,22.2941176 C17.1176471,21.7093456 16.6435956,21.2352941 16.0588235,21.2352941 L15,21.2352941 L15,17.7058824 L16.0588235,17.7058824 C16.6435956,17.7058824 17.1176471,17.2318309 17.1176471,16.6470588 C17.1176471,16.0622867 16.6435956,15.5882353 16.0588235,15.5882353 L15,15.5882353 L15,12.0588235 L16.0588235,12.0588235 C16.6435956,12.0588235 17.1176471,11.5847721 17.1176471,11 C17.1176471,10.4152279 16.6435956,9.94117647 16.0588235,9.94117647 L15,9.94117647 L15,8 C15,6.34314575 16.3431458,5 18,5 L33.1764706,5 C34.8333248,5 36.1764706,6.34314575 36.1764706,8 L36.1764706,26 C36.1764706,27.6568542 34.8333248,29 33.1764706,29 L18,29 C16.3431458,29 15,27.6568542 15,26 L15,23.3529412 Z M29.3029008,19.3580844 C28.5714874,19.8325212 27.1602057,19.3663653 26.0929986,18.2991582 C25.0257916,17.2319512 24.5596357,15.8206694 25.0340725,15.0892561 L25.9613696,14.5056547 C26.1808773,14.3675059 26.255275,14.0826361 26.1299841,13.8600272 L24.7387012,11.388084 C24.6431658,11.2183427 24.4528691,11.125689 24.2582344,11.1541492 C23.562638,11.2558619 22.9458698,11.6432975 22.4079299,12.316456 C21.1485626,14.0554189 22.307253,17.2510184 24.7241957,19.6679611 C27.1411385,22.0849038 30.3367379,23.2435942 32.0757008,21.984227 C32.7488593,21.4462871 33.136295,20.8295189 33.2380077,20.1339225 C33.2664679,19.9392878 33.1738142,19.7489911 33.0040728,19.6534556 L30.5321296,18.2621728 C30.3095207,18.1368819 30.024651,18.2112796 29.8865022,18.4307873 L29.3029008,19.3580844 Z" id="合并形状" fill="#E8E9EB" opacity="0.100000001"></path>
                <path d="M-2.84217094e-14,25 L1.5,25 C2.32842712,25 3,24.3284271 3,23.5 C3,22.6715729 2.32842712,22 1.5,22 L-2.84217094e-14,22 L2.94875235e-13,17 L1.5,17 C2.32842712,17 3,16.3284271 3,15.5 C3,14.6715729 2.32842712,14 1.5,14 L-2.84217094e-14,14 L2.94875235e-13,9 L1.5,9 C2.32842712,9 3,8.32842712 3,7.5 C3,6.67157288 2.32842712,6 1.5,6 L-2.84217094e-14,6 L2.94875235e-13,3 C2.94672329e-13,1.34314575 1.34314575,-1.39064955e-14 3,-1.42108547e-14 L26,-1.42108547e-14 C27.6568542,-1.45152139e-14 29,1.34314575 29,3 L29,29 C29,30.6568542 27.6568542,32 26,32 L3,32 C1.34314575,32 2.95078141e-13,30.6568542 2.94875235e-13,29 L2.94875235e-13,25 Z M19.2624427,19.3406195 C18.2262739,20.0127384 16.2269581,19.3523508 14.7150814,17.8404742 C13.2032047,16.3285975 12.5428172,14.3292817 13.214936,13.2931128 L14.5286069,12.4663442 C14.8395762,12.2706333 14.9449729,11.8670678 14.7674775,11.5517053 L12.7964934,8.04978572 C12.6611515,7.80931878 12.3915645,7.67805936 12.115832,7.71837799 C11.1304038,7.86247101 10.2566489,8.41133814 9.49456736,9.3649794 C7.71046372,11.8285102 9.35194177,16.3556094 12.775944,19.7796116 C16.1999462,23.2036138 20.7270454,24.8450918 23.1905762,23.0609882 C24.1442174,22.2989067 24.6930845,21.4251518 24.8371776,20.4397235 C24.8774962,20.1639911 24.7462368,19.894404 24.5057698,19.7590621 L21.0038503,17.7880781 C20.6884877,17.6105827 20.2849222,17.7159794 20.0892114,18.0269486 L19.2624427,19.3406195 Z" id="合并形状" fill="#0F88FF"></path>
            </g>
        </g>
    </g>
</svg>