<?xml version="1.0" encoding="UTF-8"?>
<svg width="40px" height="40px" viewBox="0 0 40 40" version="1.1" xmlns="http://www.w3.org/2000/svg" xmlns:xlink="http://www.w3.org/1999/xlink">
    <!-- Generator: Sketch 59.1 (86144) - https://sketch.com -->
    <title>切片</title>
    <desc>Created with Sketch.</desc>
    <g id="Page-1" stroke="none" stroke-width="1" fill="none" fill-rule="evenodd">
        <g id="升级" transform="translate(-25.000000, -400.000000)">
            <g id="编组-2" transform="translate(10.000000, 308.000000)">
                <g id="分组-5">
                    <g id="编组-3" transform="translate(15.000000, 90.000000)">
                        <g id="icon_录音_40" transform="translate(0.000000, 2.000000)">
                            <g>
                                <circle id="椭圆形" fill="#4F4BF1" cx="20" cy="20" r="20"></circle>
                                <g id="分组-3" transform="translate(7.692308, 7.692308)">
                                    <rect id="矩形" x="0" y="0" width="24" height="24"></rect>
                                    <g id="分组-2" transform="translate(3.000000, 0.000000)" fill="#FFFFFF">
                                        <path d="M17,11 C17.5522847,11 18,11.4477153 18,12 C18,16.6333431 14.4987574,20.4489272 9.99769936,20.9453252 C9.9994767,20.9623592 10,20.9811185 10,21 L10,23 C10,23.5522847 9.55228475,24 9,24 C8.44771525,24 8,23.5522847 8,23 L8,21 L8.00329942,20.9454353 C3.50176051,20.4494916 0,16.6336858 0,12 C0,11.4477153 0.44771525,11 1,11 C1.55228475,11 2,11.4477153 2,12 C2,15.8659932 5.13400675,19 9,19 C12.8659932,19 16,15.8659932 16,12 C16,11.4477153 16.4477153,11 17,11 Z M9,0 C11.7614237,-5.07265313e-16 14,2.23857625 14,5 L14,12 C14,14.7614237 11.7614237,17 9,17 C6.23857625,17 4,14.7614237 4,12 L4,11 L6,11 C6.55228475,11 7,10.5522847 7,10 C7,9.48716416 6.61395981,9.06449284 6.11662113,9.00672773 L6,9 L4,9 L4,7 L6,7 C6.55228475,7 7,6.55228475 7,6 C7,5.48716416 6.61395981,5.06449284 6.11662113,5.00672773 L6,5 L4,5 C4,2.23857625 6.23857625,5.07265313e-16 9,0 Z" id="合并形状"></path>
                                    </g>
                                </g>
                            </g>
                        </g>
                    </g>
                </g>
            </g>
        </g>
    </g>
</svg>