<?xml version="1.0" encoding="UTF-8"?>
<svg width="50px" height="50px" viewBox="0 0 50 50" version="1.1" xmlns="http://www.w3.org/2000/svg" xmlns:xlink="http://www.w3.org/1999/xlink">
    <!-- Generator: Sketch 52.2 (67145) - http://www.bohemiancoding.com/sketch -->
    <title>icon_notice</title>
    <desc>Created with Sketch.</desc>
    <g id="icon_notice" stroke="none" stroke-width="1" fill="none" fill-rule="evenodd">
        <g>
            <g id="分组-19">
                <rect id="矩形" x="0" y="0" width="50" height="50"></rect>
            </g>
            <g id="分组-8" transform="translate(8.000000, 10.000000)">
                <path d="M20.6,6.77841314 L20.6,6.6 C20.6,5.7163444 21.3163444,5 22.2,5 C23.0836556,5 23.8,5.7163444 23.8,6.6 L23.8,6.77841314 C27.0063819,7.5059798 29.4,10.3734602 29.4,13.8 L29.4,19 C29.4,20.1045695 30.2954305,21 31.4,21 L31.8,21 C32.6836556,21 33.4,21.7163444 33.4,22.6 C33.4,23.4836556 32.6836556,24.2 31.8,24.2 L12.6,24.2 C11.7163444,24.2 11,23.4836556 11,22.6 C11,21.7163444 11.7163444,21 12.6,21 L13,21 C14.1045695,21 15,20.1045695 15,19 L15,13.8 C15,10.3734602 17.3936181,7.5059798 20.6,6.77841314 Z M19,25.8 L25.4,25.8 C25.4,27.5673112 23.9673112,29 22.2,29 C20.4326888,29 19,27.5673112 19,25.8 Z" id="合并形状" fill="#E8E9EB"></path>
                <path d="M12,2.22301642 L12,2 C12,0.8954305 12.8954305,2.02906125e-16 14,0 C15.1045695,-2.02906125e-16 16,0.8954305 16,2 L16,2.22301642 C20.0079774,3.13247475 23,6.71682521 23,11 L23,18 C23,19.1045695 23.8954305,20 25,20 L26,20 C27.1045695,20 28,20.8954305 28,22 C28,23.1045695 27.1045695,24 26,24 L2,24 C0.8954305,24 0,23.1045695 0,22 C0,20.8954305 0.8954305,20 2,20 L3,20 C4.1045695,20 5,19.1045695 5,18 L5,11 C5,6.71682521 7.9920226,3.13247475 12,2.22301642 Z M10,26 L18,26 C18,28.209139 16.209139,30 14,30 C11.790861,30 10,28.209139 10,26 Z" id="合并形状" fill="#0F88FF"></path>
            </g>
        </g>
    </g>
</svg>