<?xml version="1.0" encoding="UTF-8"?>
<svg width="355px" height="130px" viewBox="0 0 355 130" version="1.1" xmlns="http://www.w3.org/2000/svg" xmlns:xlink="http://www.w3.org/1999/xlink">
    <!-- Generator: Sketch 52.2 (67145) - http://www.bohemiancoding.com/sketch -->
    <title>banner</title>
    <desc>Created with Sketch.</desc>
    <defs>
        <linearGradient x1="49.3734194%" y1="5.86626335%" x2="49.3734194%" y2="97.7658402%" id="linearGradient-1">
            <stop stop-color="#2F85FF" offset="0%"></stop>
            <stop stop-color="#1F5DFF" offset="100%"></stop>
        </linearGradient>
        <rect id="path-2" x="0" y="0" width="355" height="130" rx="6"></rect>
        <path d="M56.468746,54.9137287 C56.468746,54.9137287 56.468746,54.9137287 56.468746,54.9137287 C56.468746,49.517313 56.468746,41.7763975 56.468746,31.6909822 C57.3658935,30.0483166 57.9711719,30.5836738 59.9115277,29.6428718 C49.7467607,26.9844434 43.57369,24.1907881 41.4677559,21.1329748 C37.2337013,14.9851337 40.5159837,10.7552138 42.1771317,9.9796642 C43.8382798,9.2041146 49.0209308,11.1461833 59.3094545,14.1810249 C69.5979782,17.2158666 72.9027803,17.4128861 77.3624706,28.5627367 C78.7865307,32.1230865 78.840394,39.8682304 77.5240603,51.7981684 L77.5240603,51.7981684 C76.2710894,63.153849 76.9732915,74.6402682 79.6001815,85.7587603 L85.2444093,109.648342 L43.1751791,90.9651653 L42.2643446,81.8251451 C41.8474036,77.6412403 39.0818945,74.0610146 35.1390082,72.6006906 C26.3752308,69.3548565 20.5121088,66.4941307 17.5496421,64.0185134 L46.7783718,64.0185134 L47.3639613,64.0185134 C52.392395,64.0185134 56.468746,59.9421625 56.468746,54.9137287 Z" id="path-4"></path>
        <linearGradient x1="74.89265%" y1="14.9339335%" x2="72.8233887%" y2="94.7612343%" id="linearGradient-6">
            <stop stop-color="#1B78FF" offset="0%"></stop>
            <stop stop-color="#2368FE" stop-opacity="0.55054718" offset="44.945282%"></stop>
            <stop stop-color="#2C54FC" stop-opacity="0" offset="100%"></stop>
        </linearGradient>
        <linearGradient x1="74.89265%" y1="14.9339335%" x2="87.1776089%" y2="80.1661274%" id="linearGradient-7">
            <stop stop-color="#3688FF" offset="0%"></stop>
            <stop stop-color="#2C54FC" stop-opacity="0" offset="100%"></stop>
        </linearGradient>
        <linearGradient x1="56.7891684%" y1="1.86135269%" x2="90.9554104%" y2="83.0052395%" id="linearGradient-8">
            <stop stop-color="#3688FF" offset="0%"></stop>
            <stop stop-color="#2C54FC" stop-opacity="0" offset="100%"></stop>
        </linearGradient>
        <linearGradient x1="96.137584%" y1="42.3939835%" x2="52.741727%" y2="100%" id="linearGradient-9">
            <stop stop-color="#5068F0" offset="0%"></stop>
            <stop stop-color="#67A7FF" offset="100%"></stop>
        </linearGradient>
        <radialGradient cx="63.8099653%" cy="24.9260824%" fx="63.8099653%" fy="24.9260824%" r="47.5640253%" gradientTransform="translate(0.638100,0.249261),rotate(48.904980),scale(1.000000,0.954200),translate(-0.638100,-0.249261)" id="radialGradient-10">
            <stop stop-color="#72F8FF" stop-opacity="0.771552666" offset="0%"></stop>
            <stop stop-color="#000DFF" stop-opacity="0" offset="100%"></stop>
        </radialGradient>
        <circle id="path-11" cx="0" cy="81" r="40"></circle>
        <linearGradient x1="35.86607%" y1="69.194004%" x2="16.1578711%" y2="86.7970137%" id="linearGradient-12">
            <stop stop-color="#5068F0" stop-opacity="0" offset="0%"></stop>
            <stop stop-color="#67A7FF" offset="100%"></stop>
        </linearGradient>
        <rect id="path-13" x="0.983213429" y="0.323011156" width="43.8944844" height="72.82494" rx="2"></rect>
        <linearGradient x1="95.4765848%" y1="89.8150591%" x2="55.8836077%" y2="44.7791382%" id="linearGradient-15">
            <stop stop-color="#FFFFFF" stop-opacity="0.483101223" offset="0%"></stop>
            <stop stop-color="#2571FF" stop-opacity="0" offset="100%"></stop>
        </linearGradient>
        <path d="M36.911271,44.3131578 C36.911271,44.3131578 36.911271,44.3131578 36.911271,44.3131578 C36.911271,39.2397884 36.911271,31.9622682 36.911271,22.4805972 C37.7523823,20.9362667 39.0825182,19.7218602 40.9016787,18.8373776 C31.371807,16.338091 25.5843087,13.7116726 23.6099121,10.8369096 C19.6403181,5.05709737 22.717588,1.08039364 24.27498,0.351270858 C25.8323721,-0.377851925 27.2653725,-0.0815940094 36.911271,2.77157256 C46.5571695,5.62473913 49.6555523,5.80996444 53.8366886,16.2923502 C55.1455877,19.5738469 55.0936974,26.9207132 53.6810176,38.3329491 L53.6810178,38.3329491 C52.2253346,50.0925853 52.8712765,62.0173466 55.5887098,73.5509329 L60.463655,94.2416344 L24.4480255,78.206443 L23.6342528,70.0178059 C23.2195361,65.8446929 20.4680791,62.2704566 16.539908,60.8020105 C8.53043599,57.8078748 3.15815651,55.1648385 0.423069552,52.8729017 L27.8261614,52.8729017 L28.3515271,52.8729017 C33.0789431,52.8729017 36.911271,49.0405738 36.911271,44.3131578 Z" id="path-16"></path>
        <circle id="path-18" cx="7.46666667" cy="7.46666667" r="7.46666667"></circle>
        <filter x="-20.1%" y="-20.1%" width="140.2%" height="140.2%" filterUnits="objectBoundingBox" id="filter-19">
            <feOffset dx="0" dy="0" in="SourceAlpha" result="shadowOffsetOuter1"></feOffset>
            <feGaussianBlur stdDeviation="1" in="shadowOffsetOuter1" result="shadowBlurOuter1"></feGaussianBlur>
            <feColorMatrix values="0 0 0 0 0.0549019608   0 0 0 0 0.325490196   0 0 0 0 0.901960784  0 0 0 0.6 0" type="matrix" in="shadowBlurOuter1"></feColorMatrix>
        </filter>
        <rect id="path-20" x="0" y="0" width="7" height="7"></rect>
        <circle id="path-22" cx="7.46666667" cy="7.46666667" r="7.46666667"></circle>
        <filter x="-20.1%" y="-20.1%" width="140.2%" height="140.2%" filterUnits="objectBoundingBox" id="filter-23">
            <feOffset dx="0" dy="0" in="SourceAlpha" result="shadowOffsetOuter1"></feOffset>
            <feGaussianBlur stdDeviation="1" in="shadowOffsetOuter1" result="shadowBlurOuter1"></feGaussianBlur>
            <feColorMatrix values="0 0 0 0 0.0549019608   0 0 0 0 0.325490196   0 0 0 0 0.901960784  0 0 0 0.595618207 0" type="matrix" in="shadowBlurOuter1"></feColorMatrix>
        </filter>
        <rect id="path-24" x="0" y="0" width="7" height="7"></rect>
        <linearGradient x1="50%" y1="-0.773347182%" x2="50%" y2="99.2266528%" id="linearGradient-26">
            <stop stop-color="#FFFFFF" stop-opacity="0.395465353" offset="0%"></stop>
            <stop stop-color="#FFFFFF" stop-opacity="0" offset="100%"></stop>
        </linearGradient>
        <linearGradient x1="50%" y1="0%" x2="50%" y2="100%" id="linearGradient-27">
            <stop stop-color="#FFFFFF" offset="0%"></stop>
            <stop stop-color="#FFFFFF" stop-opacity="0.3" offset="100%"></stop>
        </linearGradient>
        <rect id="path-28" x="0" y="0" width="176" height="22" rx="11"></rect>
        <filter x="-3.4%" y="-27.3%" width="106.8%" height="154.5%" filterUnits="objectBoundingBox" id="filter-29">
            <feOffset dx="0" dy="0" in="SourceAlpha" result="shadowOffsetOuter1"></feOffset>
            <feGaussianBlur stdDeviation="2" in="shadowOffsetOuter1" result="shadowBlurOuter1"></feGaussianBlur>
            <feComposite in="shadowBlurOuter1" in2="SourceAlpha" operator="out" result="shadowBlurOuter1"></feComposite>
            <feColorMatrix values="0 0 0 0 0.105933964   0 0 0 0 0.338355241   0 0 0 0 0.964710884  0 0 0 1 0" type="matrix" in="shadowBlurOuter1"></feColorMatrix>
        </filter>
        <linearGradient x1="114.022823%" y1="67.9957087%" x2="5.56922657%" y2="67.9957087%" id="linearGradient-30">
            <stop stop-color="#307DFE" offset="0%"></stop>
            <stop stop-color="#FFFFFF" offset="100%"></stop>
        </linearGradient>
        <linearGradient x1="50%" y1="0%" x2="50%" y2="100%" id="linearGradient-31">
            <stop stop-color="#FFFFFF" offset="0%"></stop>
            <stop stop-color="#1598FF" stop-opacity="0" offset="100%"></stop>
        </linearGradient>
        <rect id="path-32" x="0" y="0" width="24" height="24" rx="12"></rect>
        <filter x="-29.2%" y="-20.8%" width="158.3%" height="158.3%" filterUnits="objectBoundingBox" id="filter-33">
            <feOffset dx="0" dy="2" in="SourceAlpha" result="shadowOffsetOuter1"></feOffset>
            <feGaussianBlur stdDeviation="2" in="shadowOffsetOuter1" result="shadowBlurOuter1"></feGaussianBlur>
            <feComposite in="shadowBlurOuter1" in2="SourceAlpha" operator="out" result="shadowBlurOuter1"></feComposite>
            <feColorMatrix values="0 0 0 0 0.0196078431   0 0 0 0 0.309803922   0 0 0 0 0.996078431  0 0 0 1 0" type="matrix" in="shadowBlurOuter1"></feColorMatrix>
        </filter>
        <rect id="path-34" x="0" y="0" width="30" height="30" rx="15"></rect>
        <filter x="-21.7%" y="-18.3%" width="143.3%" height="143.3%" filterUnits="objectBoundingBox" id="filter-35">
            <feOffset dx="0" dy="1" in="SourceAlpha" result="shadowOffsetOuter1"></feOffset>
            <feGaussianBlur stdDeviation="2" in="shadowOffsetOuter1" result="shadowBlurOuter1"></feGaussianBlur>
            <feComposite in="shadowBlurOuter1" in2="SourceAlpha" operator="out" result="shadowBlurOuter1"></feComposite>
            <feColorMatrix values="0 0 0 0 0.0196078431   0 0 0 0 0.309803922   0 0 0 0 0.996078431  0 0 0 0.600232111 0" type="matrix" in="shadowBlurOuter1"></feColorMatrix>
        </filter>
        <linearGradient x1="50%" y1="0%" x2="50%" y2="100%" id="linearGradient-36">
            <stop stop-color="#FFFFFF" stop-opacity="0.798120471" offset="0%"></stop>
            <stop stop-color="#1598FF" stop-opacity="0" offset="100%"></stop>
        </linearGradient>
        <rect id="path-37" x="0" y="0" width="16" height="16" rx="8"></rect>
        <filter x="-46.9%" y="-46.9%" width="193.8%" height="193.8%" filterUnits="objectBoundingBox" id="filter-38">
            <feOffset dx="0" dy="0" in="SourceAlpha" result="shadowOffsetOuter1"></feOffset>
            <feGaussianBlur stdDeviation="2.5" in="shadowOffsetOuter1" result="shadowBlurOuter1"></feGaussianBlur>
            <feComposite in="shadowBlurOuter1" in2="SourceAlpha" operator="out" result="shadowBlurOuter1"></feComposite>
            <feColorMatrix values="0 0 0 0 0.0196078431   0 0 0 0 0.309803922   0 0 0 0 0.996078431  0 0 0 0.5 0" type="matrix" in="shadowBlurOuter1"></feColorMatrix>
        </filter>
    </defs>
    <g id="banner" stroke="none" stroke-width="1" fill="none" fill-rule="evenodd">
        <g>
            <g id="分组-13">
                <mask id="mask-3" fill="white">
                    <use xlink:href="#path-2"></use>
                </mask>
                <use id="Mask" fill="url(#linearGradient-1)" xlink:href="#path-2"></use>
                <g id="Mask-2" mask="url(#mask-3)">
                    <g transform="translate(244.000000, 42.000000)">
                        <mask id="mask-5" fill="white">
                            <use xlink:href="#path-4"></use>
                        </mask>
                        <use id="Mask" stroke="none" fill="#054FFE" fill-rule="evenodd" transform="translate(51.397026, 59.728481) rotate(-24.000000) translate(-51.397026, -59.728481) " xlink:href="#path-4"></use>
                    </g>
                </g>
                <polygon id="路径-4-copy" fill="url(#linearGradient-6)" opacity="0.601590408" mask="url(#mask-3)" points="354.963414 0.965657925 102.036586 174.084618 354.963414 174.084618"></polygon>
                <polygon id="路径-4-copy" fill="url(#linearGradient-7)" opacity="0.298502604" mask="url(#mask-3)" points="354.753018 63.2376104 242.177427 139.941049 354.753018 139.941049"></polygon>
                <polygon id="路径-4" fill="url(#linearGradient-8)" mask="url(#mask-3)" points="354.785987 81.8761798 283.758505 130.485183 354.785987 130.485183"></polygon>
                <g id="椭圆形" opacity="0.501976376" mask="url(#mask-3)">
                    <use fill-opacity="0.5" fill="url(#linearGradient-9)" xlink:href="#path-11"></use>
                    <use fill="url(#radialGradient-10)" xlink:href="#path-11"></use>
                </g>
                <circle id="椭圆形-copy-2" fill-opacity="0.5" fill="url(#linearGradient-12)" opacity="0.304361979" mask="url(#mask-3)" cx="242" cy="2" r="128"></circle>
                <g mask="url(#mask-3)">
                    <g transform="translate(214.000000, 3.000000)">
                        <g id="分组-6" transform="translate(65.013383, 80.651500) rotate(-24.000000) translate(-65.013383, -80.651500) translate(25.013383, 10.651500)">
                            <path d="M6,1.99520384 L48.0011498,1.99520384 C51.2633951,1.99520384 53.9278896,4.6016807 53.9996961,7.86313559 L55.8657074,92.6174618 L53.8705036,97.764988 L6,97.764988 C2.6862915,97.764988 5.94054308e-12,95.0786965 5.94013727e-12,91.764988 L5.94013727e-12,7.99520384 C5.93973146e-12,4.68149534 2.6862915,1.99520384 6,1.99520384 Z" id="矩形-copy-7" fill="#054FFE"></path>
                            <rect id="矩形" fill="#FFFFFF" x="1.99520384" y="1.93267624e-12" width="53.8705036" height="95.7697842" rx="6"></rect>
                            <circle id="椭圆形" stroke="#1260EB" fill="#1362EC" cx="17.9568345" cy="4.98800959" r="1"></circle>
                            <rect id="矩形" fill="#1362EC" x="21.9472422" y="3.99040767" width="18.9544365" height="1.99520384" rx="0.997601918"></rect>
                            <g id="路径-4" transform="translate(6.000000, 10.000000)">
                                <mask id="mask-14" fill="white">
                                    <use xlink:href="#path-13"></use>
                                </mask>
                                <use id="Mask" fill="#007AFF" xlink:href="#path-13"></use>
                                <polygon fill="url(#linearGradient-15)" mask="url(#mask-14)" transform="translate(21.081299, 40.618662) scale(-1, 1) rotate(-90.000000) translate(-21.081299, -40.618662) " points="66.3236163 15.3618495 -24.161018 65.4999307 66.030233 65.8754735"></polygon>
                            </g>
                            <circle id="椭圆形" stroke="#225FFE" cx="27.9328537" cy="89.7841727" r="3.49040767"></circle>
                            <g id="矩形" transform="translate(18.954436, 44.892086)">
                                <mask id="mask-17" fill="white">
                                    <use xlink:href="#path-16"></use>
                                </mask>
                                <use id="Mask" fill="#FFC8B4" xlink:href="#path-16"></use>
                                <path d="M24.7109538,-3.00259153 L37.7109538,-3.00259153 L37.2682567,4.61729816 C37.1760796,6.20388933 35.8625734,7.44329881 34.2733069,7.44329881 L30.4627758,7.44329881 C27.1490673,7.44329881 24.4627758,4.75700731 24.4627758,1.44329881 C24.4627758,1.32722597 24.466144,1.21117757 24.4728762,1.09530012 L24.7109538,-3.00259153 Z" fill="#FFEEE7" mask="url(#mask-17)" transform="translate(31.086865, 2.220354) rotate(8.000000) translate(-31.086865, -2.220354) "></path>
                                <path d="M-2.99280576,19.9520384 L38.4997382,20.8655838 L38.4997382,46.581316 C38.4997382,51.5518787 34.4703009,55.581316 29.4997382,55.581316 C29.4336969,55.581316 29.3676576,55.580589 29.3016323,55.5791354 L-2.99280576,54.8681055 L-2.99280576,19.9520384 Z" fill="#FC9D7F" mask="url(#mask-17)"></path>
                            </g>
                            <text id="95013" font-family="DINAlternate-Bold, DIN Alternate" font-size="12" font-weight="bold" fill="#FFFFFF">
                                <tspan x="13.6310064" y="30.4878144">95013</tspan>
                            </text>
                        </g>
                        <g id="分组-copy" transform="translate(58.666667, 73.600000)">
                            <g id="椭圆形">
                                <use fill="black" fill-opacity="1" filter="url(#filter-19)" xlink:href="#path-18"></use>
                                <use fill="#19BA6C" fill-rule="evenodd" xlink:href="#path-18"></use>
                            </g>
                            <g id="路径" transform="translate(7.700000, 7.700000) rotate(-360.000000) translate(-7.700000, -7.700000) translate(3.966667, 3.966667)">
                                <mask id="mask-21" fill="white">
                                    <use xlink:href="#path-20"></use>
                                </mask>
                                <g id="Mask"></g>
                                <path d="M4.89945933,3.53602846 L4.77895718,3.00629671 C4.75043217,2.88089977 4.82422518,2.75493807 4.94620131,2.72081768 L6.30067584,2.34193047 C6.39368379,2.31591336 6.49288822,2.35014769 6.55115017,2.42836635 C6.75937002,2.7079086 6.83977563,3.05998959 6.79236702,3.48460931 C6.62421739,4.53584519 5.0975724,5.25 3.40277778,5.25 C1.70798316,5.25 0.181338168,4.53584519 0.0131885349,3.48460931 C-0.0342200779,3.05998959 0.0461855389,2.7079086 0.254405385,2.42836635 C0.312667334,2.35014769 0.411871768,2.31591336 0.504879715,2.34193047 L1.85935425,2.72081768 C1.98133038,2.75493807 2.05512338,2.88089977 2.02659838,3.00629671 L1.90609623,3.53602846 C1.99619402,3.95880811 2.654437,4.29017594 3.40277778,4.29017594 C4.15111855,4.29017594 4.80936154,3.95880811 4.89945933,3.53602846 Z" fill="#FFFFFF" mask="url(#mask-21)" transform="translate(3.402778, 3.791667) rotate(-315.000000) translate(-3.402778, -3.791667) "></path>
                            </g>
                        </g>
                        <g id="call_refuse_default" transform="translate(38.400000, 81.066667)">
                            <g>
                                <g id="椭圆形">
                                    <use fill="black" fill-opacity="1" filter="url(#filter-23)" xlink:href="#path-22"></use>
                                    <use fill="#FA5150" fill-rule="evenodd" xlink:href="#path-22"></use>
                                </g>
                                <g id="路径" transform="translate(7.422074, 7.466667) rotate(-225.000000) translate(-7.422074, -7.466667) translate(3.890543, 3.935135)">
                                    <mask id="mask-25" fill="white">
                                        <use xlink:href="#path-24"></use>
                                    </mask>
                                    <g id="Mask"></g>
                                    <path d="M4.89945933,3.53602846 L4.77895718,3.00629671 C4.75043217,2.88089977 4.82422518,2.75493807 4.94620131,2.72081768 L6.30067584,2.34193047 C6.39368379,2.31591336 6.49288822,2.35014769 6.55115017,2.42836635 C6.75937002,2.7079086 6.83977563,3.05998959 6.79236702,3.48460931 C6.62421739,4.53584519 5.0975724,5.25 3.40277778,5.25 C1.70798316,5.25 0.181338168,4.53584519 0.0131885349,3.48460931 C-0.0342200779,3.05998959 0.0461855389,2.7079086 0.254405385,2.42836635 C0.312667334,2.35014769 0.411871768,2.31591336 0.504879715,2.34193047 L1.85935425,2.72081768 C1.98133038,2.75493807 2.05512338,2.88089977 2.02659838,3.00629671 L1.90609623,3.53602846 C1.99619402,3.95880811 2.654437,4.29017594 3.40277778,4.29017594 C4.15111855,4.29017594 4.80936154,3.95880811 4.89945933,3.53602846 Z" fill="#FFFFFF" mask="url(#mask-25)" transform="translate(3.402778, 3.791667) rotate(-315.000000) translate(-3.402778, -3.791667) "></path>
                                </g>
                            </g>
                        </g>
                    </g>
                </g>
                <path d="M184.5,75 C184.223858,75 184,74.7761424 184,74.5 C184,74.2238576 184.223858,74 184.5,74 C184.776142,74 185,74.2238576 185,74.5 C185,74.7761424 184.776142,75 184.5,75 Z M188.5,75 C188.223858,75 188,74.7761424 188,74.5 C188,74.2238576 188.223858,74 188.5,74 C188.776142,74 189,74.2238576 189,74.5 C189,74.7761424 188.776142,75 188.5,75 Z M192.5,75 C192.223858,75 192,74.7761424 192,74.5 C192,74.2238576 192.223858,74 192.5,74 C192.776142,74 193,74.2238576 193,74.5 C193,74.7761424 192.776142,75 192.5,75 Z M195.5,75 C195.223858,75 195,74.7761424 195,74.5 C195,74.2238576 195.223858,74 195.5,74 C195.776142,74 196,74.2238576 196,74.5 C196,74.7761424 195.776142,75 195.5,75 Z M199.5,75 C199.223858,75 199,74.7761424 199,74.5 C199,74.2238576 199.223858,74 199.5,74 C199.776142,74 200,74.2238576 200,74.5 C200,74.7761424 199.776142,75 199.5,75 Z M203.5,75 C203.223858,75 203,74.7761424 203,74.5 C203,74.2238576 203.223858,74 203.5,74 C203.776142,74 204,74.2238576 204,74.5 C204,74.7761424 203.776142,75 203.5,75 Z M207.5,75 C207.223858,75 207,74.7761424 207,74.5 C207,74.2238576 207.223858,74 207.5,74 C207.776142,74 208,74.2238576 208,74.5 C208,74.7761424 207.776142,75 207.5,75 Z M210.5,75 C210.223858,75 210,74.7761424 210,74.5 C210,74.2238576 210.223858,74 210.5,74 C210.776142,74 211,74.2238576 211,74.5 C211,74.7761424 210.776142,75 210.5,75 Z M214.5,75 C214.223858,75 214,74.7761424 214,74.5 C214,74.2238576 214.223858,74 214.5,74 C214.776142,74 215,74.2238576 215,74.5 C215,74.7761424 214.776142,75 214.5,75 Z M218.5,75 C218.223858,75 218,74.7761424 218,74.5 C218,74.2238576 218.223858,74 218.5,74 C218.776142,74 219,74.2238576 219,74.5 C219,74.7761424 218.776142,75 218.5,75 Z M184.5,80 C184.223858,80 184,79.7761424 184,79.5 C184,79.2238576 184.223858,79 184.5,79 C184.776142,79 185,79.2238576 185,79.5 C185,79.7761424 184.776142,80 184.5,80 Z M188.5,80 C188.223858,80 188,79.7761424 188,79.5 C188,79.2238576 188.223858,79 188.5,79 C188.776142,79 189,79.2238576 189,79.5 C189,79.7761424 188.776142,80 188.5,80 Z M192.5,80 C192.223858,80 192,79.7761424 192,79.5 C192,79.2238576 192.223858,79 192.5,79 C192.776142,79 193,79.2238576 193,79.5 C193,79.7761424 192.776142,80 192.5,80 Z M195.5,80 C195.223858,80 195,79.7761424 195,79.5 C195,79.2238576 195.223858,79 195.5,79 C195.776142,79 196,79.2238576 196,79.5 C196,79.7761424 195.776142,80 195.5,80 Z M199.5,80 C199.223858,80 199,79.7761424 199,79.5 C199,79.2238576 199.223858,79 199.5,79 C199.776142,79 200,79.2238576 200,79.5 C200,79.7761424 199.776142,80 199.5,80 Z M203.5,80 C203.223858,80 203,79.7761424 203,79.5 C203,79.2238576 203.223858,79 203.5,79 C203.776142,79 204,79.2238576 204,79.5 C204,79.7761424 203.776142,80 203.5,80 Z M207.5,80 C207.223858,80 207,79.7761424 207,79.5 C207,79.2238576 207.223858,79 207.5,79 C207.776142,79 208,79.2238576 208,79.5 C208,79.7761424 207.776142,80 207.5,80 Z M210.5,80 C210.223858,80 210,79.7761424 210,79.5 C210,79.2238576 210.223858,79 210.5,79 C210.776142,79 211,79.2238576 211,79.5 C211,79.7761424 210.776142,80 210.5,80 Z M214.5,80 C214.223858,80 214,79.7761424 214,79.5 C214,79.2238576 214.223858,79 214.5,79 C214.776142,79 215,79.2238576 215,79.5 C215,79.7761424 214.776142,80 214.5,80 Z M218.5,80 C218.223858,80 218,79.7761424 218,79.5 C218,79.2238576 218.223858,79 218.5,79 C218.776142,79 219,79.2238576 219,79.5 C219,79.7761424 218.776142,80 218.5,80 Z M184.5,85 C184.223858,85 184,84.7761424 184,84.5 C184,84.2238576 184.223858,84 184.5,84 C184.776142,84 185,84.2238576 185,84.5 C185,84.7761424 184.776142,85 184.5,85 Z M188.5,85 C188.223858,85 188,84.7761424 188,84.5 C188,84.2238576 188.223858,84 188.5,84 C188.776142,84 189,84.2238576 189,84.5 C189,84.7761424 188.776142,85 188.5,85 Z M192.5,85 C192.223858,85 192,84.7761424 192,84.5 C192,84.2238576 192.223858,84 192.5,84 C192.776142,84 193,84.2238576 193,84.5 C193,84.7761424 192.776142,85 192.5,85 Z M195.5,85 C195.223858,85 195,84.7761424 195,84.5 C195,84.2238576 195.223858,84 195.5,84 C195.776142,84 196,84.2238576 196,84.5 C196,84.7761424 195.776142,85 195.5,85 Z M199.5,85 C199.223858,85 199,84.7761424 199,84.5 C199,84.2238576 199.223858,84 199.5,84 C199.776142,84 200,84.2238576 200,84.5 C200,84.7761424 199.776142,85 199.5,85 Z M203.5,85 C203.223858,85 203,84.7761424 203,84.5 C203,84.2238576 203.223858,84 203.5,84 C203.776142,84 204,84.2238576 204,84.5 C204,84.7761424 203.776142,85 203.5,85 Z M207.5,85 C207.223858,85 207,84.7761424 207,84.5 C207,84.2238576 207.223858,84 207.5,84 C207.776142,84 208,84.2238576 208,84.5 C208,84.7761424 207.776142,85 207.5,85 Z M210.5,85 C210.223858,85 210,84.7761424 210,84.5 C210,84.2238576 210.223858,84 210.5,84 C210.776142,84 211,84.2238576 211,84.5 C211,84.7761424 210.776142,85 210.5,85 Z M214.5,85 C214.223858,85 214,84.7761424 214,84.5 C214,84.2238576 214.223858,84 214.5,84 C214.776142,84 215,84.2238576 215,84.5 C215,84.7761424 214.776142,85 214.5,85 Z M218.5,85 C218.223858,85 218,84.7761424 218,84.5 C218,84.2238576 218.223858,84 218.5,84 C218.776142,84 219,84.2238576 219,84.5 C219,84.7761424 218.776142,85 218.5,85 Z M184.5,89 C184.223858,89 184,88.7761424 184,88.5 C184,88.2238576 184.223858,88 184.5,88 C184.776142,88 185,88.2238576 185,88.5 C185,88.7761424 184.776142,89 184.5,89 Z M188.5,89 C188.223858,89 188,88.7761424 188,88.5 C188,88.2238576 188.223858,88 188.5,88 C188.776142,88 189,88.2238576 189,88.5 C189,88.7761424 188.776142,89 188.5,89 Z M192.5,89 C192.223858,89 192,88.7761424 192,88.5 C192,88.2238576 192.223858,88 192.5,88 C192.776142,88 193,88.2238576 193,88.5 C193,88.7761424 192.776142,89 192.5,89 Z M195.5,89 C195.223858,89 195,88.7761424 195,88.5 C195,88.2238576 195.223858,88 195.5,88 C195.776142,88 196,88.2238576 196,88.5 C196,88.7761424 195.776142,89 195.5,89 Z M199.5,89 C199.223858,89 199,88.7761424 199,88.5 C199,88.2238576 199.223858,88 199.5,88 C199.776142,88 200,88.2238576 200,88.5 C200,88.7761424 199.776142,89 199.5,89 Z M184.5,94 C184.223858,94 184,93.7761424 184,93.5 C184,93.2238576 184.223858,93 184.5,93 C184.776142,93 185,93.2238576 185,93.5 C185,93.7761424 184.776142,94 184.5,94 Z M188.5,94 C188.223858,94 188,93.7761424 188,93.5 C188,93.2238576 188.223858,93 188.5,93 C188.776142,93 189,93.2238576 189,93.5 C189,93.7761424 188.776142,94 188.5,94 Z M192.5,94 C192.223858,94 192,93.7761424 192,93.5 C192,93.2238576 192.223858,93 192.5,93 C192.776142,93 193,93.2238576 193,93.5 C193,93.7761424 192.776142,94 192.5,94 Z M195.5,94 C195.223858,94 195,93.7761424 195,93.5 C195,93.2238576 195.223858,93 195.5,93 C195.776142,93 196,93.2238576 196,93.5 C196,93.7761424 195.776142,94 195.5,94 Z M199.5,94 C199.223858,94 199,93.7761424 199,93.5 C199,93.2238576 199.223858,93 199.5,93 C199.776142,93 200,93.2238576 200,93.5 C200,93.7761424 199.776142,94 199.5,94 Z M203.5,89 C203.223858,89 203,88.7761424 203,88.5 C203,88.2238576 203.223858,88 203.5,88 C203.776142,88 204,88.2238576 204,88.5 C204,88.7761424 203.776142,89 203.5,89 Z M207.5,89 C207.223858,89 207,88.7761424 207,88.5 C207,88.2238576 207.223858,88 207.5,88 C207.776142,88 208,88.2238576 208,88.5 C208,88.7761424 207.776142,89 207.5,89 Z M210.5,89 C210.223858,89 210,88.7761424 210,88.5 C210,88.2238576 210.223858,88 210.5,88 C210.776142,88 211,88.2238576 211,88.5 C211,88.7761424 210.776142,89 210.5,89 Z M214.5,89 C214.223858,89 214,88.7761424 214,88.5 C214,88.2238576 214.223858,88 214.5,88 C214.776142,88 215,88.2238576 215,88.5 C215,88.7761424 214.776142,89 214.5,89 Z M218.5,89 C218.223858,89 218,88.7761424 218,88.5 C218,88.2238576 218.223858,88 218.5,88 C218.776142,88 219,88.2238576 219,88.5 C219,88.7761424 218.776142,89 218.5,89 Z M203.5,94 C203.223858,94 203,93.7761424 203,93.5 C203,93.2238576 203.223858,93 203.5,93 C203.776142,93 204,93.2238576 204,93.5 C204,93.7761424 203.776142,94 203.5,94 Z M207.5,94 C207.223858,94 207,93.7761424 207,93.5 C207,93.2238576 207.223858,93 207.5,93 C207.776142,93 208,93.2238576 208,93.5 C208,93.7761424 207.776142,94 207.5,94 Z M210.5,94 C210.223858,94 210,93.7761424 210,93.5 C210,93.2238576 210.223858,93 210.5,93 C210.776142,93 211,93.2238576 211,93.5 C211,93.7761424 210.776142,94 210.5,94 Z M214.5,94 C214.223858,94 214,93.7761424 214,93.5 C214,93.2238576 214.223858,93 214.5,93 C214.776142,93 215,93.2238576 215,93.5 C215,93.7761424 214.776142,94 214.5,94 Z M218.5,94 C218.223858,94 218,93.7761424 218,93.5 C218,93.2238576 218.223858,93 218.5,93 C218.776142,93 219,93.2238576 219,93.5 C219,93.7761424 218.776142,94 218.5,94 Z" id="形状" fill="#FFFFFF" opacity="0.5" mask="url(#mask-3)"></path>
            </g>
            <g id="分组" transform="translate(15.000000, 76.000000)">
                <g id="矩形">
                    <use fill="black" fill-opacity="1" filter="url(#filter-29)" xlink:href="#path-28"></use>
                    <rect stroke="url(#linearGradient-27)" stroke-width="0.5" stroke-linejoin="square" fill="url(#linearGradient-26)" fill-rule="evenodd" x="0.25" y="0.25" width="175.5" height="21.5" rx="10.75"></rect>
                </g>
                <text id="帮助企业实现智能化通信" font-family="PingFangSC-Medium, PingFang SC" font-size="14" font-weight="400" fill="#FFFFFF">
                    <tspan x="11" y="16">帮助企业实现智能化通信</tspan>
                </text>
            </g>
            <path d="M33.4210526,2.40350877 C33.0334844,2.40350877 32.7192982,2.08932263 32.7192982,1.70175439 C32.7192982,1.31418614 33.0334844,1 33.4210526,1 C33.8086209,1 34.122807,1.31418614 34.122807,1.70175439 C34.122807,2.08932263 33.8086209,2.40350877 33.4210526,2.40350877 Z M37.2807018,2.40350877 C36.8931335,2.40350877 36.5789474,2.08932263 36.5789474,1.70175439 C36.5789474,1.31418614 36.8931335,1 37.2807018,1 C37.66827,1 37.9824561,1.31418614 37.9824561,1.70175439 C37.9824561,2.08932263 37.66827,2.40350877 37.2807018,2.40350877 Z M41.1403509,2.40350877 C40.7527826,2.40350877 40.4385965,2.08932263 40.4385965,1.70175439 C40.4385965,1.31418614 40.7527826,1 41.1403509,1 C41.5279191,1 41.8421053,1.31418614 41.8421053,1.70175439 C41.8421053,2.08932263 41.5279191,2.40350877 41.1403509,2.40350877 Z M45,2.40350877 C44.6124318,2.40350877 44.2982456,2.08932263 44.2982456,1.70175439 C44.2982456,1.31418614 44.6124318,1 45,1 C45.3875682,1 45.7017544,1.31418614 45.7017544,1.70175439 C45.7017544,2.08932263 45.3875682,2.40350877 45,2.40350877 Z M48.8596491,2.40350877 C48.4720809,2.40350877 48.1578947,2.08932263 48.1578947,1.70175439 C48.1578947,1.31418614 48.4720809,1 48.8596491,1 C49.2472174,1 49.5614035,1.31418614 49.5614035,1.70175439 C49.5614035,2.08932263 49.2472174,2.40350877 48.8596491,2.40350877 Z M33.4210526,6.96491228 C33.0334844,6.96491228 32.7192982,6.65072614 32.7192982,6.26315789 C32.7192982,5.87558965 33.0334844,5.56140351 33.4210526,5.56140351 C33.8086209,5.56140351 34.122807,5.87558965 34.122807,6.26315789 C34.122807,6.65072614 33.8086209,6.96491228 33.4210526,6.96491228 Z M37.2807018,6.96491228 C36.8931335,6.96491228 36.5789474,6.65072614 36.5789474,6.26315789 C36.5789474,5.87558965 36.8931335,5.56140351 37.2807018,5.56140351 C37.66827,5.56140351 37.9824561,5.87558965 37.9824561,6.26315789 C37.9824561,6.65072614 37.66827,6.96491228 37.2807018,6.96491228 Z M41.1403509,6.96491228 C40.7527826,6.96491228 40.4385965,6.65072614 40.4385965,6.26315789 C40.4385965,5.87558965 40.7527826,5.56140351 41.1403509,5.56140351 C41.5279191,5.56140351 41.8421053,5.87558965 41.8421053,6.26315789 C41.8421053,6.65072614 41.5279191,6.96491228 41.1403509,6.96491228 Z M45,6.96491228 C44.6124318,6.96491228 44.2982456,6.65072614 44.2982456,6.26315789 C44.2982456,5.87558965 44.6124318,5.56140351 45,5.56140351 C45.3875682,5.56140351 45.7017544,5.87558965 45.7017544,6.26315789 C45.7017544,6.65072614 45.3875682,6.96491228 45,6.96491228 Z M48.8596491,6.96491228 C48.4720809,6.96491228 48.1578947,6.65072614 48.1578947,6.26315789 C48.1578947,5.87558965 48.4720809,5.56140351 48.8596491,5.56140351 C49.2472174,5.56140351 49.5614035,5.87558965 49.5614035,6.26315789 C49.5614035,6.65072614 49.2472174,6.96491228 48.8596491,6.96491228 Z M33.4210526,11.877193 C33.0334844,11.877193 32.7192982,11.5630068 32.7192982,11.1754386 C32.7192982,10.7878704 33.0334844,10.4736842 33.4210526,10.4736842 C33.8086209,10.4736842 34.122807,10.7878704 34.122807,11.1754386 C34.122807,11.5630068 33.8086209,11.877193 33.4210526,11.877193 Z M37.2807018,11.877193 C36.8931335,11.877193 36.5789474,11.5630068 36.5789474,11.1754386 C36.5789474,10.7878704 36.8931335,10.4736842 37.2807018,10.4736842 C37.66827,10.4736842 37.9824561,10.7878704 37.9824561,11.1754386 C37.9824561,11.5630068 37.66827,11.877193 37.2807018,11.877193 Z M41.1403509,11.877193 C40.7527826,11.877193 40.4385965,11.5630068 40.4385965,11.1754386 C40.4385965,10.7878704 40.7527826,10.4736842 41.1403509,10.4736842 C41.5279191,10.4736842 41.8421053,10.7878704 41.8421053,11.1754386 C41.8421053,11.5630068 41.5279191,11.877193 41.1403509,11.877193 Z M45,11.877193 C44.6124318,11.877193 44.2982456,11.5630068 44.2982456,11.1754386 C44.2982456,10.7878704 44.6124318,10.4736842 45,10.4736842 C45.3875682,10.4736842 45.7017544,10.7878704 45.7017544,11.1754386 C45.7017544,11.5630068 45.3875682,11.877193 45,11.877193 Z M48.8596491,11.877193 C48.4720809,11.877193 48.1578947,11.5630068 48.1578947,11.1754386 C48.1578947,10.7878704 48.4720809,10.4736842 48.8596491,10.4736842 C49.2472174,10.4736842 49.5614035,10.7878704 49.5614035,11.1754386 C49.5614035,11.5630068 49.2472174,11.877193 48.8596491,11.877193 Z M52.7192982,11.877193 C52.33173,11.877193 52.0175439,11.5630068 52.0175439,11.1754386 C52.0175439,10.7878704 52.33173,10.4736842 52.7192982,10.4736842 C53.1068665,10.4736842 53.4210526,10.7878704 53.4210526,11.1754386 C53.4210526,11.5630068 53.1068665,11.877193 52.7192982,11.877193 Z M56.5789474,11.877193 C56.1913791,11.877193 55.877193,11.5630068 55.877193,11.1754386 C55.877193,10.7878704 56.1913791,10.4736842 56.5789474,10.4736842 C56.9665156,10.4736842 57.2807018,10.7878704 57.2807018,11.1754386 C57.2807018,11.5630068 56.9665156,11.877193 56.5789474,11.877193 Z M60.4385965,11.877193 C60.0510282,11.877193 59.7368421,11.5630068 59.7368421,11.1754386 C59.7368421,10.7878704 60.0510282,10.4736842 60.4385965,10.4736842 C60.8261647,10.4736842 61.1403509,10.7878704 61.1403509,11.1754386 C61.1403509,11.5630068 60.8261647,11.877193 60.4385965,11.877193 Z M64.2982456,11.877193 C63.9106774,11.877193 63.5964912,11.5630068 63.5964912,11.1754386 C63.5964912,10.7878704 63.9106774,10.4736842 64.2982456,10.4736842 C64.6858139,10.4736842 65,10.7878704 65,11.1754386 C65,11.5630068 64.6858139,11.877193 64.2982456,11.877193 Z M68.1578947,11.877193 C67.7703265,11.877193 67.4561404,11.5630068 67.4561404,11.1754386 C67.4561404,10.7878704 67.7703265,10.4736842 68.1578947,10.4736842 C68.545463,10.4736842 68.8596491,10.7878704 68.8596491,11.1754386 C68.8596491,11.5630068 68.545463,11.877193 68.1578947,11.877193 Z M25.7017544,16.4385965 C25.3141861,16.4385965 25,16.1244104 25,15.7368421 C25,15.3492739 25.3141861,15.0350877 25.7017544,15.0350877 C26.0893226,15.0350877 26.4035088,15.3492739 26.4035088,15.7368421 C26.4035088,16.1244104 26.0893226,16.4385965 25.7017544,16.4385965 Z M29.5614035,16.4385965 C29.1738353,16.4385965 28.8596491,16.1244104 28.8596491,15.7368421 C28.8596491,15.3492739 29.1738353,15.0350877 29.5614035,15.0350877 C29.9489718,15.0350877 30.2631579,15.3492739 30.2631579,15.7368421 C30.2631579,16.1244104 29.9489718,16.4385965 29.5614035,16.4385965 Z M33.4210526,16.4385965 C33.0334844,16.4385965 32.7192982,16.1244104 32.7192982,15.7368421 C32.7192982,15.3492739 33.0334844,15.0350877 33.4210526,15.0350877 C33.8086209,15.0350877 34.122807,15.3492739 34.122807,15.7368421 C34.122807,16.1244104 33.8086209,16.4385965 33.4210526,16.4385965 Z M37.2807018,16.4385965 C36.8931335,16.4385965 36.5789474,16.1244104 36.5789474,15.7368421 C36.5789474,15.3492739 36.8931335,15.0350877 37.2807018,15.0350877 C37.66827,15.0350877 37.9824561,15.3492739 37.9824561,15.7368421 C37.9824561,16.1244104 37.66827,16.4385965 37.2807018,16.4385965 Z M41.1403509,16.4385965 C40.7527826,16.4385965 40.4385965,16.1244104 40.4385965,15.7368421 C40.4385965,15.3492739 40.7527826,15.0350877 41.1403509,15.0350877 C41.5279191,15.0350877 41.8421053,15.3492739 41.8421053,15.7368421 C41.8421053,16.1244104 41.5279191,16.4385965 41.1403509,16.4385965 Z M33.0701754,21 C32.6826072,21 32.3684211,20.6858139 32.3684211,20.2982456 C32.3684211,19.9106774 32.6826072,19.5964912 33.0701754,19.5964912 C33.4577437,19.5964912 33.7719298,19.9106774 33.7719298,20.2982456 C33.7719298,20.6858139 33.4577437,21 33.0701754,21 Z M36.9298246,21 C36.5422563,21 36.2280702,20.6858139 36.2280702,20.2982456 C36.2280702,19.9106774 36.5422563,19.5964912 36.9298246,19.5964912 C37.3173928,19.5964912 37.6315789,19.9106774 37.6315789,20.2982456 C37.6315789,20.6858139 37.3173928,21 36.9298246,21 Z M40.7894737,21 C40.4019054,21 40.0877193,20.6858139 40.0877193,20.2982456 C40.0877193,19.9106774 40.4019054,19.5964912 40.7894737,19.5964912 C41.1770419,19.5964912 41.4912281,19.9106774 41.4912281,20.2982456 C41.4912281,20.6858139 41.1770419,21 40.7894737,21 Z M44.6491228,21 C44.2615546,21 43.9473684,20.6858139 43.9473684,20.2982456 C43.9473684,19.9106774 44.2615546,19.5964912 44.6491228,19.5964912 C45.0366911,19.5964912 45.3508772,19.9106774 45.3508772,20.2982456 C45.3508772,20.6858139 45.0366911,21 44.6491228,21 Z M48.5087719,21 C48.1212037,21 47.8070175,20.6858139 47.8070175,20.2982456 C47.8070175,19.9106774 48.1212037,19.5964912 48.5087719,19.5964912 C48.8963402,19.5964912 49.2105263,19.9106774 49.2105263,20.2982456 C49.2105263,20.6858139 48.8963402,21 48.5087719,21 Z M45,16.4385965 C44.6124318,16.4385965 44.2982456,16.1244104 44.2982456,15.7368421 C44.2982456,15.3492739 44.6124318,15.0350877 45,15.0350877 C45.3875682,15.0350877 45.7017544,15.3492739 45.7017544,15.7368421 C45.7017544,16.1244104 45.3875682,16.4385965 45,16.4385965 Z M48.8596491,16.4385965 C48.4720809,16.4385965 48.1578947,16.1244104 48.1578947,15.7368421 C48.1578947,15.3492739 48.4720809,15.0350877 48.8596491,15.0350877 C49.2472174,15.0350877 49.5614035,15.3492739 49.5614035,15.7368421 C49.5614035,16.1244104 49.2472174,16.4385965 48.8596491,16.4385965 Z M52.7192982,16.4385965 C52.33173,16.4385965 52.0175439,16.1244104 52.0175439,15.7368421 C52.0175439,15.3492739 52.33173,15.0350877 52.7192982,15.0350877 C53.1068665,15.0350877 53.4210526,15.3492739 53.4210526,15.7368421 C53.4210526,16.1244104 53.1068665,16.4385965 52.7192982,16.4385965 Z M56.5789474,16.4385965 C56.1913791,16.4385965 55.877193,16.1244104 55.877193,15.7368421 C55.877193,15.3492739 56.1913791,15.0350877 56.5789474,15.0350877 C56.9665156,15.0350877 57.2807018,15.3492739 57.2807018,15.7368421 C57.2807018,16.1244104 56.9665156,16.4385965 56.5789474,16.4385965 Z M60.4385965,16.4385965 C60.0510282,16.4385965 59.7368421,16.1244104 59.7368421,15.7368421 C59.7368421,15.3492739 60.0510282,15.0350877 60.4385965,15.0350877 C60.8261647,15.0350877 61.1403509,15.3492739 61.1403509,15.7368421 C61.1403509,16.1244104 60.8261647,16.4385965 60.4385965,16.4385965 Z M52.3684211,21 C51.9808528,21 51.6666667,20.6858139 51.6666667,20.2982456 C51.6666667,19.9106774 51.9808528,19.5964912 52.3684211,19.5964912 C52.7559893,19.5964912 53.0701754,19.9106774 53.0701754,20.2982456 C53.0701754,20.6858139 52.7559893,21 52.3684211,21 Z M56.2280702,21 C55.8405019,21 55.5263158,20.6858139 55.5263158,20.2982456 C55.5263158,19.9106774 55.8405019,19.5964912 56.2280702,19.5964912 C56.6156384,19.5964912 56.9298246,19.9106774 56.9298246,20.2982456 C56.9298246,20.6858139 56.6156384,21 56.2280702,21 Z M60.0877193,21 C59.7001511,21 59.3859649,20.6858139 59.3859649,20.2982456 C59.3859649,19.9106774 59.7001511,19.5964912 60.0877193,19.5964912 C60.4752875,19.5964912 60.7894737,19.9106774 60.7894737,20.2982456 C60.7894737,20.6858139 60.4752875,21 60.0877193,21 Z M63.9473684,21 C63.5598002,21 63.245614,20.6858139 63.245614,20.2982456 C63.245614,19.9106774 63.5598002,19.5964912 63.9473684,19.5964912 C64.3349367,19.5964912 64.6491228,19.9106774 64.6491228,20.2982456 C64.6491228,20.6858139 64.3349367,21 63.9473684,21 Z M67.8070175,21 C67.4194493,21 67.1052632,20.6858139 67.1052632,20.2982456 C67.1052632,19.9106774 67.4194493,19.5964912 67.8070175,19.5964912 C68.1945858,19.5964912 68.5087719,19.9106774 68.5087719,20.2982456 C68.5087719,20.6858139 68.1945858,21 67.8070175,21 Z" id="合并形状" fill="url(#linearGradient-30)"></path>
            <text id="微话-联络中心" font-family="PingFang-SC-Heavy, PingFang SC" font-size="26" font-weight="600" line-spacing="34" fill="#FFFFFF">
                <tspan x="15" y="59">微话-联络中心</tspan>
            </text>
            <g id="workbench_icon_recording" transform="translate(201.000000, 86.000000)">
                <g id="矩形">
                    <use fill="black" fill-opacity="1" filter="url(#filter-33)" xlink:href="#path-32"></use>
                    <rect stroke-opacity="0.103374094" stroke="#FFFFFF" stroke-width="0.5" stroke-linejoin="square" fill="url(#linearGradient-31)" fill-rule="evenodd" x="0.25" y="0.25" width="23.5" height="23.5" rx="11.75"></rect>
                </g>
                <g id="分组-3" transform="translate(4.800000, 4.800000)">
                    <rect id="矩形" x="0" y="0" width="14.4" height="14.4"></rect>
                    <g id="分组-2" transform="translate(1.800000, 0.000000)" fill="#FFFFFF">
                        <path d="M5.99911548,12.5671404 C5.99970263,12.5780191 6,12.5889748 6,12.6 L6,13.8 C6,14.1313708 5.73137085,14.4 5.4,14.4 C5.06862915,14.4 4.8,14.1313708 4.8,13.8 L4.8,12.6 C4.8,12.5889748 4.80029737,12.5780191 4.80088452,12.5671404 C2.10048839,12.2690761 0,9.97983571 0,7.2 C0,6.86862915 0.26862915,6.6 0.6,6.6 C0.93137085,6.6 1.2,6.86862915 1.2,7.2 C1.2,9.51959595 3.08040405,11.4 5.4,11.4 C7.71959595,11.4 9.6,9.51959595 9.6,7.2 C9.6,6.86862915 9.86862915,6.6 10.2,6.6 C10.5313708,6.6 10.8,6.86862915 10.8,7.2 C10.8,9.97983571 8.69951161,12.2690761 5.99911548,12.5671404 Z M2.4,5.4 L2.4,4.2 L3.6,4.2 C3.93137085,4.2 4.2,3.93137085 4.2,3.6 C4.2,3.26862915 3.93137085,3 3.6,3 L2.4,3 C2.4,1.34314575 3.74314575,3.04359188e-16 5.4,0 C7.05685425,-3.04359188e-16 8.4,1.34314575 8.4,3 L8.4,7.2 C8.4,8.85685425 7.05685425,10.2 5.4,10.2 C3.74314575,10.2 2.4,8.85685425 2.4,7.2 L2.4,6.6 L3.6,6.6 C3.93137085,6.6 4.2,6.33137085 4.2,6 C4.2,5.66862915 3.93137085,5.4 3.6,5.4 L2.4,5.4 Z" id="合并形状"></path>
                    </g>
                </g>
            </g>
            <g id="workbench_icon_recording-copy" transform="translate(304.000000, 22.000000)">
                <g id="矩形">
                    <use fill="black" fill-opacity="1" filter="url(#filter-35)" xlink:href="#path-34"></use>
                    <rect stroke-opacity="0.103374094" stroke="#FFFFFF" stroke-width="0.5" stroke-linejoin="square" fill="url(#linearGradient-31)" fill-rule="evenodd" x="0.25" y="0.25" width="29.5" height="29.5" rx="14.75"></rect>
                </g>
                <path d="M17.6915153,17.0942978 L18.3735994,16.0105193 C18.5350609,15.7539697 18.8680024,15.6670174 19.1281765,15.8134511 L22.0172601,17.4395129 C22.2156453,17.55117 22.3239344,17.7735793 22.2906715,18.0010586 C22.1717948,18.8140369 21.7189794,19.5348847 20.9322253,20.1636019 C18.8998125,21.6354874 15.1649556,20.281268 12.3401538,17.4564662 C9.51535196,14.6316644 8.16113257,10.8968076 9.63301807,8.86439468 C10.2617353,8.07764064 10.9825831,7.62482525 11.7955614,7.50594851 C12.0230407,7.47268564 12.24545,7.58097466 12.3571071,7.77935989 L13.9831689,10.6684435 C14.1296026,10.9286176 14.0426504,11.2615591 13.7861007,11.4230206 L12.7023222,12.1051047 C12.1478242,12.9599441 12.6926439,14.6093796 13.9399422,15.8566778 C15.1872404,17.1039761 16.8366759,17.6487958 17.6915153,17.0942978 Z M14.25,20.3382867 L14.625,20.3382867 C15.0392136,20.3382867 15.375,20.6740731 15.375,21.0882867 C15.375,21.5025002 15.0392136,21.8382867 14.625,21.8382867 L14.25,21.8382867 C13.8357864,21.8382867 13.5,21.5025002 13.5,21.0882867 C13.5,20.6740731 13.8357864,20.3382867 14.25,20.3382867 Z M11.25,20.3382867 L11.625,20.3382867 C12.0392136,20.3382867 12.375,20.6740731 12.375,21.0882867 C12.375,21.5025002 12.0392136,21.8382867 11.625,21.8382867 L11.25,21.8382867 C10.8357864,21.8382867 10.5,21.5025002 10.5,21.0882867 C10.5,20.6740731 10.8357864,20.3382867 11.25,20.3382867 Z M8.25,20.3382867 L8.625,20.3382867 C9.03921356,20.3382867 9.375,20.6740731 9.375,21.0882867 C9.375,21.5025002 9.03921356,21.8382867 8.625,21.8382867 L8.25,21.8382867 C7.83578644,21.8382867 7.5,21.5025002 7.5,21.0882867 C7.5,20.6740731 7.83578644,20.3382867 8.25,20.3382867 Z" id="合并形状" fill="#FFFFFF"></path>
            </g>
            <g id="workbench_icon_recording-copy-2" transform="translate(198.000000, 16.000000)">
                <g id="矩形">
                    <use fill="black" fill-opacity="1" filter="url(#filter-38)" xlink:href="#path-37"></use>
                    <rect stroke-opacity="0.103374094" stroke="#FFFFFF" stroke-width="0.2" stroke-linejoin="square" fill="url(#linearGradient-36)" fill-rule="evenodd" x="0.1" y="0.1" width="15.8" height="15.8" rx="7.9"></rect>
                </g>
                <path d="M7.8234358,11.996173 L7.83169055,12 L5.18018096,12 L5.53130142,11.147523 C4.59892059,10.4152076 4,9.27754652 4,8 C4,5.790861 5.790861,4 8,4 C10.209139,4 12,5.790861 12,8 C12,10.209139 10.209139,12 8,12 C7.94083647,12 7.88197295,11.9987155 7.8234358,11.996173 Z M6.18181818,8.36363636 C5.98098736,8.36363636 5.81818182,8.52644191 5.81818182,8.72727273 C5.81818182,8.92810355 5.98098736,9.09090909 6.18181818,9.09090909 L8.36363636,9.09090909 C8.56446718,9.09090909 8.72727273,8.92810355 8.72727273,8.72727273 C8.72727273,8.52644191 8.56446718,8.36363636 8.36363636,8.36363636 L6.18181818,8.36363636 Z M6.18181818,6.90909091 C5.98098736,6.90909091 5.81818182,7.07189645 5.81818182,7.27272727 C5.81818182,7.47355809 5.98098736,7.63636364 6.18181818,7.63636364 L9.81818182,7.63636364 C10.0190126,7.63636364 10.1818182,7.47355809 10.1818182,7.27272727 C10.1818182,7.07189645 10.0190126,6.90909091 9.81818182,6.90909091 L6.18181818,6.90909091 Z" id="合并形状" fill="#FFFFFF"></path>
            </g>
            <path d="" id="路径-7" stroke="#979797"></path>
            <path d="M237.496895,111.579882 Z" id="路径-8" stroke="#979797"></path>
        </g>
    </g>
</svg>