<?xml version="1.0" encoding="UTF-8"?>
<svg width="18px" height="18px" viewBox="0 0 18 18" version="1.1" xmlns="http://www.w3.org/2000/svg" xmlns:xlink="http://www.w3.org/1999/xlink">
    <!-- Generator: Sketch 59.1 (86144) - https://sketch.com -->
    <title>切片</title>
    <desc>Created with Sketch.</desc>
    <g id="云通知" stroke="none" stroke-width="1" fill="none" fill-rule="evenodd">
        <g id="个人号_更改" transform="translate(-10.000000, -427.000000)">
            <g id="编组-2" transform="translate(10.000000, 426.000000)">
                <g id="编组-3">
                    <g id="-icon_tip_blue" transform="translate(0.000000, 1.000000)">
                        <g id="提示">
                            <g>
                                <circle id="椭圆形" fill="#0F88FF" cx="9" cy="9" r="9"></circle>
                                <g id="分组-3" transform="translate(9.000000, 9.450000) scale(-1, -1) translate(-9.000000, -9.450000) translate(8.100000, 4.500000)" fill="#FFFFFF">
                                    <path d="M0,8.4 L0,3.9 C-6.08718376e-17,3.40294373 0.402943725,3 0.9,3 C1.39705627,3 1.8,3.40294373 1.8,3.9 L1.8,8.4 C1.8,8.89705627 1.39705627,9.3 0.9,9.3 C0.402943725,9.3 -2.74809623e-16,8.89705627 0,8.4 Z" id="路径"></path>
                                    <path d="M0.905142857,1.8 C0.380571429,1.8 0,1.4175 0,0.9 C0,0.36 0.380571429,0 0.905142857,0 C1.41942857,0 1.8,0.36 1.8,0.9 C1.8,1.4175 1.41942857,1.8 0.905142857,1.8 Z" id="路径"></path>
                                </g>
                            </g>
                        </g>
                    </g>
                </g>
            </g>
        </g>
    </g>
</svg>