<?xml version="1.0" encoding="UTF-8"?>
<svg width="18px" height="18px" viewBox="0 0 18 18" version="1.1" xmlns="http://www.w3.org/2000/svg" xmlns:xlink="http://www.w3.org/1999/xlink">
    <!-- Generator: Sketch 59.1 (86144) - https://sketch.com -->
    <title>切片</title>
    <desc>Created with Sketch.</desc>
    <g id="云通知" stroke="none" stroke-width="1" fill="none" fill-rule="evenodd">
        <g id="个人号_发送通知_添加" transform="translate(-25.000000, -222.000000)" fill-rule="nonzero" stroke="#CCCCCC" stroke-width="1.5">
            <g id="分组-3" transform="translate(10.000000, 103.000000)">
                <g id="编组-6" transform="translate(0.000000, 99.000000)">
                    <g id="icon_unselect" transform="translate(15.000000, 20.000000)">
                        <g id="路径">
                            <path d="M0.749999419,1.86218995 L0.749999585,1.86268966 L0.749999419,16.13781 C0.749802846,16.4328417 0.86691656,16.7158461 1.07553525,16.9244648 C1.2841539,17.1330834 1.56715782,17.2501968 1.86268966,17.2499996 L16.1378113,17.2499998 C16.4328422,17.2501968 16.7158461,17.1330834 16.9244648,16.9244648 C17.1330834,16.7158461 17.2501968,16.4328422 17.2499996,16.1373103 L17.2499998,1.86218869 C17.2501968,1.56715782 17.1330834,1.2841539 16.9244648,1.07553525 C16.7158461,0.86691656 16.4328417,0.749802846 16.1373103,0.749999585 L1.86218995,0.749999419 C1.56715826,0.749802846 1.28415394,0.86691656 1.07553525,1.07553525 C0.86691656,1.28415394 0.749802846,1.56715826 0.749999419,1.86218995 Z"></path>
                        </g>
                    </g>
                </g>
            </g>
        </g>
    </g>
</svg>