<?xml version="1.0" encoding="UTF-8"?>
<svg width="22px" height="22px" viewBox="0 0 22 22" version="1.1" xmlns="http://www.w3.org/2000/svg" xmlns:xlink="http://www.w3.org/1999/xlink">
    <!-- Generator: Sketch 59.1 (86144) - https://sketch.com -->
    <title>切片</title>
    <desc>Created with Sketch.</desc>
    <g id="2-11_优化" stroke="none" stroke-width="1" fill="none" fill-rule="evenodd">
        <g id="改版_拨号" transform="translate(-57.000000, -651.000000)" fill="#999999">
            <g id="分组-5" transform="translate(0.000000, 236.000000)">
                <g id="编组-6" transform="translate(37.000000, 415.000000)">
                    <g id="icon_change" transform="translate(20.000000, 0.000000)">
                        <g id="编组-3">
                            <g transform="translate(1.000000, 0.000000)">
                                <g id="转换" fill-rule="nonzero">
                                    <path d="M0.773893235,12.1416659 C1.1991063,12.1404093 1.54315876,11.7913018 1.54315698,11.3610864 L1.54315698,5.84974636 C1.54315698,4.89547012 2.32802898,4.20288667 3.40722798,4.20288669 L16.5739017,4.20288669 L15.2672682,5.51811846 C15.1218343,5.66349361 15.0399817,5.86172943 15.0399817,6.06857567 C15.0399817,6.27542191 15.1218343,6.47365773 15.2672682,6.61903288 C15.5715769,6.9135302 16.0510775,6.9135302 16.3553862,6.61903288 L18.5227032,4.44201973 C18.7925979,4.17206191 18.9444844,3.8040484 18.9444844,3.42006434 C18.9444844,3.03608028 18.7925979,2.66806677 18.5227032,2.39810895 L16.3509267,0.225607745 C16.2054318,0.0803530778 16.0090383,-0.000750215788 15.804638,5.23055814e-06 C15.4936672,0.00173773262 15.214311,0.192725723 15.0967175,0.483995773 C14.979124,0.775265822 15.0464259,1.10952013 15.2672682,1.33103412 L16.5739017,2.64626587 L3.41837672,2.64626587 C2.55159794,2.63116899 1.7090408,2.93590744 1.04815248,3.5035353 C0.376445719,4.09286379 -0.00651490962,4.9502316 8.38949418e-05,5.84974636 L8.38949418e-05,11.3610864 C-0.000428212159,11.568682 0.0809684903,11.7679167 0.226264335,11.9144976 C0.371560179,12.0610785 0.568713203,12.1428571 0.773893235,12.1416659 Z M18.2396553,9.85818006 C18.0350425,9.85818006 17.8388101,9.94041806 17.694127,10.0868026 C17.5494439,10.2331872 17.4681617,10.4317273 17.4681617,10.6387464 L17.4681617,15.7101719 C17.4681617,16.8201102 16.5963295,17.7969461 15.6040908,17.7969461 L2.41288978,17.7969461 L3.71952329,16.4817143 C3.94008845,16.2604909 4.00753617,15.9267767 3.89051154,15.635708 C3.77348691,15.3446392 3.49494884,15.1533202 3.18438327,15.1506908 C2.97878116,15.1470295 2.78062845,15.2285266 2.63586479,15.376288 L0.468547792,17.5533011 C0.198653066,17.8232589 0.0467666254,18.1912724 0.0467666254,18.5752565 C0.0467666254,18.9592406 0.198653066,19.3272541 0.468547792,19.5972119 L2.63586479,21.774225 C2.83103496,21.9700785 3.11465171,22.045708 3.37987935,21.9726247 C3.64510699,21.8995413 3.85165114,21.6888482 3.9217086,21.4199115 C3.99176607,21.1509747 3.91469347,20.8646521 3.71952329,20.6687987 L2.41288978,19.3535669 L15.6040908,19.3535669 C16.5398634,19.3435065 17.4264322,18.927866 18.0389778,18.212045 C18.650067,17.524512 18.9918323,16.6347789 19,15.7101719 L19,10.6387464 C19,10.2120184 18.6613792,9.86434665 18.2396553,9.85818006 L18.2396553,9.85818006 Z" id="形状"></path>
                                </g>
                                <g id="编组-4" transform="translate(5.000000, 6.000000)">
                                    <rect id="矩形" x="4" y="0" width="2" height="10" rx="1"></rect>
                                    <rect id="矩形" x="8" y="4" width="2" height="6" rx="1"></rect>
                                    <rect id="矩形" x="0" y="2" width="2" height="8" rx="1"></rect>
                                </g>
                            </g>
                        </g>
                    </g>
                </g>
            </g>
        </g>
    </g>
</svg>