<?xml version="1.0" encoding="UTF-8"?>
<svg width="26px" height="26px" viewBox="0 0 26 26" version="1.1" xmlns="http://www.w3.org/2000/svg" xmlns:xlink="http://www.w3.org/1999/xlink">
    <!-- Generator: Sketch 52.2 (67145) - http://www.bohemiancoding.com/sketch -->
    <title>icon_支付宝</title>
    <desc>Created with Sketch.</desc>
    <g id="icon_支付宝" stroke="none" stroke-width="1" fill="none" fill-rule="evenodd">
        <g>
            <rect id="矩形" x="0" y="0" width="26" height="26"></rect>
            <path d="M24.0463814,17.6901553 C24.6784895,16.2062288 25.0025959,14.6124475 24.9999843,12.9999163 C24.9999843,6.38395454 19.6160333,1 12.9999085,1 C6.38395103,1 1,6.38395454 1,12.9999163 C1,19.6160455 6.38395103,25 12.9999085,25 C16.9937173,25 20.5348149,23.039188 22.7178462,20.0285449 C20.6552834,19.0026535 17.2562167,17.3151893 15.1616116,16.294655 C14.1625065,17.4330463 12.6865497,18.5767947 11.0178031,19.0723632 C9.97058431,19.3829766 9.02498357,19.5035791 8.03659274,19.299941 C7.05894965,19.0990484 6.33841541,18.6410133 5.91781359,18.1829783 C5.7035618,17.9499094 5.45716721,17.6500103 5.28034838,17.2963724 C5.29641977,17.3418745 5.30716752,17.3686937 5.30716752,17.3686937 C5.30716752,17.3686937 5.2054155,17.1920087 5.1277036,16.9106586 C5.08742467,16.7713731 5.06073945,16.629476 5.05002519,16.4847998 C5.04192253,16.3830477 5.03931093,16.2811617 5.04466806,16.1794096 C5.03392031,15.9892648 5.04727966,15.8016981 5.08481306,15.6142653 C5.18395349,15.1401588 5.38484593,14.5883739 5.90984486,14.0740889 C7.05894965,12.949057 8.59912507,12.8874499 9.39733772,12.8928071 C10.5784849,12.9009097 12.6330454,13.4178063 14.3606534,14.0285867 C14.8401168,13.0080524 15.1481518,11.9177749 15.3436537,11.1892715 L8.15444964,11.1892715 L8.15444964,10.4125204 L11.8481921,10.4125204 L11.8481921,8.85888413 L7.37766551,8.85888413 L7.37766551,8.08213298 L11.8481921,8.08213298 L11.8481921,6.5285972 C11.8481921,6.31424482 11.8910826,6.1401714 12.2366511,6.1401714 L13.9856877,6.1401714 L13.9856877,8.08213298 L18.8446398,8.08213298 L18.8446398,8.85888413 L13.9856877,8.85888413 L13.9856877,10.4125204 L17.8723538,10.4125204 C17.8723538,10.4125204 17.4811493,12.5874169 16.2624688,14.7330166 C18.9678538,15.7026915 22.7794197,17.1920087 24.0463814,17.6901553 Z M8.27043973,13.7555548 C7.3015956,13.7978337 6.60646079,14.0037627 6.10026444,14.2802154 C5.81016881,14.5199957 5.50095014,14.8697225 5.41060314,15.3154671 C5.28741512,15.9248266 5.38586975,16.6865524 5.95514821,17.284487 C6.64480951,18.0095405 7.69582461,18.2069362 8.14735435,18.2408228 C9.37889239,18.333914 10.6897962,17.7048784 11.6777292,16.9854315 C12.0663479,16.703337 12.7286075,16.1363975 13.3636364,15.2647606 C11.9431256,14.5114624 10.1697109,13.6737121 8.27043973,13.7555548 Z" id="Fill-1" fill="#19A0E5"></path>
        </g>
    </g>
</svg>