<?xml version="1.0" encoding="UTF-8"?>
<svg width="20px" height="20px" viewBox="0 0 20 20" version="1.1" xmlns="http://www.w3.org/2000/svg" xmlns:xlink="http://www.w3.org/1999/xlink">
    <!-- Generator: Sketch 59.1 (86144) - https://sketch.com -->
    <title>切片</title>
    <desc>Created with Sketch.</desc>
    <g id="深色模式" stroke="none" stroke-width="1" fill="none" fill-rule="evenodd">
        <g id="个人号_云通知备" transform="translate(-30.000000, -522.000000)">
            <g id="编组-2" transform="translate(15.000000, 142.000000)">
                <g id="分组-copy-3" transform="translate(0.000000, 356.000000)">
                    <g id="icon_black_数据统计" transform="translate(15.000000, 24.000000)">
                        <g>
                            <rect id="矩形" fill="#000000" fill-rule="nonzero" opacity="0" x="0" y="0" width="20" height="20"></rect>
                            <g id="编组" transform="translate(0.235251, 0.235294)">
                                <path d="M8.57180761,2.35279685 C8.82426456,2.3485225 9.06790965,2.44572776 9.24799293,2.62271378 C9.4280762,2.7996998 9.52949332,3.04162202 9.52945466,3.29411764 L9.52945466,10 L16.235337,10 C16.7097684,9.99983715 17.1101508,10.352819 17.1694547,10.8235294 L17.1765135,10.9411765 C17.1765135,15.6465099 13.3900512,19.4756543 8.68501629,19.5286553 C3.97998134,19.5816563 0.108338183,15.8387772 0.00222699257,11.1346403 C-0.103884197,6.43050349 3.59505071,2.51685491 8.29768995,2.35764705 L8.57180761,2.35279685 Z" id="路径" fill-opacity="0.87" fill="#FFFFFF" fill-rule="nonzero"></path>
                                <path d="M7.64710173,4.30117646 L7.56945466,4.31294117 C4.11674633,4.85879072 1.66191974,7.9645229 1.92823195,11.4499532 C2.19454417,14.9353835 5.09272058,17.6321073 8.58827819,17.6470588 C11.9471017,17.6470588 14.7294547,15.1764706 15.2176899,11.9541176 L15.2271017,11.8823529 L8.58827819,11.8823529 C8.11384677,11.8825158 7.71346445,11.5295339 7.65416054,11.0588235 L7.64710173,10.9411765 L7.64710173,4.30117646 Z" id="路径" fill="#1A1A1A" fill-rule="nonzero"></path>
                                <path d="M11.5294547,1.32338585e-13 C15.835337,1.32338585e-13 19.3647488,3.40941176 19.5247488,7.71764705 L19.5294547,7.98235293 C19.5341929,8.23501188 19.4371292,8.47896247 19.2601082,8.65930261 C19.0830872,8.83964274 18.8409816,8.94117648 18.5882782,8.94117648 L11.5294547,8.94117648 C11.0096572,8.94117648 10.5882782,8.51979741 10.5882782,8 L10.5882782,0.941176465 C10.5882782,0.421379056 11.0096572,1.32338585e-13 11.5294547,1.32338585e-13 L11.5294547,1.32338585e-13 Z" id="路径" fill-opacity="0.87" fill="#FFFFFF" fill-rule="nonzero"></path>
                                <path d="M12.4694547,1.95411764 L12.4694547,7.05882354 L17.5741605,7.05882354 L17.5176899,6.74117646 C16.9983117,4.28012799 15.0270849,2.38681705 12.5471017,1.96705883 L12.4706311,1.95294117 L12.4694547,1.95411764 Z" id="路径" fill="#1A1A1A" fill-rule="nonzero"></path>
                                <rect id="矩形" fill="#0F88FF" transform="translate(5.764749, 10.764706) rotate(90.000000) translate(-5.764749, -10.764706) " x="2.76474878" y="9.76470588" width="6" height="2"></rect>
                            </g>
                        </g>
                    </g>
                </g>
            </g>
        </g>
    </g>
</svg>