<?xml version="1.0" encoding="UTF-8"?>
<svg width="325px" height="151px" viewBox="0 0 325 151" version="1.1" xmlns="http://www.w3.org/2000/svg" xmlns:xlink="http://www.w3.org/1999/xlink">
    <!-- Generator: Sketch 52.2 (67145) - http://www.bohemiancoding.com/sketch -->
    <title>pic_未选中</title>
    <desc>Created with Sketch.</desc>
    <g id="pic_未选中" stroke="none" stroke-width="1" fill="none" fill-rule="evenodd">
        <path d="M325,116 L325,145 C325,148.313708 322.313708,151 319,151 L6,151 C2.6862915,151 -8.4859316e-14,148.313708 -8.52651283e-14,145 L-8.52651283e-14,116 C2.76142375,116 5,113.761424 5,111 C5,108.238576 2.76142375,106 -8.52651283e-14,106 L-8.52651283e-14,6 C-8.56709405e-14,2.6862915 2.6862915,-4.82560342e-13 6,-4.8316906e-13 L319,-4.8316906e-13 C322.313708,-4.83777779e-13 325,2.6862915 325,6 L325,106 C322.238576,106 320,108.238576 320,111 C320,113.761424 322.238576,116 325,116 Z" fill="#1A1A1A"></path>
    </g>
</svg>