<?xml version="1.0" encoding="UTF-8"?>
<svg width="20px" height="20px" viewBox="0 0 20 20" version="1.1" xmlns="http://www.w3.org/2000/svg" xmlns:xlink="http://www.w3.org/1999/xlink">
    <!-- Generator: Sketch 52.2 (67145) - http://www.bohemiancoding.com/sketch -->
    <title>icon_delete</title>
    <desc>Created with Sketch.</desc>
    <g id="icon_delete" stroke="none" stroke-width="1" fill="none" fill-rule="evenodd">
        <g>
            <rect id="矩形" x="0" y="0" width="20" height="20"></rect>
            <path d="M9.87652416,8.81586399 L14.4727182,4.21966991 C14.7656115,3.9267767 15.2404852,3.9267767 15.5333784,4.21966991 C15.8262716,4.51256313 15.8262716,4.98743687 15.5333784,5.28033009 L10.9371843,9.87652416 L15.5333784,14.4727182 C15.8262716,14.7656115 15.8262716,15.2404852 15.5333784,15.5333784 C15.2404852,15.8262716 14.7656115,15.8262716 14.4727182,15.5333784 L9.87652416,10.9371843 L5.28033009,15.5333784 C4.98743687,15.8262716 4.51256313,15.8262716 4.21966991,15.5333784 C3.9267767,15.2404852 3.9267767,14.7656115 4.21966991,14.4727182 L8.81586399,9.87652416 L4.21966991,5.28033009 C3.9267767,4.98743687 3.9267767,4.51256313 4.21966991,4.21966991 C4.51256313,3.9267767 4.98743687,3.9267767 5.28033009,4.21966991 L9.87652416,8.81586399 Z" id="合并形状" fill="#666666"></path>
        </g>
    </g>
</svg>