<?xml version="1.0" encoding="UTF-8"?>
<svg width="18px" height="18px" viewBox="0 0 18 18" version="1.1" xmlns="http://www.w3.org/2000/svg" xmlns:xlink="http://www.w3.org/1999/xlink">
    <!-- Generator: Sketch 59.1 (86144) - https://sketch.com -->
    <title>切片</title>
    <desc>Created with Sketch.</desc>
    <g id="云通知" stroke="none" stroke-width="1" fill="none" fill-rule="evenodd">
        <g id="个人号_发送通知_添加" transform="translate(-25.000000, -164.000000)">
            <g id="分组-3" transform="translate(10.000000, 103.000000)">
                <g id="编组-6" transform="translate(0.000000, 41.000000)">
                    <g id="icon_select" transform="translate(15.000000, 20.000000)">
                        <g id="路径">
                            <path d="M0,1.86269007 C-0.000329217831,1.36857308 0.195812023,0.894599131 0.545205577,0.545205577 C0.894599131,0.195812023 1.36857308,-0.000329217831 1.86269007,0 L16.1373108,0 C16.6314277,-0.000329217831 17.1054017,0.195812023 17.4547953,0.545205577 C17.8041888,0.894599131 18.00033,1.36857308 18,1.86269007 L18,16.1373108 C18.00033,16.6314277 17.8041888,17.1054017 17.4547953,17.4547953 C17.1054017,17.8041888 16.6314277,18.00033 16.1373108,18 L1.86269007,18 C1.36857308,18.00033 0.894599131,17.8041888 0.545205577,17.4547953 C0.195812023,17.1054017 -0.000329217831,16.6314277 0,16.1373108 L0,1.86269007 Z" fill="#0F88FF" fill-rule="nonzero"></path>
                            <polyline stroke="#FFFFFF" stroke-width="2" points="4 9.4448702 7.24067709 12.6666667 13.3333333 6"></polyline>
                        </g>
                    </g>
                </g>
            </g>
        </g>
    </g>
</svg>