<?xml version="1.0" encoding="UTF-8"?>
<svg width="345px" height="58px" viewBox="0 0 345 58" version="1.1" xmlns="http://www.w3.org/2000/svg" xmlns:xlink="http://www.w3.org/1999/xlink">
    <title>切片</title>
    <defs>
        <linearGradient x1="50%" y1="0%" x2="50%" y2="100%" id="linearGradient-1">
            <stop stop-color="#FF8786" offset="0%"></stop>
            <stop stop-color="#FF4F4E" offset="100%"></stop>
        </linearGradient>
        <linearGradient x1="50%" y1="36.8738646%" x2="78.1358507%" y2="81.4543338%" id="linearGradient-2">
            <stop stop-color="#CF60F4" stop-opacity="0" offset="0%"></stop>
            <stop stop-color="#CF60F4" offset="100%"></stop>
        </linearGradient>
        <linearGradient x1="65.0632748%" y1="4.14416151%" x2="27.1629649%" y2="105.822163%" id="linearGradient-3">
            <stop stop-color="#EEAF92" offset="0%"></stop>
            <stop stop-color="#FB8A5C" offset="100%"></stop>
        </linearGradient>
        <linearGradient x1="65.0632748%" y1="5.72527776%" x2="37.2901601%" y2="84.5467723%" id="linearGradient-4">
            <stop stop-color="#FEECE8" offset="0%"></stop>
            <stop stop-color="#FDD4B4" offset="100%"></stop>
        </linearGradient>
        <linearGradient x1="69.0489477%" y1="26.5818756%" x2="37.2901601%" y2="80.5046526%" id="linearGradient-5">
            <stop stop-color="#FF5150" offset="0%"></stop>
            <stop stop-color="#FB7956" offset="100%"></stop>
        </linearGradient>
        <linearGradient x1="100%" y1="0%" x2="35.1453993%" y2="100%" id="linearGradient-6">
            <stop stop-color="#F7DDA2" offset="0%"></stop>
            <stop stop-color="#FB8956" offset="100%"></stop>
        </linearGradient>
        <linearGradient x1="72.9600694%" y1="0%" x2="72.9600694%" y2="100%" id="linearGradient-7">
            <stop stop-color="#F7DDA2" offset="0%"></stop>
            <stop stop-color="#FB8956" offset="100%"></stop>
        </linearGradient>
        <linearGradient x1="92.6920573%" y1="76.296658%" x2="50%" y2="0%" id="linearGradient-8">
            <stop stop-color="#EBA37D" offset="0%"></stop>
            <stop stop-color="#F7B987" offset="49.0100406%"></stop>
            <stop stop-color="#F0B292" offset="100%"></stop>
        </linearGradient>
        <linearGradient x1="72.9600694%" y1="28.6691487%" x2="35.1453993%" y2="100%" id="linearGradient-9">
            <stop stop-color="#F7DDA2" offset="0%"></stop>
            <stop stop-color="#FB8956" offset="100%"></stop>
        </linearGradient>
        <filter x="-7.9%" y="-7.9%" width="115.8%" height="115.8%" filterUnits="objectBoundingBox" id="filter-10">
            <feGaussianBlur stdDeviation="1" in="SourceGraphic"></feGaussianBlur>
        </filter>
        <linearGradient x1="9.11649816%" y1="50%" x2="73.8913143%" y2="91.0788143%" id="linearGradient-11">
            <stop stop-color="#FA7505" offset="0%"></stop>
            <stop stop-color="#F97F01" offset="100%"></stop>
        </linearGradient>
        <linearGradient x1="60.3056066%" y1="0%" x2="33.1227022%" y2="86.7647059%" id="linearGradient-12">
            <stop stop-color="#FDD91F" offset="0%"></stop>
            <stop stop-color="#FDC003" offset="100%"></stop>
        </linearGradient>
    </defs>
    <g id="联络中心号码续费" stroke="none" stroke-width="1" fill="none" fill-rule="evenodd">
        <g id="微话_设置" transform="translate(-14.000000, -645.000000)">
            <g id="button_续费" transform="translate(14.000000, 645.000000)">
                <rect id="矩形-copy-3" fill="url(#linearGradient-1)" x="0" y="8" width="345" height="45" rx="22.5"></rect>
                <g id="编组-9">
                    <g id="编组-7" transform="translate(0.000000, 9.240678)">
                        <polygon id="路径-2" fill="url(#linearGradient-2)" points="35.1219512 45.6135593 0 26.3457627 28.097561 10.6169492"></polygon>
                        <path d="M26.3058454,2.48651262 L51.7536176,3.08283507 C53.3777717,3.12089418 54.81758,4.13751432 55.3969262,5.65530318 L66.4922551,34.7231843 C67.2800529,36.7870811 66.2455704,39.0988363 64.1816736,39.8866341 C64.0348128,39.9426914 63.8847752,39.9900429 63.7323415,40.028442 L39.3985843,46.1582803 C36.2547236,46.9502402 33.0503586,45.1015095 32.1623725,41.9834105 L22.3650991,7.58099176 C21.7600286,5.45633063 22.9919003,3.24344598 25.1165614,2.63837556 C25.5031085,2.52829295 25.9040392,2.47709702 26.3058454,2.48651262 Z" id="矩形" fill="url(#linearGradient-3)"></path>
                        <path d="M27.3537485,0.279934145 L51.1550551,1.44982888 C52.686159,1.52508653 54.0395806,2.46876524 54.6395717,3.8794224 L66.9743709,32.8801382 C67.8390187,34.9130374 66.8919637,37.2619634 64.8590645,38.1266112 C64.6204838,38.2280861 64.3726025,38.306125 64.1189187,38.3596265 L38.8923492,43.6798772 C36.8676298,44.1068879 34.8514641,42.9191806 34.2434709,40.9412597 L23.3339346,5.45039844 C22.6848413,3.33877042 23.8704599,1.10076354 25.9820879,0.451670174 C26.4258764,0.315254004 26.8900265,0.257141028 27.3537485,0.279934145 Z" id="矩形" fill="url(#linearGradient-4)"></path>
                        <path d="M32.0160689,4.71864407 L48.9891181,4.71864407 C50.5761258,4.71864407 52.0130423,5.65686751 52.6513314,7.1098577 L62.5085895,29.5487486 C63.3970977,31.5713331 62.4777471,33.9312401 60.4551625,34.8197482 C60.1463855,34.955392 59.8216932,35.0514403 59.4888142,35.105607 L41.6995184,38.000316 C39.7938929,38.3104031 37.9387316,37.2150692 37.2897971,35.3967055 L28.2487857,10.0631056 C27.50626,7.98249254 28.5909943,5.69388643 30.6716073,4.95136081 C31.1031257,4.7973613 31.5578944,4.71864407 32.0160689,4.71864407 Z" id="矩形" fill="url(#linearGradient-5)"></path>
                    </g>
                    <g id="编组-8" transform="translate(53.000000, 1.000000)">
                        <circle id="椭圆形" fill="url(#linearGradient-6)" cx="6.5" cy="4.5" r="4.5"></circle>
                        <text id="¥" transform="translate(6.718644, 6.154755) rotate(5.000000) translate(-6.718644, -6.154755) " font-family="PingFangSC-Medium, PingFang SC" font-size="6" font-weight="400" fill="#CF7617">
                            <tspan x="4.9186438" y="6.5633567">¥　</tspan>
                        </text>
                    </g>
                    <g id="编组-8" transform="translate(57.560976, 9.777827)">
                        <circle id="椭圆形" fill="url(#linearGradient-7)" cx="11" cy="10" r="7"></circle>
                        <text id="¥" transform="translate(10.816407, 9.782616) rotate(15.000000) translate(-10.816407, -9.782616) " font-family="PingFangSC-Medium, PingFang SC" font-size="12" font-weight="400" fill="#CF7617">
                            <tspan x="7.21640704" y="15.1718994">¥　</tspan>
                        </text>
                    </g>
                    <g id="编组-8" transform="translate(25.365854, 0.340539)">
                        <circle id="椭圆形" fill="url(#linearGradient-8)" cx="26" cy="23" r="14"></circle>
                        <circle id="椭圆形" fill="url(#linearGradient-9)" cx="24" cy="24" r="14"></circle>
                        <path d="M26.3696317,26.3536402 L29.6633185,26.3536402 C30.5354102,26.3536402 30.9714494,26.7785174 30.9714494,27.6282845 C30.9714494,28.4628773 30.5354102,28.8801674 29.6633185,28.8801674 L26.3696317,28.8801674 L26.3696317,31.5205021 C26.3696317,32.1123042 26.2839811,32.506833 26.1126774,32.7041004 C25.9413737,32.9013678 25.5676257,33 24.9914223,33 C24.4930842,33 24.1349091,32.9013678 23.9168862,32.7041004 C23.6988633,32.506833 23.5898534,32.1123042 23.5898534,31.5205021 L23.5898534,28.8801674 L20.3428856,28.8801674 C19.4707939,28.8801674 19.0347546,28.4628773 19.0347546,27.6282845 C19.0347546,26.7785174 19.4552211,26.3536402 20.2961666,26.3536402 L23.5898534,26.3536402 L23.5898534,25.1928034 L20.3428856,25.1928034 C19.4707939,25.1928034 19.0347546,24.7755133 19.0347546,23.9409206 C19.0347546,23.0911534 19.4552211,22.6662762 20.2961666,22.6662762 L22.1415656,22.6662762 L19.2917089,18.1367365 L19.2917089,18.1367365 C19.0425399,17.7422017 18.9529961,17.3931955 19.0230749,17.0897072 C19.0931537,16.7862189 19.2839209,16.5282578 19.5953822,16.315816 C19.9535627,16.0730254 20.2844853,15.9743932 20.5881601,16.0199164 C20.8918349,16.0654397 21.1838255,16.3158137 21.4641407,16.7710461 L25.0147818,22.5524687 L25.8790826,21.121339 L25.8790826,21.121339 L26.7433834,19.6958997 C27.3195868,18.7474988 27.8957816,17.7953187 28.471985,16.8393306 C28.6432887,16.5661912 28.8029102,16.3651332 28.9508543,16.2361507 C29.0987985,16.1071682 29.2506336,16.0312973 29.4063642,16.0085357 C29.5620949,15.985774 29.7178232,16.0085353 29.8735538,16.0768202 C30.0292845,16.145105 30.1927992,16.2323566 30.3641029,16.3385775 C30.7534296,16.5813681 30.9636628,16.8355357 30.9948089,17.101088 C31.0259551,17.3666402 30.9169452,17.7118529 30.6677762,18.1367365 L27.8646385,22.6662762 L29.6633185,22.6662762 C30.5354102,22.6662762 30.9714494,23.0911534 30.9714494,23.9409206 C30.9714494,24.7755133 30.5354102,25.1928034 29.6633185,25.1928034 L26.3696317,25.1928034 L26.3696317,26.3536402 Z" id="¥" fill="#CF7617" fill-rule="nonzero" transform="translate(25.000000, 24.500000) rotate(30.000000) translate(-25.000000, -24.500000) "></path>
                    </g>
                </g>
                <g id="编组-10" transform="translate(93.000000, 20.000000)" font-family="FZLTCHK--GBK1-0, FZLanTingHei-B-GBK" font-size="18" font-weight="normal">
                    <text id="立即续费，享更多功能" fill="#D30C18">
                        <tspan x="0" y="18">立即续费，享更多功能</tspan>
                    </text>
                    <text id="立即续费，享更多功能" fill="#FFFFFF">
                        <tspan x="0" y="16">立即续费，享更多功能</tspan>
                    </text>
                </g>
                <g id="编组-11" transform="translate(288.000000, 9.000000)">
                    <circle id="椭圆形" fill="#D7232E" filter="url(#filter-10)" cx="19" cy="24" r="19"></circle>
                    <circle id="椭圆形" fill="url(#linearGradient-11)" cx="18.5" cy="21.5" r="18.5"></circle>
                    <circle id="椭圆形" fill="url(#linearGradient-12)" cx="18.5" cy="18.5" r="18.5"></circle>
                    <text id="GO" font-family="Arial-BoldMT, Arial" font-size="16" font-weight="bold" fill="#DE312B">
                        <tspan x="6.01183036" y="24.3125">GO</tspan>
                    </text>
                </g>
            </g>
        </g>
    </g>
</svg>