<?xml version="1.0" encoding="UTF-8"?>
<svg width="24px" height="24px" viewBox="0 0 24 24" version="1.1" xmlns="http://www.w3.org/2000/svg" xmlns:xlink="http://www.w3.org/1999/xlink">
    <!-- Generator: Sketch 59.1 (86144) - https://sketch.com -->
    <title>切片</title>
    <desc>Created with Sketch.</desc>
    <g id="云通知" stroke="none" stroke-width="1" fill="none" fill-rule="evenodd">
        <g id="个人号_云通知" transform="translate(-15.000000, -108.000000)">
            <g id="编组-2" transform="translate(0.000000, 98.000000)">
                <g id="icon_今日数据" transform="translate(15.000000, 10.000000)">
                    <g>
                        <circle id="椭圆形" fill="#0F88FF" cx="12" cy="12" r="12"></circle>
                        <g id="数据库" transform="translate(3.428571, 3.428571)" fill-rule="nonzero">
                            <rect id="矩形" fill="#000000" opacity="0" x="0" y="0" width="17.1428571" height="17.1428571"></rect>
                            <path d="M14.3671875,12.828683 L14.3671875,10.3242188 C13.9972098,10.6473214 13.5803571,10.9135045 13.1333705,11.1143973 C11.6852679,11.750558 10.1199777,12.0719866 8.53794643,12.0569196 C6.49553571,12.1757812 4.47321429,11.6049107 2.79408482,10.438058 L2.79408482,12.9609375 C2.90792411,14.0625 5.33705357,15.2678571 8.57645089,15.2678571 C11.8158482,15.2678571 14.2265625,14.0524554 14.3671875,12.9425223 L14.3671875,12.828683 L14.3671875,12.828683 Z" id="路径" fill-opacity="0.5" fill="#FFFFFF"></path>
                            <path d="M14.3671875,8.48772321 L14.3671875,8.44084821 L14.3671875,8.5546875 C14.2265625,9.66629464 11.8158482,10.8800223 8.57645089,10.8800223 C5.33705357,10.8800223 2.90792411,9.67466518 2.79408482,8.57310268 L2.79408482,6.04854911 C4.47321429,7.21707589 6.49553571,7.78627232 8.53794643,7.66741071 C10.1199777,7.68247768 11.6852679,7.36272321 13.1333705,6.72488839 C13.5803571,6.52232143 13.9972098,6.25613839 14.3671875,5.93470982 L14.3671875,8.48772321 Z" id="路径" fill-opacity="0.8" fill="#FFFFFF"></path>
                            <path d="M12.7667411,2.68694196 C13.7276786,3.11049107 14.3018973,3.71316964 14.3018973,4.25055804 C14.3018973,4.77790179 13.7092634,5.36216518 12.7667411,5.81417411 C11.4274554,6.38337054 9.984375,6.66294643 8.52957589,6.6328125 C5.23325893,6.6328125 2.77566964,5.38058036 2.77566964,4.26060268 C2.77566964,3.140625 5.24330357,1.87834821 8.54799107,1.87834821 C9.99609375,1.84654018 11.4324777,2.12276786 12.7667411,2.68694196 Z" id="路径" fill="#FFFFFF"></path>
                        </g>
                    </g>
                </g>
            </g>
        </g>
    </g>
</svg>