<?xml version="1.0" encoding="UTF-8"?>
<svg width="26px" height="26px" viewBox="0 0 26 26" version="1.1" xmlns="http://www.w3.org/2000/svg" xmlns:xlink="http://www.w3.org/1999/xlink">
    <!-- Generator: Sketch 52.2 (67145) - http://www.bohemiancoding.com/sketch -->
    <title>icon_phone</title>
    <desc>Created with Sketch.</desc>
    <g id="icon_phone" stroke="none" stroke-width="1" fill="none" fill-rule="evenodd">
        <g>
            <rect id="矩形" x="0" y="0" width="26" height="26"></rect>
            <path d="M17.3983008,12.779899 L17.0195797,11.1150277 C16.9299297,10.7209231 17.1618506,10.3250434 17.5452041,10.2178079 L21.8021241,9.02701959 C22.0944348,8.94525151 22.4062201,9.05284513 22.5893291,9.29867518 C23.2437343,10.1772365 23.4964377,11.2837768 23.3474392,12.6182959 C22.8189689,15.9221801 18.0209418,18.1666667 12.6944444,18.1666667 C7.36794706,18.1666667 2.56991996,15.9221801 2.04144968,12.6182959 C1.89245118,11.2837768 2.14515455,10.1772365 2.79955978,9.29867518 C2.98266876,9.05284513 3.29445413,8.94525151 3.58676482,9.02701959 L7.84368479,10.2178079 C8.22703832,10.3250434 8.4589592,10.7209231 8.36930919,11.1150277 L7.99058814,12.779899 C8.27375262,14.108635 10.3425163,15.1500768 12.6944444,15.1500768 C15.0463726,15.1500768 17.1151363,14.108635 17.3983008,12.779899 Z" id="路径" fill="#FFFFFF" transform="translate(12.694444, 13.583333) rotate(-315.000000) translate(-12.694444, -13.583333) "></path>
        </g>
    </g>
</svg>