<?xml version="1.0" encoding="UTF-8"?>
<svg width="38px" height="38px" viewBox="0 0 38 38" version="1.1" xmlns="http://www.w3.org/2000/svg" xmlns:xlink="http://www.w3.org/1999/xlink">
    <!-- Generator: Sketch 52.2 (67145) - http://www.bohemiancoding.com/sketch -->
    <title>icon_enterprise_unselect</title>
    <desc>Created with Sketch.</desc>
    <g id="icon_enterprise_unselect" stroke="none" stroke-width="1" fill="none" fill-rule="evenodd">
        <g>
            <circle id="椭圆形" fill="#6B7685" cx="19" cy="19" r="19"></circle>
            <rect id="矩形" x="9" y="8" width="21" height="21"></rect>
            <g id="分组-8" transform="translate(9.000000, 9.000000)" fill="#FFFFFF" fill-rule="nonzero">
                <path d="M9.06818182,0.7125 L11.9318182,0.7125 C12.8543848,0.7125 13.6022727,1.4568266 13.6022727,2.375 L13.6022727,4.275 C13.6022727,5.1931734 12.8543848,5.9375 11.9318182,5.9375 L9.06818182,5.9375 C8.14561525,5.9375 7.39772727,5.1931734 7.39772727,4.275 L7.39772727,2.375 C7.39772727,1.4568266 8.14561525,0.7125 9.06818182,0.7125 Z" id="路径"></path>
                <polygon id="路径" points="9.54545455 5.7 11.4545455 5.7 11.4545455 9.5 9.54545455 9.5"></polygon>
                <path d="M2.38636364,13.0625 L5.25,13.0625 C6.17256657,13.0625 6.92045455,13.8068266 6.92045455,14.725 L6.92045455,16.625 C6.92045455,17.5431734 6.17256657,18.2875 5.25,18.2875 L2.38636364,18.2875 C1.46379707,18.2875 0.715909091,17.5431734 0.715909091,16.625 L0.715909091,14.725 C0.715909091,13.8068266 1.46379707,13.0625 2.38636364,13.0625 Z" id="路径"></path>
                <path d="M15.75,13.0625 L18.6136364,13.0625 C19.5362029,13.0625 20.2840909,13.8068266 20.2840909,14.725 L20.2840909,16.625 C20.2840909,17.5431734 19.5362029,18.2875 18.6136364,18.2875 L15.75,18.2875 C14.8274334,18.2875 14.0795455,17.5431734 14.0795455,16.625 L14.0795455,14.725 C14.0795455,13.8068266 14.8274334,13.0625 15.75,13.0625 Z" id="路径"></path>
                <path d="M4.77272727,13.3 L2.86363636,13.3 L2.86363636,11.4 C2.86363636,9.82598846 4.14573003,8.55 5.72727273,8.55 L15.2727273,8.55 C16.85427,8.55 18.1363636,9.82598846 18.1363636,11.4 L18.1363636,13.3 L16.2272727,13.3 L16.2272727,11.4 C16.2272727,10.8753295 15.7999082,10.45 15.2727273,10.45 L5.72727273,10.45 C5.20009183,10.45 4.77272727,10.8753295 4.77272727,11.4 L4.77272727,13.3 Z" id="路径"></path>
            </g>
        </g>
    </g>
</svg>