<?xml version="1.0" encoding="UTF-8"?>
<svg width="26px" height="26px" viewBox="0 0 26 26" version="1.1" xmlns="http://www.w3.org/2000/svg" xmlns:xlink="http://www.w3.org/1999/xlink">
    <!-- Generator: Sketch 52.2 (67145) - http://www.bohemiancoding.com/sketch -->
    <title>icon_微信支付</title>
    <desc>Created with Sketch.</desc>
    <g id="icon_微信支付" stroke="none" stroke-width="1" fill="none" fill-rule="evenodd">
        <g>
            <rect id="矩形" x="0" y="0" width="26" height="26"></rect>
            <path d="M9.17266041,15.8141296 C8.88431617,15.8141296 8.6491915,15.650532 8.51776232,15.4049434 L8.46467499,15.296904 L6.39922717,10.6000914 C6.37390656,10.5447781 6.37390656,10.492087 6.37390656,10.4366338 C6.37390656,10.2176879 6.53065635,10.0540553 6.74049347,10.0540553 C6.81900058,10.0540553 6.89724325,10.0804184 6.97575037,10.1358716 L9.40765287,11.938032 C9.58972326,12.0460714 9.79956038,12.1278877 10.0345528,12.1278877 C10.1661473,12.1278877 10.2951303,12.1015246 10.4265926,12.0460714 L21.8309162,6.75049673 C19.7907559,4.23852787 16.4181564,2.6 12.598182,2.6 C6.37390656,2.6 1.3,6.99591053 1.3,12.4261674 C1.3,15.3734057 2.81695579,18.0488322 5.19590317,19.8511325 C5.37784135,19.9882621 5.50930358,20.2337109 5.50930358,20.4789848 C5.50930358,20.5608011 5.48398297,20.6426173 5.45621624,20.7244336 C5.27427807,21.4606051 4.95833238,22.6638635 4.95833238,22.7166944 C4.93287955,22.7983708 4.90501365,22.9065501 4.90501365,23.0174566 C4.90501365,23.2364025 5.06189566,23.4 5.27169973,23.4 C5.35007462,23.4 5.42848257,23.373637 5.48153685,23.3181837 L7.93875996,21.8169254 C8.12083035,21.7086062 8.33076664,21.62679 8.54060376,21.62679 C8.64416704,21.62679 8.77559622,21.6532929 8.87929172,21.6822432 C10.0295284,22.0358713 11.2861711,22.228559 12.5678369,22.228559 C18.7921124,22.228559 23.866019,17.8326485 23.866019,12.4023917 C23.866019,10.763724 23.3957365,9.20959969 22.5843531,7.8429885 L9.58972326,15.676895 L9.51134837,15.7322084 C9.40765287,15.7876617 9.30151125,15.8141296 9.17266041,15.8141296 Z" id="Fill-1" fill="#09BB07"></path>
        </g>
    </g>
</svg>