<?xml version="1.0" encoding="UTF-8"?>
<svg width="50px" height="50px" viewBox="0 0 50 50" version="1.1" xmlns="http://www.w3.org/2000/svg" xmlns:xlink="http://www.w3.org/1999/xlink">
    <!-- Generator: Sketch 52.2 (67145) - http://www.bohemiancoding.com/sketch -->
    <title>icon_call</title>
    <desc>Created with Sketch.</desc>
    <defs>
        <rect id="path-1" x="0" y="0" width="26" height="26"></rect>
        <rect id="path-3" x="0" y="0" width="38" height="38"></rect>
    </defs>
    <g id="icon_call" stroke="none" stroke-width="1" fill="none" fill-rule="evenodd">
        <g>
            <rect id="矩形" x="0" y="0" width="50" height="50"></rect>
            <g id="路径" transform="translate(5.000000, 17.000000)">
                <mask id="mask-2" fill="white">
                    <use xlink:href="#path-1"></use>
                </mask>
                <g id="Mask"></g>
                <path d="M18.1979918,13.13382 L17.7504124,11.1662449 C17.6444624,10.7004849 17.9185507,10.2326271 18.3716048,10.1058942 L23.4025103,8.69859891 C23.7479684,8.6019639 24.116442,8.72912 24.3328435,9.01964643 C25.1062315,10.0579462 25.4048809,11.3656756 25.2287918,12.9428346 C24.604236,16.847425 18.9338403,19.5 12.6388889,19.5 C6.34393744,19.5 0.673541767,16.847425 0.0489859866,12.9428346 C-0.127103146,11.3656756 0.171546287,10.0579462 0.944934288,9.01964643 C1.16133581,8.72912 1.52980942,8.6019639 1.87526751,8.69859891 L6.90617293,10.1058942 C7.35922711,10.2326271 7.63331542,10.7004849 7.52736541,11.1662449 L7.07978598,13.13382 C7.41443491,14.7041444 9.85933744,15.9349392 12.6388889,15.9349392 C15.4184403,15.9349392 17.8633429,14.7041444 18.1979918,13.13382 Z" fill="#E8E9EB" mask="url(#mask-2)" transform="translate(12.638889, 14.083333) rotate(-315.000000) translate(-12.638889, -14.083333) "></path>
            </g>
            <g id="路径" transform="translate(6.000000, 6.000000)">
                <mask id="mask-4" fill="white">
                    <use xlink:href="#path-3"></use>
                </mask>
                <g id="Mask"></g>
                <path d="M26.5970649,19.1955831 L25.9429104,16.3198964 C25.7880604,15.6391702 26.188651,14.9553781 26.8508071,14.7701531 L34.2036688,12.7133369 C34.7085691,12.5721011 35.2471075,12.7579446 35.5633866,13.1825602 C36.6937229,14.7000752 37.1302106,16.611372 36.8728495,18.9164506 C35.9600372,24.6231596 27.6725359,28.5 18.4722222,28.5 C9.27190856,28.5 0.984407198,24.6231596 0.0715949035,18.9164506 C-0.185766137,16.611372 0.250721497,14.7000752 1.38105781,13.1825602 C1.69733696,12.7579446 2.23587531,12.5721011 2.7407756,12.7133369 L10.0936374,14.7701531 C10.7557935,14.9553781 11.1563841,15.6391702 11.0015341,16.3198964 L10.3473795,19.1955831 C10.8364818,21.4906726 14.4098009,23.2895265 18.4722222,23.2895265 C22.5346436,23.2895265 26.1079626,21.4906726 26.5970649,19.1955831 Z" fill="#0F88FF" mask="url(#mask-4)" transform="translate(18.472222, 20.583333) rotate(-315.000000) translate(-18.472222, -20.583333) "></path>
            </g>
        </g>
    </g>
</svg>