<?xml version="1.0" encoding="UTF-8"?>
<svg width="20px" height="20px" viewBox="0 0 20 20" version="1.1" xmlns="http://www.w3.org/2000/svg" xmlns:xlink="http://www.w3.org/1999/xlink">
    <!-- Generator: Sketch 59.1 (86144) - https://sketch.com -->
    <title>切片</title>
    <desc>Created with Sketch.</desc>
    <g id="云通知" stroke="none" stroke-width="1" fill="none" fill-rule="evenodd">
        <g id="个人号_云通知" transform="translate(-15.000000, -308.000000)">
            <g id="分组-copy-3" transform="translate(0.000000, 284.000000)">
                <g id="icon_次数充值" transform="translate(15.000000, 24.000000)">
                    <g>
                        <rect id="矩形" fill="#000000" fill-rule="nonzero" opacity="0" x="0" y="0" width="20" height="20"></rect>
                        <g id="编组" transform="translate(0.000000, 1.000000)" fill-rule="nonzero">
                            <path d="M17.4166667,13.1361429 L17.4166667,15.4548214 C17.4166667,16.3078571 16.7073333,17 15.8333333,17 L3.16666667,17 C1.41803334,17 0,15.6157143 0,13.9096429 L0,1.54457142 C0,0.692142864 0.709333333,0 1.58333333,0 L14.25,0 C15.124,0 15.8333333,0.692142864 15.8333333,1.54517858 L15.8333333,3.09096429 C16.7073333,3.09096429 17.4166667,3.78310715 17.4166667,4.63614286 L17.4166667,6.95482142 C18.2906667,6.95482142 19,7.64696429 19,8.5 L19,11.5903571 C19,12.4446071 18.2906667,13.1361428 17.4166667,13.1361429 Z" id="路径" fill="#333333"></path>
                            <path d="M15.8333333,13.1361429 L13.4583333,13.1361429 C11.7097,13.1361429 10.2916667,11.7524643 10.2916667,10.0457857 C10.2916667,8.3385 11.7097,6.95482142 13.4583333,6.95482142 L15.8333333,6.95482142 L15.8333333,4.63614286 L1.58333333,4.63614286 L1.58333333,13.9096429 C1.58333333,14.7632857 2.29266666,15.4554286 3.16666667,15.4554286 L15.8333333,15.4554286 L15.8333333,13.13675 L15.8333333,13.1361429 Z" id="路径" fill="#FFFFFF"></path>
                            <polygon id="路径" fill="#FFFFFF" points="1.58333333 3.09096429 14.25 3.09096429 14.25 1.54517858 1.58333333 1.54517858 1.58333333 3.09096429"></polygon>
                            <path d="M13.4583333,8.5 C12.5843333,8.5 11.875,9.19214286 11.875,10.0451786 C11.875,10.8988214 12.5843333,11.5909643 13.4583333,11.5909643 L17.4166667,11.5909643 L17.4166667,8.5 L13.4583333,8.5 Z" id="路径" fill="#FFFFFF"></path>
                            <path d="M13.4583333,10.8180714 C13.0213333,10.8180714 12.6666667,10.472 12.6666667,10.0451786 C12.6666667,9.61896429 13.0213333,9.27289286 13.4583333,9.27289286 C13.8953333,9.27289286 14.25,9.61896429 14.25,10.0451786 C14.25,10.472 13.8953333,10.8180714 13.4583333,10.8180714 Z" id="路径" fill="#333333"></path>
                        </g>
                        <rect id="矩形" fill="#0F88FF" x="3" y="7" width="6" height="2"></rect>
                    </g>
                </g>
            </g>
        </g>
    </g>
</svg>