<?xml version="1.0" encoding="UTF-8"?>
<svg width="355px" height="112px" viewBox="0 0 355 112" version="1.1" xmlns="http://www.w3.org/2000/svg" xmlns:xlink="http://www.w3.org/1999/xlink">
    <!-- Generator: Sketch 59.1 (86144) - https://sketch.com -->
    <title>切片</title>
    <desc>Created with Sketch.</desc>
    <defs>
        <linearGradient x1="88.8028169%" y1="48.8634734%" x2="31.0959507%" y2="54.9767903%" id="linearGradient-1">
            <stop stop-color="#54A0FE" offset="0%"></stop>
            <stop stop-color="#2474FF" offset="100%"></stop>
        </linearGradient>
        <path d="M6,0 L349,0 C352.313708,-6.08718376e-16 355,2.6862915 355,6 L355,112 L355,112 L0,112 L0,6 C-2.18216909e-15,2.6862915 2.6862915,6.08718376e-16 6,0 Z" id="path-2"></path>
        <linearGradient x1="90.6045942%" y1="52.4125249%" x2="51.4881646%" y2="61.7054191%" id="linearGradient-4">
            <stop stop-color="#55A4FE" offset="0%"></stop>
            <stop stop-color="#52A9FD" stop-opacity="0.11" offset="42.47519%"></stop>
            <stop stop-color="#4DB3FC" offset="100%"></stop>
        </linearGradient>
        <linearGradient x1="23.6575704%" y1="50%" x2="-11.1883803%" y2="36.9838326%" id="linearGradient-5">
            <stop stop-color="#94D3FF" stop-opacity="0" offset="0%"></stop>
            <stop stop-color="#53B5FF" offset="100%"></stop>
        </linearGradient>
        <rect id="path-6" x="0" y="0" width="355" height="112" rx="6"></rect>
        <linearGradient x1="6.09441208%" y1="39.9331303%" x2="50%" y2="100%" id="linearGradient-8">
            <stop stop-color="#4A92F7" offset="0%"></stop>
            <stop stop-color="#4992F6" stop-opacity="0" offset="100%"></stop>
        </linearGradient>
        <linearGradient x1="32.6975913%" y1="51.455651%" x2="81.6462295%" y2="58.6234957%" id="linearGradient-9">
            <stop stop-color="#4B9BFB" stop-opacity="0" offset="0%"></stop>
            <stop stop-color="#4A92F7" offset="100%"></stop>
        </linearGradient>
        <linearGradient x1="23.6360862%" y1="50%" x2="136.466122%" y2="106.718737%" id="linearGradient-10">
            <stop stop-color="#9ADEFF" offset="0%"></stop>
            <stop stop-color="#64B1FF" offset="100%"></stop>
        </linearGradient>
        <linearGradient x1="21.1848958%" y1="50%" x2="144.505328%" y2="106.718737%" id="linearGradient-11">
            <stop stop-color="#9ADEFF" offset="0%"></stop>
            <stop stop-color="#64B1FF" offset="100%"></stop>
        </linearGradient>
        <linearGradient x1="21.1848958%" y1="50%" x2="144.505328%" y2="83.8671798%" id="linearGradient-12">
            <stop stop-color="#9ADEFF" offset="0%"></stop>
            <stop stop-color="#64B1FF" offset="100%"></stop>
        </linearGradient>
        <linearGradient x1="50%" y1="0%" x2="50%" y2="100%" id="linearGradient-13">
            <stop stop-color="#B3E7FF" offset="0%"></stop>
            <stop stop-color="#80C9FE" offset="100%"></stop>
        </linearGradient>
        <linearGradient x1="50%" y1="0%" x2="50%" y2="70.7174162%" id="linearGradient-14">
            <stop stop-color="#FEFEFF" offset="0%"></stop>
            <stop stop-color="#F4FBFF" offset="100%"></stop>
        </linearGradient>
        <filter x="-66.7%" y="-66.7%" width="233.3%" height="233.3%" filterUnits="objectBoundingBox" id="filter-15">
            <feGaussianBlur stdDeviation="4" in="SourceGraphic"></feGaussianBlur>
        </filter>
        <linearGradient x1="86.61069%" y1="0%" x2="50%" y2="100%" id="linearGradient-16">
            <stop stop-color="#FFE6D9" offset="0%"></stop>
            <stop stop-color="#FDC8B2" offset="100%"></stop>
        </linearGradient>
        <linearGradient x1="21.1848958%" y1="50%" x2="144.505328%" y2="98.3283913%" id="linearGradient-17">
            <stop stop-color="#9ADEFF" offset="0%"></stop>
            <stop stop-color="#64B1FF" offset="100%"></stop>
        </linearGradient>
        <linearGradient x1="45.2853097%" y1="50%" x2="65.4628402%" y2="106.718737%" id="linearGradient-18">
            <stop stop-color="#9ADEFF" offset="0%"></stop>
            <stop stop-color="#64B1FF" offset="100%"></stop>
        </linearGradient>
        <linearGradient x1="21.1848958%" y1="50%" x2="144.505328%" y2="96.4296238%" id="linearGradient-19">
            <stop stop-color="#9ADEFF" offset="0%"></stop>
            <stop stop-color="#64B1FF" offset="100%"></stop>
        </linearGradient>
    </defs>
    <g id="云通知" stroke="none" stroke-width="1" fill="none" fill-rule="evenodd">
        <g id="个人号_次数充值2" transform="translate(-10.000000, -146.000000)">
            <g id="icon_bg_次数" transform="translate(10.000000, 146.000000)">
                <g>
                    <mask id="mask-3" fill="white">
                        <use xlink:href="#path-2"></use>
                    </mask>
                    <use id="蒙版" fill="url(#linearGradient-1)" xlink:href="#path-2"></use>
                    <path d="M5.42910448,112 C158.688123,112 285,56.0960073 285,-21.5 C285,-99.0960073 160.759018,-162 7.5,-162 C-145.759018,-162 -270,-99.0960073 -270,-21.5 C-270,56.0960073 -147.829914,112 5.42910448,112 Z" id="椭圆形" fill="url(#linearGradient-4)" mask="url(#mask-3)"></path>
                    <mask id="mask-7" fill="white">
                        <use xlink:href="#path-6"></use>
                    </mask>
                    <use id="蒙版" fill="url(#linearGradient-5)" xlink:href="#path-6"></use>
                    <circle id="椭圆形" fill="url(#linearGradient-8)" mask="url(#mask-7)" cx="403" cy="20" r="118"></circle>
                    <rect id="矩形" fill="url(#linearGradient-9)" mask="url(#mask-7)" transform="translate(198.861328, 16.609375) rotate(-56.000000) translate(-198.861328, -16.609375) " x="91.8613281" y="-43.890625" width="214" height="121"></rect>
                    <g id="电话" mask="url(#mask-7)" fill-rule="nonzero">
                        <g transform="translate(197.500000, 42.500000) scale(-1, 1) translate(-197.500000, -42.500000) translate(183.000000, 28.000000)">
                            <rect id="矩形" fill="#000000" opacity="0" x="0" y="0" width="29" height="29"></rect>
                            <path d="M19.7389077,10.465259 C20.1305836,10.8138442 20.7091956,10.8225589 21.0266904,10.4797834 L25.6496522,5.52115846 C25.9701143,5.18128787 25.9107695,4.62064662 25.5161264,4.26915651 C25.1214833,3.91766641 24.5428713,3.90895178 24.2253764,4.25172724 L19.6024146,9.21325704 C19.2849198,9.55022277 19.3472319,10.1137689 19.7389077,10.465259 Z M26.9611729,6.24156795 L21.8753214,11.6940219 C21.8753214,11.6940219 23.7120437,15.6039863 20.824918,18.7005851 C17.356213,22.4217325 13.6798011,20.4928942 13.6798011,20.4928942 L8.47822727,26.0760676 C8.47822727,26.0760676 16.7241906,29.8756466 23.9998661,22.0644326 C30.6969296,14.8748622 26.9611729,6.24156795 26.9611729,6.24156795 L26.9611729,6.24156795 Z M12.1130978,18.6453924 C11.7184547,18.2968072 11.1457771,18.2851877 10.8223478,18.6366778 L6.2053205,23.5923979 C5.88485846,23.9351733 5.94717052,24.4987195 6.33884636,24.8502096 C6.73348943,25.1987948 7.30913425,25.2075094 7.62959629,24.8647339 L12.2466236,19.9032041 C12.5670857,19.5604287 12.5077409,18.9968825 12.1130978,18.6453924 L12.1130978,18.6453924 Z" id="形状" fill="url(#linearGradient-10)"></path>
                            <path d="M15.2731345,8.84916511 L15.6317565,8.78613922 C16.0710209,8.70438485 16.4745081,8.77835308 16.7388618,9.03529535 C16.9475621,9.23968127 17.0151412,9.5063562 16.9972526,9.73604702 C16.9853269,9.92291412 16.8859458,10.094209 16.7726514,10.2032148 C16.5301615,10.4290125 16.2538821,10.4951946 15.9776027,10.5438579 C15.4727467,10.6197727 14.3477528,10.8728219 13.6262461,11.5871993 C13.6143204,11.5988785 13.6043823,11.6086111 13.5964318,11.6202903 C12.8232469,12.4047428 12.6542991,13.1191202 12.6383981,13.5609831 C12.6304476,13.7673155 12.6383981,13.9502895 12.6185219,14.1410497 C12.6026209,14.3240238 12.5569056,14.5595542 12.360131,14.7561539 C12.2773135,14.8259047 12.1875944,14.8848413 12.0955749,14.9239522 L12.0401239,14.9449676 C11.771795,15.0578664 11.3802335,14.9955774 11.1755084,14.7717262 C10.8972414,14.4797464 10.8336375,14.1196379 10.8077984,13.677775 C10.7631221,12.7722836 11.0430554,11.6976177 12.1280845,10.5028313 L12.2050965,10.4192799 C12.2408737,10.3790515 12.2784177,10.3396883 12.3171395,10.301767 L12.376032,10.2460385 C13.3838779,9.25739868 14.5614971,8.97878593 15.2731345,8.84916511 Z M15.116072,6.00014177 L15.150752,6.00065143 L15.4533245,6.01883857 C15.8629627,6.04636058 16.1953495,6.09438114 16.4954224,6.32905473 L16.5480501,6.37243912 L16.5560006,6.38022525 C16.6812208,6.50285679 16.7686761,6.69167042 16.7726514,6.87269793 C16.7885524,7.1062818 16.7110351,7.36322407 16.538112,7.52283972 C16.1405877,7.86348289 15.7490262,7.77783547 15.5005735,7.77783547 L15.2867697,7.76718519 C14.5326607,7.73322775 13.1601562,7.75253763 11.5095819,9.26891146 L11.4239612,9.34868707 L11.3603573,9.4109761 C9.66889116,11.0908335 9.7821856,12.5721446 9.75634651,13.1269064 C9.74839602,13.2962547 9.78218558,13.4850683 9.79808656,13.7050265 L9.80128203,13.7770402 C9.80682229,13.9788387 9.78130221,14.2539486 9.55162147,14.4875325 C9.46643768,14.5709553 9.36519066,14.6314964 9.26039721,14.6752849 L9.2077629,14.6958114 C8.92949584,14.8164964 8.52799624,14.6821857 8.3332093,14.4700137 C8.01916509,14.1391032 8.0291032,13.7167057 8.00326411,13.1794627 L8.00019183,13.0094855 C7.99265978,11.9568409 8.20098016,10.3230802 9.68479212,8.59148598 C9.8279009,8.42213767 9.97697253,8.26252202 10.132007,8.11458557 C12.0336057,6.26380543 14.3191932,5.99281646 15.116072,6.00014177 L15.116072,6.00014177 Z" id="形状" fill="url(#linearGradient-11)"></path>
                        </g>
                    </g>
                    <g id="邮件" mask="url(#mask-7)" fill-rule="nonzero">
                        <g transform="translate(197.500000, 75.500000) rotate(-121.000000) translate(-197.500000, -75.500000) translate(184.000000, 62.000000)">
                            <rect id="矩形" fill="#000000" opacity="0" x="0.56462468" y="0.467072081" width="26" height="26"></rect>
                            <path d="M3.04015294,6.80017861 L12.5850734,16.1773806 C13.3647196,16.9433323 14.614093,16.9673929 15.4232159,16.2459471 L15.4845724,16.1889808 L25.0401529,6.95257581 L25.0401529,22.1215806 L3.04015294,22.1215806 L3.04015294,6.80017861 Z M23.456122,5.12158058 L15.4866323,12.7829274 C14.7007749,13.5383808 13.4555615,13.5513793 12.6539122,12.8266322 L12.5915621,12.7678827 L4.80398955,5.12158058 L23.456122,5.12158058 Z" id="形状" fill="url(#linearGradient-12)"></path>
                        </g>
                    </g>
                    <g id="编组-10" mask="url(#mask-7)">
                        <g transform="translate(197.609375, 18.000000)">
                            <path d="M26.390625,0 L88.390625,0 C91.7043335,-6.08718376e-16 94.390625,2.6862915 94.390625,6 L94.390625,96 L94.390625,96 L20.390625,96 L20.390625,6 C20.390625,2.6862915 23.0769165,6.08718376e-16 26.390625,0 Z" id="矩形" fill="url(#linearGradient-13)"></path>
                            <path d="M29.390625,17 L85.390625,17 C87.0474792,17 88.390625,18.3431458 88.390625,20 L88.390625,99 L88.390625,99 L26.390625,99 L26.390625,20 C26.390625,18.3431458 27.7337708,17 29.390625,17 Z" id="矩形" fill="url(#linearGradient-14)"></path>
                            <rect id="矩形" fill="#5FAFFF" x="48.390625" y="8" width="18" height="3" rx="1.5"></rect>
                            <g id="编组-9" stroke-width="1" fill="none" transform="translate(36.390625, 24.000000)">
                                <rect id="矩形" fill="#84CDFF" filter="url(#filter-15)" x="27" y="3" width="18" height="18" rx="2"></rect>
                                <rect id="矩形" fill="#FFFFFF" x="26" y="0" width="20" height="20" rx="2"></rect>
                                <rect id="矩形" fill="#91D8FF" x="26" y="27" width="20" height="20" rx="2"></rect>
                                <rect id="矩形" fill="#91D8FF" x="0" y="0" width="20" height="20" rx="2"></rect>
                                <g id="对勾" transform="translate(28.000000, 0.000000)" fill-rule="nonzero">
                                    <rect id="矩形" fill="#000000" opacity="0" x="0" y="0" width="18" height="18"></rect>
                                    <polygon id="路径" fill="#FDC021" points="2.80204102 8.13362695 6.6452168 11.9768027 15.1091016 3.4462793 16.7752266 5.10127734 6.57857812 15.3534727 1.22477344 9.99966797"></polygon>
                                </g>
                            </g>
                            <path d="M6.390625,107 C4.72395833,93 8.390625,86 17.390625,86 C20.390625,86 22.890625,85.5 24.890625,84.5 C26.890625,82.8333333 29.0572917,82.5 31.390625,83.5 C33.0572917,85.5 35.0572917,84 37.390625,79 C42.7239583,57.6666667 47.5572917,47.5 51.890625,48.5 C54.5572917,49.1666667 55.5572917,52.1666667 54.890625,57.5 C50.890625,79.8333333 48.890625,91 48.890625,91 C54.5572917,96 56.890625,101.333333 55.890625,107 L9.890625,106" id="路径-4" fill-opacity="0.1" fill="#91D8FF"></path>
                            <path d="M0.390625,97 C-1.27604167,83 2.390625,76 11.390625,76 C14.390625,76 16.890625,75.5 18.890625,74.5 C20.890625,72.8333333 23.0572917,72.5 25.390625,73.5 C27.0572917,75.5 29.0572917,74 31.390625,69 C36.7239583,47.6666667 41.5572917,37.5 45.890625,38.5 C48.5572917,39.1666667 49.5572917,42.1666667 48.890625,47.5 C44.890625,69.8333333 42.890625,81 42.890625,81 C48.5572917,86 50.890625,91.3333333 49.890625,97 L3.890625,96" id="路径-4" fill="url(#linearGradient-16)"></path>
                        </g>
                    </g>
                    <g id="通知" mask="url(#mask-7)">
                        <g transform="translate(307.500000, 101.000000) rotate(-21.000000) translate(-307.500000, -101.000000) translate(289.000000, 86.000000)">
                            <rect id="矩形" fill="#000000" fill-rule="nonzero" opacity="0" x="0.573467907" y="1.69687841" width="28" height="28"></rect>
                            <path d="M1,12.4440728 L1,15.8233087 C1,17.2528198 1.85195593,18.4116824 2.90292978,18.4116824 L4.58575813,18.4116824 L4.58575813,25.2855027 C4.58575813,26.2324116 5.38841509,27 6.37858513,27 C7.36875517,27 8.17146418,26.2324116 8.17146418,25.2855027 L8.17146418,23.4499068 L7.37297186,23.4499068 C7.01707704,23.4499068 6.72857135,23.174031 6.72857135,22.8336606 C6.72857135,22.4933648 7.01705102,22.2174143 7.37297186,22.2174143 L8.17146418,22.2174143 L8.17146418,20.7437949 L7.37297186,20.7437949 C7.01707704,20.7437949 6.72857135,20.4679191 6.72857135,20.1275487 C6.72857135,19.7872529 7.01705102,19.5113024 7.37297186,19.5113024 L8.17146418,19.5113024 L8.17146418,18.4116823 L8.17146418,14.7955015 L8.17146418,9.85572403 L2.90292978,9.85572403 C1.85195593,9.85572403 1,11.0145617 1,12.4440728 Z M25.1826016,3.00000002 L27,3.00000002 L27,25.2673815 L25.1826016,25.2673815 L25.1826016,3.00000002 Z M9.08203747,9.85572403 L9.08203747,18.427862 C9.08203747,18.427862 11.3322985,18.427862 12.4070368,18.427862 C15.3073987,18.427862 24.3333787,25.2852289 24.3333787,25.2852289 L24.3477728,3 C24.3477728,3 15.3783018,9.85569912 12.3679933,9.85569912 C11.0234902,9.85572403 9.08203747,9.85572403 9.08203747,9.85572403 Z" id="形状" fill="url(#linearGradient-17)" fill-rule="nonzero"></path>
                            <g id="通知" stroke-width="1" fill="none" fill-rule="evenodd" transform="translate(8.542003, 0.471132)">
                                <rect id="矩形" fill="#000000" fill-rule="nonzero" opacity="0" x="0" y="0" width="28" height="28"></rect>
                                <path d="M22.1892048,12.4438298 L27.9569322,12.4438298 L27.9569322,14.8145347 L22.1892048,14.8145347 L22.1892048,12.4438298 Z M25.4777676,4.67819092 L26.7769138,6.66128553 L22.0147605,9.78093558 L20.7156142,7.79784097 L25.4777676,4.67819092 Z M25.4781627,22.5801736 L20.7162069,19.4607211 L22.0153531,17.4774289 L26.777309,20.597079 L25.4781627,22.5801736 Z" id="形状" fill="url(#linearGradient-18)" fill-rule="nonzero"></path>
                            </g>
                        </g>
                    </g>
                    <g id="发送_fill" mask="url(#mask-7)" fill-rule="nonzero">
                        <g transform="translate(290.000000, 61.000000)">
                            <rect id="矩形" fill="#000000" opacity="0" x="0" y="10" width="20" height="19"></rect>
                            <path d="M10,10.1231713 L15.7474242,13.3411462 L27.739697,3.06255571 L17.8484849,13.5493682 L25.6969697,16.0400608 L31,0 L10,10.1231713 Z M17.8484849,19 L20.5,16.0400608 L17.8484849,14.7947145 L17.8484849,19 Z" id="形状" fill="url(#linearGradient-19)"></path>
                        </g>
                    </g>
                </g>
            </g>
        </g>
    </g>
</svg>