<?xml version="1.0" encoding="UTF-8"?>
<svg width="18px" height="18px" viewBox="0 0 18 18" version="1.1" xmlns="http://www.w3.org/2000/svg" xmlns:xlink="http://www.w3.org/1999/xlink">
    <!-- Generator: Sketch 59.1 (86144) - https://sketch.com -->
    <title>切片</title>
    <desc>Created with Sketch.</desc>
    <g id="云通知" stroke="none" stroke-width="1" fill="none" fill-rule="evenodd">
        <g id="个人号_记录详情" transform="translate(-15.000000, -315.000000)" fill-rule="nonzero">
            <g id="分组-2" transform="translate(0.000000, 98.000000)">
                <g id="编组" transform="translate(15.000000, 217.000000)">
                    <g id="分组">
                        <g id="编组-6">
                            <g id="编组-2">
                                <g id="编组-7">
                                    <g id="icon_套餐模板">
                                        <g>
                                            <rect id="矩形" fill="#000000" opacity="0" x="0" y="0" width="18" height="18"></rect>
                                            <path d="M13.4768015,18 L4.10457721,18 C2.94463166,18 2,17.0262967 2,15.8294224 L2,4.17113001 C2,2.97425569 2.94463166,2 4.10457721,2 L13.4768015,2 C14.6367471,2 15.5813787,2.97425569 15.5813787,4.17113001 L15.5813787,15.8294224 C15.5813787,17.0262967 14.6367471,18 13.4768015,18 Z M4.10457721,3.24235554 C3.60806981,3.24235554 3.20457944,3.65905194 3.20457944,4.17113001 L3.20457944,15.8294224 C3.20457944,16.3415005 3.60806981,16.7576445 4.10457721,16.7576445 L13.4768015,16.7576445 C13.9733089,16.7576445 14.3767993,16.3415005 14.3767993,15.8294224 L14.3767993,4.17113001 C14.3767993,3.65905194 13.9733089,3.24235554 13.4768015,3.24235554 L4.10457721,3.24235554 Z M17.397621,15.5151048 C17.0646522,15.5151048 16.795242,15.2372458 16.795242,14.8938349 L16.795242,5.10653332 C16.795242,4.76312246 17.0646522,4.48526348 17.397621,4.48526348 C17.7305898,4.48526348 18,4.76312246 18,5.10653332 L18,14.8940191 C18,15.2372458 17.7305898,15.5151048 17.397621,15.5151048 Z M11.8910487,8.72809087 L5.69157982,8.72809087 C5.35861099,8.72809087 5.08920083,8.45023189 5.08920083,8.10682103 C5.08920083,7.76341017 5.35861099,7.4855512 5.69157982,7.4855512 L11.8910487,7.4855512 C12.2240175,7.4855512 12.4934277,7.76341017 12.4934277,8.10682103 C12.4932491,8.45023189 12.2240175,8.72809087 11.8910487,8.72809087 Z M8.4642371,12.5148171 L5.69157982,12.5148171 C5.35861099,12.5148171 5.08920083,12.2369581 5.08920083,11.8935472 C5.08920083,11.5501364 5.35861099,11.2722774 5.69157982,11.2722774 L8.4642371,11.2722774 C8.79720592,11.2722774 9.06661608,11.5501364 9.06661608,11.8935472 C9.06661608,12.2369581 8.79720592,12.5148171 8.4642371,12.5148171 Z" id="形状" fill="#0F88FF"></path>
                                        </g>
                                    </g>
                                </g>
                            </g>
                        </g>
                    </g>
                </g>
            </g>
        </g>
    </g>
</svg>