<?xml version="1.0" encoding="UTF-8"?>
<svg width="20px" height="20px" viewBox="0 0 20 20" version="1.1" xmlns="http://www.w3.org/2000/svg" xmlns:xlink="http://www.w3.org/1999/xlink">
    <!-- Generator: Sketch 59.1 (86144) - https://sketch.com -->
    <title>切片</title>
    <desc>Created with Sketch.</desc>
    <g id="云通知" stroke="none" stroke-width="1" fill="none" fill-rule="evenodd">
        <g id="个人号_云通知" transform="translate(-15.000000, -512.000000)">
            <g id="分组-copy-3" transform="translate(0.000000, 488.000000)">
                <g id="icon_数据统计" transform="translate(15.000000, 24.000000)">
                    <g>
                        <rect id="矩形" fill="#000000" fill-rule="nonzero" opacity="0" x="0" y="0" width="20" height="20"></rect>
                        <path d="M8.80705883,2.58809097 C9.05951578,2.58381662 9.30316087,2.68102188 9.48324415,2.8580079 C9.66332742,3.03499392 9.76474455,3.27691614 9.76470588,3.52941176 L9.76470588,10.2352941 L16.4705882,10.2352941 C16.9450197,10.2351313 17.345402,10.5881132 17.4047059,11.0588235 L17.4117647,11.1764706 C17.4117647,15.881804 13.6253025,19.7109484 8.92026751,19.7639494 C4.21523257,19.8169504 0.343589405,16.0740713 0.237478215,11.3699345 C0.131367025,6.66579761 3.83030193,2.75214904 8.53294117,2.59294117 L8.80705883,2.58809097 Z M7.88235295,4.53647059 L7.80470588,4.54823529 C4.35199755,5.09408484 1.89717096,8.19981702 2.16348318,11.6852473 C2.42979539,15.1706776 5.32797181,17.8674014 8.82352941,17.8823529 C12.1823529,17.8823529 14.9647059,15.4117647 15.4529412,12.1894118 L15.4623529,12.1176471 L8.82352941,12.1176471 C8.34909799,12.1178099 7.94871567,11.764828 7.88941176,11.2941177 L7.88235295,11.1764706 L7.88235295,4.53647059 Z M11.7647059,0.235294121 C16.0705882,0.235294121 19.6,3.64470588 19.76,7.95294117 L19.7647059,8.21764705 C19.7694441,8.470306 19.6723804,8.71425659 19.4953594,8.89459673 C19.3183384,9.07493686 19.0762328,9.1764706 18.8235294,9.1764706 L11.7647059,9.1764706 C11.2449085,9.1764706 10.8235294,8.75509153 10.8235294,8.23529412 L10.8235294,1.17647059 C10.8235294,0.656673178 11.2449085,0.235294121 11.7647059,0.235294121 L11.7647059,0.235294121 Z M12.7047059,2.18941176 L12.7047059,7.29411766 L17.8094118,7.29411766 L17.7529412,6.97647059 C17.233563,4.51542211 15.2623361,2.62211117 12.7823529,2.20235295 L12.7058823,2.18823529 L12.7047059,2.18941176 Z" id="形状" fill="#333333" fill-rule="nonzero"></path>
                        <rect id="矩形" fill="#0F88FF" transform="translate(6.000000, 12.000000) rotate(90.000000) translate(-6.000000, -12.000000) " x="3" y="11" width="6" height="2"></rect>
                    </g>
                </g>
            </g>
        </g>
    </g>
</svg>