<?xml version="1.0" encoding="UTF-8"?>
<svg width="200px" height="146px" viewBox="0 0 200 146" version="1.1" xmlns="http://www.w3.org/2000/svg" xmlns:xlink="http://www.w3.org/1999/xlink">
    <!-- Generator: Sketch 59.1 (86144) - https://sketch.com -->
    <title>切片</title>
    <desc>Created with Sketch.</desc>
    <defs>
        <radialGradient cx="50%" cy="0%" fx="50%" fy="0%" r="216.112013%" gradientTransform="translate(0.500000,0.000000),scale(0.160769,1.000000),translate(-0.500000,-0.000000)" id="radialGradient-1">
            <stop stop-color="#282828" offset="0%"></stop>
            <stop stop-color="#282828" offset="100%"></stop>
        </radialGradient>
        <linearGradient x1="26.3934442%" y1="-69.7041221%" x2="50%" y2="93.6754225%" id="linearGradient-2">
            <stop stop-color="#5E5E5E" offset="0%"></stop>
            <stop stop-color="#2E2E2E" offset="100%"></stop>
        </linearGradient>
        <linearGradient x1="50%" y1="0%" x2="50%" y2="81.6589355%" id="linearGradient-3">
            <stop stop-color="#414141" offset="0%"></stop>
            <stop stop-color="#717171" offset="100%"></stop>
        </linearGradient>
        <linearGradient x1="50%" y1="0%" x2="50%" y2="100%" id="linearGradient-4">
            <stop stop-color="#2F2F2F" offset="0%"></stop>
            <stop stop-color="#404042" offset="100%"></stop>
        </linearGradient>
        <linearGradient x1="-11.0579014%" y1="9.01009326%" x2="24.8905184%" y2="59.9596359%" id="linearGradient-5">
            <stop stop-color="#5E5E5E" offset="0%"></stop>
            <stop stop-color="#2D2D2D" offset="100%"></stop>
        </linearGradient>
        <linearGradient x1="38.8237537%" y1="40.4471229%" x2="50%" y2="61.2554292%" id="linearGradient-6">
            <stop stop-color="#2E2E2E" offset="0%"></stop>
            <stop stop-color="#707070" offset="100%"></stop>
        </linearGradient>
        <linearGradient x1="50%" y1="0%" x2="50%" y2="100%" id="linearGradient-7">
            <stop stop-color="#2E2E2E" offset="0%"></stop>
            <stop stop-color="#404042" offset="100%"></stop>
        </linearGradient>
    </defs>
    <g id="深色模式" stroke="none" stroke-width="1" fill="none" fill-rule="evenodd">
        <g id="个人号_无数据" transform="translate(-88.000000, -230.000000)">
            <g id="pic_black_数据统计" transform="translate(88.000000, 230.000000)">
                <g id="编组-7">
                    <g transform="translate(30.000000, 16.000000)">
                        <ellipse id="椭圆形" fill="url(#radialGradient-1)" opacity="0.80124628" cx="46.9245283" cy="103.915385" rx="30" ry="4.82307692"></ellipse>
                        <g id="编组-5">
                            <path d="M70.0503145,0 C79.99144,-1.82615513e-15 88.0503145,8.0588745 88.0503145,18 L88.0503145,89.4461538 L35.8490566,89.4461538 C24.8033616,89.4461538 15.8490566,80.4918488 15.8490566,69.4461538 L15.8490314,12.276 L8.80503145,12.2769231 L8.80503145,0 L70.0503145,0 Z" id="形状结合" fill="#717171"></path>
                            <path d="M71.8113208,0 C81.7524463,-1.82615513e-15 89.8113208,8.0588745 89.8113208,18 L89.8113208,89.4461538 L37.6100629,89.4461538 C26.5643679,89.4461538 17.6100629,80.4918488 17.6100629,69.4461538 L17.6100377,12.276 L10.5660377,12.2769231 L10.5660377,0 L71.8113208,0 Z" id="形状结合" fill="url(#linearGradient-2)"></path>
                            <path d="M8.80503145,0 C13.667916,-8.93297407e-16 17.6100629,3.94214686 17.6100629,8.80503145 L17.6100629,28.0615385 L17.6100629,28.0615385 L0,28.0615385 L0,8.80503145 C-5.95531605e-16,3.94214686 3.94214686,8.93297407e-16 8.80503145,0 Z" id="矩形" fill="url(#linearGradient-3)"></path>
                            <path d="M8.80503145,1.75384615 C12.6953391,1.75384615 15.8490566,4.90756364 15.8490566,8.79787131 L15.8490566,28.0615385 L15.8490566,28.0615385 L1.76100629,28.0615385 L1.76100629,8.79787131 C1.76100629,4.90756364 4.91472377,1.75384615 8.80503145,1.75384615 Z" id="矩形" fill="url(#linearGradient-4)"></path>
                            <path d="M120.067566,71.9076923 C129.727415,71.9076923 137.665018,79.5326086 138.053039,89.1846618 L139.045809,113.879948 L65.1572327,114 L65.1572138,79.7996923 L59.8742138,79.8 L59.8742138,71.9076923 L120.067566,71.9076923 Z" id="形状结合" fill="#686869"></path>
                            <path d="M120.948069,71.9076923 C130.607919,71.9076923 138.545522,79.5326086 138.933542,89.1846618 L139.926312,113.879948 L66.0377358,114 L66.037717,79.7996923 L60.754717,79.8 L60.754717,71.9076923 L120.948069,71.9076923 Z" id="形状结合" fill="url(#linearGradient-5)"></path>
                            <path d="M58.9992735,71.9076923 L59.6077458,71.9076923 C63.1589312,71.9076923 66.0377358,74.7864969 66.0377358,78.3376824 L66.0377358,88.4461538 L66.0377358,88.4461538 L33.4591195,88.4461538 L48.7173859,75.6487043 C51.5985734,73.2321878 55.2388489,71.9076923 58.9992735,71.9076923 Z" id="矩形" fill="url(#linearGradient-6)"></path>
                            <path d="M58.7040715,73.6615385 C62.268054,73.6615385 65.1572327,76.5507171 65.1572327,80.1146997 L65.1572327,89.4461538 L65.1572327,89.4461538 L36.1006289,89.4461538 L47.6358899,78.172068 C50.5944508,75.2804933 54.5671298,73.6615385 58.7040715,73.6615385 Z" id="矩形" fill="url(#linearGradient-7)"></path>
                            <g id="编组-4" transform="translate(35.220126, 41.215385)" fill="#FFFFFF" fill-opacity="0.18">
                                <rect id="矩形" x="30.8176101" y="0" width="6.16352201" height="22.8" rx="3.08176101"></rect>
                                <rect id="矩形" x="21.1320755" y="0" width="6.16352201" height="22.8" rx="3.08176101"></rect>
                                <rect id="矩形" x="10.5660377" y="0" width="6.16352201" height="22.8" rx="3.08176101"></rect>
                                <rect id="矩形" x="0" y="0" width="6.16352201" height="22.8" rx="3.08176101"></rect>
                            </g>
                            <polygon id="路径-10" fill-opacity="0.18" fill="#FFFFFF" points="30.8176101 36.8307692 45.8616352 25.8031612 55.0188679 36.8307692 72.0251572 18.9919916 76.6037736 23.8571128 76.6037736 13.1538462 63.5220126 13.1538462 68.427673 16.7216017 55.0188679 30.6682824 45.8616352 21.2623815"></polygon>
                        </g>
                        <path d="M96,46 C104.231655,41.4740396 109.393666,38.0833586 111.486034,35.827957 C119.947073,26.707646 119.552041,18.7679673 118.52514,13.5913978 C116.413408,2.94623656 99.7541899,11.2258065 106.793296,22.1075269 C111.516044,29.4083998 122.980658,23.4636812 130.726257,15.0107527 C134.525229,10.8648584 133.753343,5.58084747 138,2" id="路径-11" stroke="#575757" stroke-linecap="round" stroke-linejoin="round" stroke-dasharray="2" transform="translate(117.000000, 24.000000) rotate(-3.000000) translate(-117.000000, -24.000000) "></path>
                    </g>
                </g>
            </g>
        </g>
    </g>
</svg>