<?xml version="1.0" encoding="UTF-8"?>
<svg width="14px" height="14px" viewBox="0 0 14 14" version="1.1" xmlns="http://www.w3.org/2000/svg" xmlns:xlink="http://www.w3.org/1999/xlink">
    <!-- Generator: Sketch 59.1 (86144) - https://sketch.com -->
    <title>切片</title>
    <desc>Created with Sketch.</desc>
    <defs>
        <linearGradient x1="50%" y1="-75.9602865%" x2="50%" y2="100%" id="linearGradient-1">
            <stop stop-color="#FCAE0C" offset="0%"></stop>
            <stop stop-color="#FB9305" offset="100%"></stop>
        </linearGradient>
    </defs>
    <g id="云通知" stroke="none" stroke-width="1" fill="none" fill-rule="evenodd">
        <g id="个人号_次数充值" transform="translate(-59.000000, -350.000000)">
            <g id="编组-6" transform="translate(10.000000, 210.000000)">
                <g id="编组-2" transform="translate(15.000000, 57.000000)">
                    <g id="矩形">
                        <g id="编组-11" transform="translate(34.000000, 82.000000)">
                            <g id="icon_money2" transform="translate(0.000000, 1.000000)">
                                <g>
                                    <rect id="矩形" fill="#000000" fill-rule="nonzero" opacity="0" x="0" y="0" width="14" height="14"></rect>
                                    <path d="M7,13.5625 C3.37575,13.5625 0.4375,10.62425 0.4375,7 C0.4375,3.37575 3.37575,0.4375 7,0.4375 C10.62425,0.4375 13.5625,3.37575 13.5625,7 C13.5625,10.62425 10.62425,13.5625 7,13.5625 Z" id="路径" fill="url(#linearGradient-1)"></path>
                                    <path d="M7.4375,7.875 L9.1875,7.875 C9.42912458,7.875 9.625,8.07087542 9.625,8.3125 C9.625,8.55412458 9.42912458,8.75 9.1875,8.75 L7.4375,8.75 L7.4375,10.5 C7.4375,10.7416246 7.24162458,10.9375 7,10.9375 C6.75837542,10.9375 6.5625,10.7416246 6.5625,10.5 L6.5625,8.75 L4.8125,8.75 C4.57087542,8.75 4.375,8.55412458 4.375,8.3125 C4.375,8.07087542 4.57087542,7.875 4.8125,7.875 L6.5625,7.875 L6.5625,7 L4.8125,7 C4.57087542,7 4.375,6.80412458 4.375,6.5625 C4.375,6.32087542 4.57087542,6.125 4.8125,6.125 L6.381375,6.125 L4.6843125,4.4279375 C4.57058149,4.31809242 4.52496949,4.15542842 4.56500749,4.00246555 C4.6050455,3.84950267 4.72450267,3.7300455 4.87746555,3.69000749 C5.03042842,3.64996949 5.19309242,3.69558149 5.3029375,3.8093125 L7.01575,5.5216875 L8.728125,3.8093125 C8.83797008,3.69558149 9.00063408,3.64996949 9.15359695,3.69000749 C9.30655983,3.7300455 9.426017,3.84950267 9.46605501,4.00246555 C9.50609301,4.15542842 9.46048101,4.31809242 9.34675,4.4279375 L7.6496875,6.125 L9.1875,6.125 C9.42912458,6.125 9.625,6.32087542 9.625,6.5625 C9.625,6.80412458 9.42912458,7 9.1875,7 L7.4375,7 L7.4375,7.875 Z" id="路径" fill="#FFFFFF" fill-rule="nonzero"></path>
                                    <path d="M7.4375,7.875 L9.1875,7.875 C9.42912458,7.875 9.625,8.07087542 9.625,8.3125 C9.625,8.55412458 9.42912458,8.75 9.1875,8.75 L7.4375,8.75 L7.4375,10.5 C7.4375,10.7416246 7.24162458,10.9375 7,10.9375 C6.75837542,10.9375 6.5625,10.7416246 6.5625,10.5 L6.5625,8.75 L4.8125,8.75 C4.57087542,8.75 4.375,8.55412458 4.375,8.3125 C4.375,8.07087542 4.57087542,7.875 4.8125,7.875 L6.5625,7.875 L6.5625,7 L4.8125,7 C4.57087542,7 4.375,6.80412458 4.375,6.5625 C4.375,6.32087542 4.57087542,6.125 4.8125,6.125 L6.381375,6.125 L4.6843125,4.4279375 C4.57058149,4.31809242 4.52496949,4.15542842 4.56500749,4.00246555 C4.6050455,3.84950267 4.72450267,3.7300455 4.87746555,3.69000749 C5.03042842,3.64996949 5.19309242,3.69558149 5.3029375,3.8093125 L7.01575,5.5216875 L8.728125,3.8093125 C8.83797008,3.69558149 9.00063408,3.64996949 9.15359695,3.69000749 C9.30655983,3.7300455 9.426017,3.84950267 9.46605501,4.00246555 C9.50609301,4.15542842 9.46048101,4.31809242 9.34675,4.4279375 L7.6496875,6.125 L9.1875,6.125 C9.42912458,6.125 9.625,6.32087542 9.625,6.5625 C9.625,6.80412458 9.42912458,7 9.1875,7 L7.4375,7 L7.4375,7.875 Z" id="路径" fill="#FFFFFF" fill-rule="nonzero"></path>
                                </g>
                            </g>
                        </g>
                    </g>
                </g>
            </g>
        </g>
    </g>
</svg>