<?xml version="1.0" encoding="UTF-8"?>
<svg width="20px" height="20px" viewBox="0 0 20 20" version="1.1" xmlns="http://www.w3.org/2000/svg" xmlns:xlink="http://www.w3.org/1999/xlink">
    <!-- Generator: Sketch 59.1 (86144) - https://sketch.com -->
    <title>切片</title>
    <desc>Created with Sketch.</desc>
    <g id="深色模式" stroke="none" stroke-width="1" fill="none" fill-rule="evenodd">
        <g id="个人号_云通知备" transform="translate(-30.000000, -386.000000)">
            <g id="编组-2" transform="translate(15.000000, 142.000000)">
                <g id="分组-copy-3" transform="translate(0.000000, 220.000000)">
                    <g id="icon_black_通知" transform="translate(15.000000, 24.000000)">
                        <g>
                            <rect id="矩形" fill="#000000" fill-rule="nonzero" opacity="0" x="0" y="0" width="20" height="20"></rect>
                            <g id="编组-5" transform="translate(1.000000, 1.000000)">
                                <polygon id="路径-2" fill="#1A1A1A" points="1.5 6 1.5 13 4 13 10.5 17.5 10.5 1.5 4 6"></polygon>
                                <path d="M9.73058203,0 C10.7967656,0 11.6641758,0.834125977 11.6641758,1.8594209 L11.671875,17.1401709 C11.671875,18.165874 10.8044648,19 9.73828125,19 L9.4160918,19 L4.04296875,15.0664062 L1.93359375,15.0664062 C0.867410156,15.0664062 0,14.1508066 0,13.0253906 L0,5.97460938 C0,4.84919336 0.867410156,3.93359375 1.93359375,3.93359375 L4.09570312,3.93359375 L4.095,3.939 L9.40621289,0 L9.73058203,0 Z M9.90073828,1.81713477 L4.09570312,5.7890625 L1.93359375,5.7890625 C1.83666797,5.7890625 1.7578125,5.87229883 1.7578125,5.97460938 L1.7578125,13.0253906 C1.7578125,13.1277012 1.83666797,13.2109375 1.93359375,13.2109375 L4.09570312,13.2109375 L4.095,13.246 L9.90782227,17.1852773 C9.91195962,17.1707797 9.91406203,17.1557203 9.9140625,17.1405791 L9.90636328,1.85984766 C9.90636328,1.84509668 9.90441211,1.83079102 9.90073828,1.81713477 Z M13.7982988,4.26950781 C15.1844922,4.26950781 16.487752,4.83932227 17.4679609,5.8739873 C18.4481699,6.90865234 18.9879941,8.28429687 18.9879941,9.74751953 C18.9879941,11.2107422 18.4481699,12.5864053 17.4679609,13.6210703 C16.487752,14.6557354 15.1844922,15.2255498 13.7982988,15.2255498 L13.7982988,13.3700811 C15.6906367,13.3700811 17.2301641,11.7450059 17.2301641,9.74751953 C17.2301641,7.75005176 15.6906367,6.12497656 13.7982988,6.12497656 L13.7982988,4.26950781 Z M13.2665781,6.60728711 C14.9069688,6.60728711 16.2415352,8.01599609 16.2415352,9.74751953 C16.2415352,11.4790615 14.9069688,12.8877705 13.2665781,12.8877705 L13.2665781,11.0323018 C13.9377285,11.0323018 14.4837227,10.4559375 14.4837227,9.74751953 C14.4837227,9.03910156 13.9377109,8.46275586 13.2665781,8.46275586 L13.2665781,6.60728711 Z" id="形状" fill-opacity="0.87" fill="#FFFFFF" fill-rule="nonzero"></path>
                                <rect id="矩形" fill="#0F88FF" transform="translate(8.000000, 9.000000) rotate(90.000000) translate(-8.000000, -9.000000) " x="5" y="8" width="6" height="2"></rect>
                            </g>
                        </g>
                    </g>
                </g>
            </g>
        </g>
    </g>
</svg>