<?xml version="1.0" encoding="UTF-8"?>
<svg width="50px" height="50px" viewBox="0 0 50 50" version="1.1" xmlns="http://www.w3.org/2000/svg" xmlns:xlink="http://www.w3.org/1999/xlink">
    <!-- Generator: Sketch 52.2 (67145) - http://www.bohemiancoding.com/sketch -->
    <title>icon_soundrecording</title>
    <desc>Created with Sketch.</desc>
    <g id="icon_soundrecording" stroke="none" stroke-width="1" fill="none" fill-rule="evenodd">
        <g>
            <rect id="矩形" x="0" y="0" width="50" height="50"></rect>
            <g id="分组-19" transform="translate(9.000000, 8.000000)" fill-rule="nonzero">
                <path d="M20.4908088,28.1926767 L20.4908088,30.78125 C20.4908088,31.454347 19.9451559,32 19.2720588,32 C18.5989618,32 18.0533088,31.454347 18.0533088,30.78125 L18.0533088,28.1926767 C13.5084645,27.5959533 10,23.7076996 10,19 L10,18.1875 C10,17.5539969 10.5135557,17.0404412 11.1470588,17.0404412 C11.7805619,17.0404412 12.2941176,17.5539969 12.2941176,18.1875 L12.2941176,19 C12.2941176,22.8538105 15.4182483,25.9779412 19.2720588,25.9779412 C23.1258693,25.9779412 26.25,22.8538105 26.25,19 L26.25,18.1875 C26.25,17.5539969 26.7635557,17.0404412 27.3970588,17.0404412 C28.0305619,17.0404412 28.5441176,17.5539969 28.5441176,18.1875 L28.5441176,19 C28.5441176,23.7076996 25.0356532,27.5959533 20.4908088,28.1926767 Z M19.2720588,6 C21.5157156,6 23.3345588,7.8188432 23.3345588,10.0625 L23.3345588,19 C23.3345588,21.2436568 21.5157156,23.0625 19.2720588,23.0625 C17.028402,23.0625 15.2095588,21.2436568 15.2095588,19 L15.2095588,10.0625 C15.2095588,7.8188432 17.028402,6 19.2720588,6 Z" id="合并形状" fill="#E8E9EB"></path>
                <g id="分组-18" fill="#0F88FF">
                    <g id="分组-8" transform="translate(0.000000, 0.750000)">
                        <path d="M14.21875,29.0211926 L14.21875,32.40625 C14.21875,33.2864538 13.5052038,34 12.625,34 C11.7447962,34 11.03125,33.2864538 11.03125,32.40625 L11.03125,29.0211926 C5.08799201,28.240862 0.5,23.1562225 0.5,17 L0.5,15.9375 C0.5,15.1090729 1.17157288,14.4375 2,14.4375 C2.82842712,14.4375 3.5,15.1090729 3.5,15.9375 L3.5,17 C3.5,22.0395983 7.58540166,26.125 12.625,26.125 C17.6645983,26.125 21.75,22.0395983 21.75,17 L21.75,15.9375 C21.75,15.1090729 22.4215729,14.4375 23.25,14.4375 C24.0784271,14.4375 24.75,15.1090729 24.75,15.9375 L24.75,17 C24.75,23.1562225 20.162008,28.240862 14.21875,29.0211926 Z M12.625,0 C15.5590127,-5.38969395e-16 17.9375,2.37848727 17.9375,5.3125 L17.9375,17 C17.9375,19.9340127 15.5590127,22.3125 12.625,22.3125 C9.69098727,22.3125 7.3125,19.9340127 7.3125,17 L7.3125,5.3125 C7.3125,2.37848727 9.69098727,5.38969395e-16 12.625,0 Z" id="形状"></path>
                    </g>
                </g>
            </g>
        </g>
    </g>
</svg>