<?xml version="1.0" encoding="UTF-8"?>
<svg width="58px" height="58px" viewBox="0 0 58 58" version="1.1" xmlns="http://www.w3.org/2000/svg" xmlns:xlink="http://www.w3.org/1999/xlink">
    <!-- Generator: Sketch 59.1 (86144) - https://sketch.com -->
    <title>切片</title>
    <desc>Created with Sketch.</desc>
    <g id="2-11_优化" stroke="none" stroke-width="1" fill="none" fill-rule="evenodd">
        <g id="使用说明" transform="translate(-66.000000, -503.000000)">
            <g id="编组-4" transform="translate(10.000000, 486.000000)">
                <g id="编组-3" transform="translate(44.000000, 17.000000)">
                    <g id="icon_instructions_Personalcenter" transform="translate(12.000000, 0.000000)">
                        <g>
                            <circle id="椭圆形" fill-opacity="0.1" fill="#0F88FF" cx="29" cy="29" r="29"></circle>
                            <g id="tab_item_me_selected" transform="translate(17.000000, 17.000000)">
                                <rect id="矩形-copy-19" x="0" y="0" width="24" height="24"></rect>
                                <g id="分组-14" transform="translate(3.000000, 2.000000)" fill="#0F88FF">
                                    <circle id="椭圆形" cx="9" cy="5" r="5"></circle>
                                    <path d="M4.5,11 L13.5,11 C15.9852814,11 18,13.0147186 18,15.5 L18,19 C18,19.5522847 17.5522847,20 17,20 L1,20 C0.44771525,20 6.76353751e-17,19.5522847 0,19 L0,15.5 C-3.04359188e-16,13.0147186 2.01471863,11 4.5,11 Z" id="矩形"></path>
                                </g>
                            </g>
                        </g>
                    </g>
                </g>
            </g>
        </g>
    </g>
</svg>