<?xml version="1.0" encoding="UTF-8"?>
<svg width="160px" height="160px" viewBox="0 0 160 160" version="1.1" xmlns="http://www.w3.org/2000/svg" xmlns:xlink="http://www.w3.org/1999/xlink">
    <!-- Generator: Sketch 52.2 (67145) - http://www.bohemiancoding.com/sketch -->
    <title>pic_无通话记录</title>
    <desc>Created with Sketch.</desc>
    <defs>
        <linearGradient x1="-2.04096064%" y1="0%" x2="111.750257%" y2="126.112885%" id="linearGradient-1">
            <stop stop-color="#414243" offset="0%"></stop>
            <stop stop-color="#1B1B1B" stop-opacity="0.0230678611" offset="100%"></stop>
            <stop stop-color="#1A1A1A" stop-opacity="0" offset="100%"></stop>
        </linearGradient>
        <linearGradient x1="50%" y1="14.3195419%" x2="50%" y2="97.5333593%" id="linearGradient-2">
            <stop stop-color="#47484A" offset="0%"></stop>
            <stop stop-color="#2D2D2D" offset="100%"></stop>
        </linearGradient>
    </defs>
    <g id="pic_无通话记录" stroke="none" stroke-width="1" fill="none" fill-rule="evenodd">
        <g>
            <rect id="矩形" x="0" y="0" width="160" height="160"></rect>
            <g id="分组-5" transform="translate(27.000000, 31.000000)">
                <path d="M69.3818614,79.0061016 C69.4906722,88.0243432 74.7957443,91.2859479 85.2970775,88.7909155 C101.049077,85.048367 102.775361,85.7360515 104.515246,88.7909155 C106.255132,91.8457796 98.7397997,103.360173 104.515246,103.935693 C110.290693,104.511214 116.293552,91.535514 119.077947,95.3786629" id="路径-2" stroke="url(#linearGradient-1)" stroke-width="2" stroke-linecap="round" transform="translate(94.229904, 91.480214) rotate(-15.000000) translate(-94.229904, -91.480214) "></path>
                <g id="分组" transform="translate(44.284610, 52.703194) rotate(-300.000000) translate(-44.284610, -52.703194) translate(-2.715390, 28.703194)">
                    <path d="M14,36.424192 L28.1633628,22 C33.4213917,25.694062 37.5816814,28.3016953 46,28.3016953 C54.4183186,28.3016953 58.5786083,25.694062 63.8366372,22 L78,36.424192 L46,40 L14,36.424192 Z" id="路径" fill="#505050"></path>
                    <path d="M65.2380244,29.2889527 C62.8690343,23.8266471 61.9269873,19.1364111 62.4118834,15.2182447 L90.7888181,10.925364 C91.7475217,21.3834096 88.5276834,31.1586033 80.7430028,36.8117699 C69.065982,45.2915197 56.6705345,47.2814062 46,47.2814062 C35.3294655,47.2814062 22.934018,45.2915197 11.2569972,36.8117699 C3.47231664,31.1586033 0.0593281794,23.1029973 1.01803181,12.6449517 L29.8845143,12.0021477 C30.3823261,16.0246784 29.2890335,21.8064012 26.6046363,29.3473164 L26.6046377,29.3473169 C26.2887073,30.2348175 26.6349465,31.2224656 27.4358771,31.718429 C33.6239181,35.5502738 39.811959,37.4661962 46,37.4661962 C52.1504906,37.4661962 58.3009812,35.5734557 64.4514717,31.7879748 L64.4514681,31.7879689 C65.2986922,31.2665225 65.633858,30.201647 65.2380244,29.2889527 Z" id="路径" fill="url(#linearGradient-2)"></path>
                    <ellipse id="椭圆形" fill="#4F4F4F" cx="15.5" cy="13" rx="14.5" ry="10"></ellipse>
                    <ellipse id="椭圆形" fill="#333333" cx="15.5" cy="12.5" rx="12.5" ry="8.5"></ellipse>
                    <path d="M15.5,13.5 C14.6715729,13.5 14,12.9403559 14,12.25 C14,11.5596441 14.6715729,11 15.5,11 C16.3284271,11 17,11.5596441 17,12.25 C17,12.9403559 16.3284271,13.5 15.5,13.5 Z M21.5,11.5 C20.6715729,11.5 20,10.9403559 20,10.25 C20,9.55964406 20.6715729,9 21.5,9 C22.3284271,9 23,9.55964406 23,10.25 C23,10.9403559 22.3284271,11.5 21.5,11.5 Z M19.5,16.5 C18.6715729,16.5 18,15.9403559 18,15.25 C18,14.5596441 18.6715729,14 19.5,14 C20.3284271,14 21,14.5596441 21,15.25 C21,15.9403559 20.3284271,16.5 19.5,16.5 Z M12.5,17.5 C11.6715729,17.5 11,16.9403559 11,16.25 C11,15.5596441 11.6715729,15 12.5,15 C13.3284271,15 14,15.5596441 14,16.25 C14,16.9403559 13.3284271,17.5 12.5,17.5 Z M9.5,13.5 C8.67157288,13.5 8,12.9403559 8,12.25 C8,11.5596441 8.67157288,11 9.5,11 C10.3284271,11 11,11.5596441 11,12.25 C11,12.9403559 10.3284271,13.5 9.5,13.5 Z M11.5,9.5 C10.6715729,9.5 10,8.94035594 10,8.25 C10,7.55964406 10.6715729,7 11.5,7 C12.3284271,7 13,7.55964406 13,8.25 C13,8.94035594 12.3284271,9.5 11.5,9.5 Z M16.5,8.50214775 C15.6715729,8.50214775 15,7.94250368 15,7.25214775 C15,6.56179181 15.6715729,6.00214775 16.5,6.00214775 C17.3284271,6.00214775 18,6.56179181 18,7.25214775 C18,7.94250368 17.3284271,8.50214775 16.5,8.50214775 Z" id="合并形状" fill="#FFFFFF" opacity="0.38"></path>
                    <ellipse id="椭圆形" fill="#4F4F4F" transform="translate(76.603956, 13.489074) scale(-1, 1) rotate(15.000000) translate(-76.603956, -13.489074) " cx="76.6039558" cy="13.4890738" rx="14.5" ry="9.5"></ellipse>
                    <ellipse id="椭圆形" fill="#333333" transform="translate(76.603749, 12.987261) scale(-1, 1) rotate(13.000000) translate(-76.603749, -12.987261) " cx="76.6037493" cy="12.9872612" rx="12.5" ry="8"></ellipse>
                    <path d="M76.3276844,13.5 C75.4992572,13.5 74.8276844,12.9403559 74.8276844,12.25 C74.8276844,11.5596441 75.4992572,11 76.3276844,11 C77.1561115,11 77.8276844,11.5596441 77.8276844,12.25 C77.8276844,12.9403559 77.1561115,13.5 76.3276844,13.5 Z M82.3276844,11.5 C81.4992572,11.5 80.8276844,10.9403559 80.8276844,10.25 C80.8276844,9.55964406 81.4992572,9 82.3276844,9 C83.1561115,9 83.8276844,9.55964406 83.8276844,10.25 C83.8276844,10.9403559 83.1561115,11.5 82.3276844,11.5 Z M77.3276844,8.5 C76.4992572,8.5 75.8276844,7.94035594 75.8276844,7.25 C75.8276844,6.55964406 76.4992572,6 77.3276844,6 C78.1561115,6 78.8276844,6.55964406 78.8276844,7.25 C78.8276844,7.94035594 78.1561115,8.5 77.3276844,8.5 Z M72.3276844,10.5 C71.4992572,10.5 70.8276844,9.94035594 70.8276844,9.25 C70.8276844,8.55964406 71.4992572,8 72.3276844,8 C73.1561115,8 73.8276844,8.55964406 73.8276844,9.25 C73.8276844,9.94035594 73.1561115,10.5 72.3276844,10.5 Z M70.3276844,15.5 C69.4992572,15.5 68.8276844,14.9403559 68.8276844,14.25 C68.8276844,13.5596441 69.4992572,13 70.3276844,13 C71.1561115,13 71.8276844,13.5596441 71.8276844,14.25 C71.8276844,14.9403559 71.1561115,15.5 70.3276844,15.5 Z M74.3276844,18.5 C73.4992572,18.5 72.8276844,17.9403559 72.8276844,17.25 C72.8276844,16.5596441 73.4992572,16 74.3276844,16 C75.1561115,16 75.8276844,16.5596441 75.8276844,17.25 C75.8276844,17.9403559 75.1561115,18.5 74.3276844,18.5 Z M80.3276844,16.5 C79.4992572,16.5 78.8276844,15.9403559 78.8276844,15.25 C78.8276844,14.5596441 79.4992572,14 80.3276844,14 C81.1561115,14 81.8276844,14.5596441 81.8276844,15.25 C81.8276844,15.9403559 81.1561115,16.5 80.3276844,16.5 Z" id="合并形状" fill="#FFFFFF" opacity="0.38"></path>
                </g>
                <ellipse id="椭圆形" fill="#A5ACB9" opacity="0.103236607" cx="53" cy="114" rx="30" ry="4"></ellipse>
            </g>
        </g>
    </g>
</svg>