<?xml version="1.0" encoding="UTF-8"?>
<svg width="22px" height="22px" viewBox="0 0 22 22" version="1.1" xmlns="http://www.w3.org/2000/svg" xmlns:xlink="http://www.w3.org/1999/xlink">
    <!-- Generator: Sketch 52.2 (67145) - http://www.bohemiancoding.com/sketch -->
    <title>list_choice_phone</title>
    <desc>Created with Sketch.</desc>
    <g id="list_choice_phone" stroke="none" stroke-width="1" fill="none" fill-rule="evenodd" opacity="0.87">
        <g id="btn_number_mobilephone">
            <g>
                <g>
                    <g>
                        <rect id="矩形" x="0" y="0" width="22" height="22"></rect>
                        <path d="M6.5,16.1333333 L15.5,16.1333333 L15.5,3.33333333 C15.5,3.05719096 15.2761424,2.83333333 15,2.83333333 L7,2.83333333 C6.72385763,2.83333333 6.5,3.05719096 6.5,3.33333333 L6.5,16.1333333 Z M7,0.833333333 L15,0.833333333 C16.3807119,0.833333333 17.5,1.95262146 17.5,3.33333333 L17.5,18.2083333 C17.5,19.5890452 16.3807119,20.7083333 15,20.7083333 L7,20.7083333 C5.61928813,20.7083333 4.5,19.5890452 4.5,18.2083333 L4.5,3.33333333 C4.5,1.95262146 5.61928813,0.833333333 7,0.833333333 Z M9.91666667,18.0270833 C9.5024531,18.0270833 9.16666667,18.3628698 9.16666667,18.7770833 C9.16666667,19.1912969 9.5024531,19.5270833 9.91666667,19.5270833 L12.0833333,19.5270833 C12.4975469,19.5270833 12.8333333,19.1912969 12.8333333,18.7770833 C12.8333333,18.3628698 12.4975469,18.0270833 12.0833333,18.0270833 L9.91666667,18.0270833 Z" id="合并形状" fill="#FFFFFF" fill-rule="nonzero"></path>
                    </g>
                </g>
            </g>
        </g>
    </g>
</svg>