<?xml version="1.0" encoding="UTF-8"?>
<svg width="14px" height="14px" viewBox="0 0 14 14" version="1.1" xmlns="http://www.w3.org/2000/svg" xmlns:xlink="http://www.w3.org/1999/xlink">
    <!-- Generator: Sketch 52.2 (67145) - http://www.bohemiancoding.com/sketch -->
    <title>list_icon_missedcall</title>
    <desc>Created with Sketch.</desc>
    <defs>
        <rect id="path-1" x="0" y="0" width="14" height="14"></rect>
    </defs>
    <g id="list_icon_missedcall" stroke="none" stroke-width="1" fill="none" fill-rule="evenodd">
        <g>
            <mask id="mask-2" fill="white">
                <use xlink:href="#path-1"></use>
            </mask>
            <g id="Mask"></g>
            <path d="M8.65673819,3.48817224 L7.57552016,2.40695421 L11.7727273,2 L11.3657731,6.19720711 L10.284555,5.11598908 L8.62781685,6.77272727 L7,5.14491043 L8.65673819,3.48817224 Z M8.62002659,9.87631387 L9.21530002,8.93047084 C9.35621183,8.70657296 9.64677896,8.63068734 9.87384002,8.75848403 L12.3952221,10.1775925 C12.5683583,10.2750387 12.6628651,10.4691414 12.6338357,10.6676687 C12.5300887,11.3771771 12.1349043,12.0062806 11.4482826,12.5549793 C9.6745405,13.8395339 6.41502905,12.6576697 3.94974747,10.1923882 C1.48446589,7.72710657 0.302601692,4.46759513 1.58715631,2.69385298 C2.13585502,2.00723128 2.76495854,1.61204694 3.47446687,1.50829997 C3.67299424,1.47927055 3.8670969,1.57377733 3.96454308,1.74691353 L5.38365159,4.2682956 C5.51144828,4.49535666 5.43556266,4.78592379 5.21166479,4.92683561 L4.26582176,5.52210903 C3.78189619,6.26815064 4.25737521,7.70765799 5.34592642,8.7962092 C6.43447763,9.88476041 7.87398499,10.3602394 8.62002659,9.87631387 Z" id="合并形状" fill="#999999" mask="url(#mask-2)"></path>
        </g>
    </g>
</svg>