<?xml version="1.0" encoding="UTF-8"?>
<svg width="90px" height="90px" viewBox="0 0 90 90" version="1.1" xmlns="http://www.w3.org/2000/svg" xmlns:xlink="http://www.w3.org/1999/xlink">
    <!-- Generator: Sketch 52.2 (67145) - http://www.bohemiancoding.com/sketch -->
    <title>logo</title>
    <desc>Created with Sketch.</desc>
    <defs>
        <linearGradient x1="50%" y1="0%" x2="50%" y2="93.6902839%" id="linearGradient-1">
            <stop stop-color="#2593FF" offset="0%"></stop>
            <stop stop-color="#1088FF" offset="41.4937433%"></stop>
            <stop stop-color="#0076EB" offset="100%"></stop>
        </linearGradient>
    </defs>
    <g id="logo" stroke="none" stroke-width="1" fill="none" fill-rule="evenodd">
        <g>
            <rect id="矩形" x="0" y="0" width="90" height="90"></rect>
            <path d="M36.7988924,5.47421832 C12.3668324,11.1878306 -3.76757078,31.8510119 0.761719828,51.6264964 C2.55659356,59.463488 7.32786489,65.9845017 13.954592,70.6467831 C14.1687722,74.7527323 13.6527242,82.7614342 6.57562803,83.9896256 C6.2040272,84.070155 5.8192211,84.7161465 6.52651371,85.0551193 C9.19513592,86.3338757 18.7273692,90.5877744 31.2166555,77.7141799 C38.0912709,78.9862645 45.599855,78.8654703 53.2011076,77.0878526 C77.6331676,71.3742404 93.7675708,50.7111761 89.2382802,30.9355745 C84.7089896,11.159973 61.2310681,-0.239393907 36.7988924,5.47421832 Z" id="Fill-1" fill="url(#linearGradient-1)"></path>
            <path d="M65.7778436,45.9821554 L65.7778436,49.7237684 C65.7778436,50.4186804 65.5344381,50.7661364 65.0477304,50.7661364 L58.0716903,50.7661364 L58.0716903,45.9821554 L65.7778436,45.9821554 Z M63.8851259,34.0623021 L67.2650232,34.0623021 C68.2202631,34.0623021 68.9591542,33.7775071 69.4822126,33.2070968 C70.0230333,32.6016127 70.3382109,31.5325804 70.4285714,30 L66.9405514,30 C66.7419647,30.6238415 66.3904364,30.9354032 65.8859664,30.9354032 L54.3942746,30.9354032 L54.3942746,34.0623021 L60.0995874,34.0623021 L60.0995874,36.7884164 L53.2316701,36.7884164 L53.2316701,40.0222801 L60.0995874,40.0222801 L60.0995874,42.8284898 L54.2861517,42.8284898 L54.2861517,53.9198021 L66.8593818,53.9198021 C68.6799143,53.9198021 69.5903354,53.0466497 69.5903354,51.3006525 L69.5903354,42.8284898 L63.8851259,42.8284898 L63.8851259,40.0222801 L70.3204486,40.0222801 L70.3204486,36.7884164 L63.8851259,36.7884164 L63.8851259,34.0623021 Z M51.4200187,50.1514223 L51.4200187,37.5099927 L46.1473006,37.5099927 L46.1473006,41.0645455 L47.7156497,41.0645455 L47.7156497,52.4498827 C47.7156497,53.4830208 48.247073,54 49.3109521,54 L53.0153211,54 L53.0153211,50.7661364 L51.8255568,50.7661364 C51.5551981,50.7661364 51.4200187,50.5615393 51.4200187,50.1514223 Z M47.5263573,34.91761 L51.6363677,34.91761 L51.6363677,30.1068622 L47.5263573,30.1068622 L47.5263573,34.91761 Z M40.4420911,30.2137244 L37.0621939,30.2137244 L35.8724296,34.570154 C35.7101937,35.1405643 35.511607,35.4253593 35.277599,35.4253593 L35.277599,30.7215763 L32.7358346,30.7215763 L32.7358346,34.91761 C32.7358346,35.2562462 32.591361,35.4253593 32.3032399,35.4253593 L31.7894757,35.4253593 L31.7894757,30 L28.9233427,30 L28.9233427,35.4253593 L27.9769839,35.4253593 L27.9769839,30.7215763 L25.4353227,30.7215763 L25.4353227,37.2159678 L22.0823787,37.2159678 C22.6409617,36.9487097 23.0646752,36.4141936 23.3533126,35.6124194 L25.4353227,30.2137244 L21.5416612,30.2137244 L20.5682459,33.1002346 C20.3696592,33.6706449 20.0544817,33.9554399 19.621887,33.9554399 L19,33.9554399 L19,37.4031305 L21.1089633,37.4031305 C21.3071369,37.4031305 21.5053105,37.3855936 21.7038971,37.3495968 L20.6493122,40.1023754 C20.4507255,40.6728883 20.1085947,40.9576833 19.621887,40.9576833 L19,40.9576833 L19,44.4053739 L20.0544817,44.4053739 L20.0544817,54 L23.6507278,54 L23.6507278,42.1603446 L25.4353227,37.7238197 L25.4353227,38.365198 L32.7358346,38.365198 C33.5107665,38.365198 34.105597,38.151371 34.5204294,37.7238197 L34.5204294,38.4453959 L37.1703167,38.4453959 C37.6206736,38.4453959 37.9451454,38.1071699 38.1437321,37.4297948 L38.8737419,35.1046701 L43.7137622,35.1046701 L43.7137622,32.1914956 L39.820204,32.1914956 L40.4420911,30.2137244 Z M40.333865,36.4676247 L39.0090246,41.0913123 L38.3330245,39.3006012 L34.9531273,39.3006012 L37.5489015,46.1692156 L36.3320807,50.3652493 C36.2057825,50.7753663 36.0253712,50.9799633 35.7913633,50.9799633 L35.6831371,50.9799633 L35.6831371,50.5790762 L34.9531273,50.5790762 C34.5923047,50.5790762 34.4123065,50.3652493 34.4123065,49.9375953 L34.4123065,43.7906598 L25.7597944,43.7906598 L25.7597944,50.2582845 C25.7597944,50.8108503 25.5523266,51.0868255 25.1378041,51.0868255 L24.4889638,51.0868255 L24.4889638,53.9198021 L25.7597944,53.9198021 C27.868861,53.9198021 28.9233427,52.8683067 28.9233427,50.7661364 L28.9233427,46.4899048 L31.2487583,46.4899048 L31.2487583,51.3006525 C31.2487583,52.6903739 31.9517116,53.3852859 33.3578249,53.3852859 L35.277599,53.3852859 L35.277599,54 L37.6840809,54 C38.5130227,54 39.0807967,53.3673388 39.3875061,52.1024267 L39.549742,51.5144795 L39.7119779,51.9153666 C40.1265005,53.305088 40.8294538,54 41.8210445,54 L43.7137622,54 L43.7137622,51.0868255 L43.2811676,51.0868255 C42.9566958,51.0868255 42.7133936,50.8822285 42.5511577,50.4721115 L40.9828085,46.3296114 L43.7137622,36.4676247 L40.333865,36.4676247 Z M25.8679173,42.4276027 L34.3041837,42.4276027 L34.3041837,39.5946261 L25.8679173,39.5946261 L25.8679173,42.4276027 Z" id="Fill-1" fill="#FFFFFF"></path>
        </g>
    </g>
</svg>