<?xml version="1.0" encoding="UTF-8"?>
<svg width="20px" height="20px" viewBox="0 0 20 20" version="1.1" xmlns="http://www.w3.org/2000/svg" xmlns:xlink="http://www.w3.org/1999/xlink">
    <!-- Generator: Sketch 59.1 (86144) - https://sketch.com -->
    <title>切片</title>
    <desc>Created with Sketch.</desc>
    <g id="云通知" stroke="none" stroke-width="1" fill="none" fill-rule="evenodd">
        <g id="个人号_发送通知_添加" transform="translate(-330.000000, -558.000000)">
            <g id="编组" transform="translate(10.000000, 499.000000)">
                <g id="编组-3" transform="translate(0.000000, 37.000000)">
                    <g id="manage_delete2" transform="translate(320.000000, 22.000000)">
                        <g id="manage_delete">
                            <g>
                                <rect id="矩形" x="0" y="0" width="20" height="20"></rect>
                                <g id="分组-4" transform="translate(2.000000, 2.000000)">
                                    <rect id="矩形" stroke="#666666" x="0.5" y="2.75" width="15" height="1" rx="0.5"></rect>
                                    <path d="M5,3 L5,1 C5,0.44771525 5.44771525,1.01453063e-16 6,0 L10,0 C10.5522847,-1.01453063e-16 11,0.44771525 11,1 L11,3 L11,3" id="路径" stroke="#666666" stroke-width="1.5"></path>
                                    <path d="M2,16 L2,8 C2,6.8954305 2.8954305,6 4,6 L12,6 C13.1045695,6 14,6.8954305 14,8 L14,16 L14,16" id="路径-copy" stroke="#666666" stroke-width="1.5" stroke-linecap="round" transform="translate(8.000000, 11.000000) rotate(-180.000000) translate(-8.000000, -11.000000) "></path>
                                    <rect id="矩形" fill="#666666" x="5" y="6" width="1.5" height="7.3125"></rect>
                                    <rect id="矩形-copy-2" fill="#666666" x="9" y="6" width="1.5" height="7.3125"></rect>
                                </g>
                            </g>
                        </g>
                    </g>
                </g>
            </g>
        </g>
    </g>
</svg>