<?xml version="1.0" encoding="UTF-8"?>
<svg width="20px" height="20px" viewBox="0 0 20 20" version="1.1" xmlns="http://www.w3.org/2000/svg" xmlns:xlink="http://www.w3.org/1999/xlink">
    <!-- Generator: Sketch 52.2 (67145) - http://www.bohemiancoding.com/sketch -->
    <title>manage_add</title>
    <desc>Created with Sketch.</desc>
    <g id="manage_add" stroke="none" stroke-width="1" fill="none" fill-rule="evenodd">
        <g>
            <rect id="矩形" x="0" y="0" width="20" height="20"></rect>
            <circle id="椭圆形" stroke="#0F88FF" stroke-width="1.5" cx="10" cy="10" r="8.25"></circle>
            <path d="M9.25,9.25 L9.25,6.75 C9.25,6.33578644 9.58578644,6 10,6 C10.4142136,6 10.75,6.33578644 10.75,6.75 L10.75,9.25 L13.25,9.25 C13.6642136,9.25 14,9.58578644 14,10 C14,10.4142136 13.6642136,10.75 13.25,10.75 L10.75,10.75 L10.75,13.25 C10.75,13.6642136 10.4142136,14 10,14 C9.58578644,14 9.25,13.6642136 9.25,13.25 L9.25,10.75 L6.75,10.75 C6.33578644,10.75 6,10.4142136 6,10 C6,9.58578644 6.33578644,9.25 6.75,9.25 L9.25,9.25 Z" id="合并形状" fill="#0F88FF"></path>
        </g>
    </g>
</svg>