<?xml version="1.0" encoding="UTF-8"?>
<svg width="240px" height="170px" viewBox="0 0 240 170" version="1.1" xmlns="http://www.w3.org/2000/svg" xmlns:xlink="http://www.w3.org/1999/xlink">
    <!-- Generator: Sketch 59.1 (86144) - https://sketch.com -->
    <title>切片</title>
    <desc>Created with Sketch.</desc>
    <g id="深色模式" stroke="none" stroke-width="1" fill="none" fill-rule="evenodd">
        <g id="发现_引导企业认证" transform="translate(-67.000000, -452.000000)">
            <g id="icon_yingye" transform="translate(67.000000, 452.000000)">
                <g>
                    <rect id="矩形" stroke="#F3EBCA" stroke-width="2" fill="#FFFBEA" x="1" y="1" width="238" height="168"></rect>
                    <rect id="矩形" stroke="#F3EBCA" stroke-width="2" fill="#FFFBEA" x="12.7857143" y="12.7610063" width="215.5" height="144.477987"></rect>
                    <g id="编组-8" transform="translate(99.000000, 2.000000)">
                        <g id="编组-7" transform="translate(6.000000, 3.000000)">
                            <circle id="椭圆形" fill="#FA4502" cx="16" cy="26" r="11"></circle>
                            <polygon id="矩形" fill="#FA4502" transform="translate(26.293956, 32.558824) scale(-1, 1) translate(-26.293956, -32.558824) " points="27.0604396 24.8067227 29.1043956 29.9747899 29.1043956 40.3109244 23.4835165 35.1428571"></polygon>
                            <polygon id="矩形" fill="#FA4502" points="7.13186813 24.8067227 9.17582418 29.9747899 9.17582418 40.3109244 3.55494505 35.1428571"></polygon>
                            <circle id="椭圆形" stroke="#EBB61E" stroke-width="3" fill="#FA4502" cx="15.5" cy="15.5" r="17"></circle>
                            <circle id="椭圆形" stroke="#FA4502" fill="#EBB61E" cx="16" cy="32" r="3.5"></circle>
                            <g id="编组-6" transform="translate(4.000000, 4.000000)" fill="#EBB61E">
                                <polygon id="矩形" fill-opacity="0.9" points="7.665 15.1395349 16.335 15.1395349 18.375 18.1918605 5.625 18.1918605"></polygon>
                                <polygon id="矩形备份-4" fill-opacity="0.8" points="3.84 17.8103198 20.16 17.8103198 24 20.8626453 0 20.8626453"></polygon>
                                <g id="编组" transform="translate(1.000000, 0.000000)">
                                    <polygon id="星形" points="11 4.5 9.23664424 5.42705098 9.57341523 3.46352549 8.14683045 2.07294902 10.1183221 1.78647451 11 0 11.8816779 1.78647451 13.8531695 2.07294902 12.4265848 3.46352549 12.7633558 5.42705098"></polygon>
                                    <polygon id="星形备份" points="15.5 10.25 14.6183221 10.7135255 14.7867076 9.73176275 14.0734152 9.03647451 15.0591611 8.89323725 15.5 8 15.9408389 8.89323725 16.9265848 9.03647451 16.2132924 9.73176275 16.3816779 10.7135255"></polygon>
                                    <polygon id="星形备份" points="7.5 10.25 6.61832212 10.7135255 6.78670761 9.73176275 6.07341523 9.03647451 7.05916106 8.89323725 7.5 8 7.94083894 8.89323725 8.92658477 9.03647451 8.21329239 9.73176275 8.38167788 10.7135255"></polygon>
                                    <polygon id="星形备份" points="20.5 8.25 19.6183221 8.71352549 19.7867076 7.73176275 19.0734152 7.03647451 20.0591611 6.89323725 20.5 6 20.9408389 6.89323725 21.9265848 7.03647451 21.2132924 7.73176275 21.3816779 8.71352549"></polygon>
                                    <polygon id="星形备份" points="1.5 8.25 0.618322122 8.71352549 0.786707613 7.73176275 0.0734152256 7.03647451 1.05916106 6.89323725 1.5 6 1.94083894 6.89323725 2.92658477 7.03647451 2.21329239 7.73176275 2.38167788 8.71352549"></polygon>
                                </g>
                            </g>
                        </g>
                    </g>
                    <text id="营业执照" font-family="PingFangSC-Semibold, PingFang SC" font-size="17" font-weight="500" letter-spacing="6.375" fill="#371B1A">
                        <tspan x="79" y="67">营业执照</tspan>
                    </text>
                    <rect id="矩形" fill="#E9D8A9" x="166.071429" y="109.056604" width="49.2857143" height="6.41509434" rx="2"></rect>
                    <rect id="矩形备份-5" fill="#E9D8A9" x="166.071429" y="97.2955975" width="49.2857143" height="6.41509434" rx="2"></rect>
                    <rect id="矩形" fill="#E9D8A9" x="127.5" y="109.056604" width="27.8571429" height="6.41509434" rx="2"></rect>
                    <rect id="矩形备份-5" fill="#E9D8A9" x="127.5" y="97.2955975" width="27.8571429" height="6.41509434" rx="2"></rect>
                    <g id="编组-9" transform="translate(28.928571, 129.371069)" fill="#E9D8A9">
                        <rect id="矩形" x="38.5714286" y="11.7610063" width="145.714286" height="6.41509434" rx="2"></rect>
                        <rect id="矩形备份-5" x="38.5714286" y="0" width="145.714286" height="6.41509434" rx="2"></rect>
                        <rect id="矩形" x="0" y="11.7610063" width="27.8571429" height="6.41509434" rx="2"></rect>
                        <rect id="矩形备份-5" x="0" y="0" width="27.8571429" height="6.41509434" rx="2"></rect>
                    </g>
                    <g id="编组-9" transform="translate(28.928571, 97.295597)" fill="#E9D8A9">
                        <rect id="矩形" x="38.5714286" y="11.7610063" width="49.2857143" height="6.41509434" rx="2"></rect>
                        <rect id="矩形备份-5" x="38.5714286" y="0" width="49.2857143" height="6.41509434" rx="2"></rect>
                        <rect id="矩形" x="0" y="11.7610063" width="27.8571429" height="6.41509434" rx="2"></rect>
                        <rect id="矩形备份-5" x="0" y="0" width="27.8571429" height="6.41509434" rx="2"></rect>
                    </g>
                    <rect id="矩形" fill="#E9D8A9" x="67.5" y="85.5345912" width="87.8571429" height="6.41509434" rx="2"></rect>
                    <rect id="矩形" fill="#E9D8A9" x="28.9285714" y="85.5345912" width="27.8571429" height="6.41509434" rx="2"></rect>
                    <circle id="椭圆形" stroke="#FA4502" stroke-width="2" cx="196.5" cy="131.5" r="18.5"></circle>
                    <path d="M186.52118,141.627159 C189.01471,143.971846 192.374907,145.408805 196.071429,145.408805 C199.653264,145.408805 202.919319,144.059628 205.387101,141.842758 M210,131.509434 C210,123.833023 203.763966,117.610063 196.071429,117.610063 C188.378891,117.610063 182.142857,123.833023 182.142857,131.509434" id="形状" stroke="#FA4502"></path>
                    <polygon id="星形" fill="#FA4502" points="196.5 135.75 191.503825 138.376644 192.45801 132.813322 188.41602 128.873356 194.001913 128.061678 196.5 123 198.998087 128.061678 204.58398 128.873356 200.54199 132.813322 201.496175 138.376644"></polygon>
                </g>
            </g>
        </g>
    </g>
</svg>