<?xml version="1.0" encoding="UTF-8"?>
<svg width="20px" height="16px" viewBox="0 0 20 16" version="1.1" xmlns="http://www.w3.org/2000/svg" xmlns:xlink="http://www.w3.org/1999/xlink">
    <!-- Generator: Sketch 59.1 (86144) - https://sketch.com -->
    <title>切片</title>
    <desc>Created with Sketch.</desc>
    <g id="我的" stroke="none" stroke-width="1" fill="none" fill-rule="evenodd">
        <g id="我的_订单管理" transform="translate(-133.000000, -760.000000)" fill-rule="nonzero">
            <g id="编组" transform="translate(133.000000, 758.000000)">
                <g id="me_icon_上滑" transform="translate(0.000000, 2.000000)">
                    <g>
                        <rect id="矩形" fill="#000000" opacity="0" x="0" y="0" width="15.5741445" height="15.5741445"></rect>
                        <path d="M12.1487766,14.5811748 L12.1332024,14.570792 C12.1124369,14.5561618 12.0803447,14.5401157 12.0525001,14.5254854 L12.0416454,14.5184063 C12.0270151,14.5094393 12.0100251,14.5009443 11.9968107,14.4915055 L11.9231875,14.4480866 L11.9151644,14.4443111 L8.20804608,12.128955 C7.77296609,11.8580208 7.46061557,11.428179 7.33730983,10.9306897 C7.20781811,10.4393774 7.27806295,9.91678299 7.53269456,9.47710289 C7.86818403,8.90353518 8.48858049,8.5572842 9.15287752,8.57285863 L6.56379399,3.02138403 C6.11025603,2.05767484 6.47082106,0.930673125 7.36468257,0.514418707 C8.25760018,0.0981643042 9.35345363,0.545566996 9.80415992,1.51163591 L10.6357249,3.29558336 C10.7468132,3.19065002 10.8739525,3.10413798 11.012336,3.0393179 C11.4347257,2.8420454 11.9293227,2.85997927 12.3748377,3.07943311 C12.5272755,2.8302468 12.7462574,2.63108652 13.0072423,2.50554949 C13.3111529,2.36569829 13.6533511,2.33244288 13.9785026,2.41116073 C14.2328803,2.4701537 14.4768752,2.58577992 14.6920816,2.7514322 C14.8039323,2.64807652 14.9304132,2.5617108 15.0672769,2.49752645 C15.8997857,2.10958867 16.9427814,2.58153244 17.3934877,3.54807328 L19.5691485,8.21370941 C20.0505312,9.24585045 20.1260422,10.5998571 19.7626455,11.6636184 C19.5601816,12.2563798 19.2416195,12.6806572 18.8626487,12.8576361 L14.2527019,15.0068681 C13.3890448,15.4099081 12.7018947,14.9502348 12.1483046,14.5811748 L12.1487766,14.5811748 Z M18.5549414,11.9515041 C18.6946367,11.8859039 18.9329683,11.490415 19.0334923,10.8141196 C19.1387358,10.0859104 19.0367959,9.31994563 18.7550455,8.71585758 L16.5166162,3.91618943 C16.333974,3.52400415 15.9328217,3.29605532 15.6572066,3.42489595 C15.5964376,3.45355603 15.5437342,3.49685395 15.5038249,3.55090494 L16.2863076,5.22960894 L16.2844199,5.23055282 C16.3957986,5.52079824 16.2721493,5.84407973 16.0003097,5.97292038 C15.7270543,6.1003452 15.3957497,5.98424703 15.2475594,5.71382325 L15.2466155,5.71429519 L14.5674884,4.25834865 L14.3456748,3.86380367 C14.1493462,3.51220555 13.7774545,3.32342805 13.5169416,3.44518954 C13.4017873,3.49851918 13.3125899,3.61792096 13.2691711,3.76847103 L14.1153663,5.58403871 C14.2531739,5.88136329 14.1323563,6.23012973 13.8454144,6.36416176 C13.5584726,6.49677796 13.2139537,6.36510566 13.0747303,6.06919691 L12.3304749,4.47213919 L12.203994,4.30365525 C11.9949229,4.02332065 11.6706976,3.89023252 11.4512437,3.99217237 C11.3016375,4.06202005 11.2011135,4.23758313 11.180348,4.45798087 L12.0034179,6.26599746 L12.3196202,6.94323678 C12.4423256,7.20610946 12.3337785,7.51900818 12.0798728,7.63746607 L11.9670782,7.69032377 C11.7122286,7.8092536 11.4040493,7.69032377 11.2813439,7.42745109 L8.76116418,2.02227906 L8.6696071,1.83350155 C8.4808296,1.42904573 8.0442816,1.23413296 7.69315544,1.39742551 C7.34202928,1.56118999 7.21130085,2.02227906 7.39913446,2.425791 L9.87117594,7.66719852 C9.88014287,7.68277267 9.88816592,7.69881875 9.89571702,7.71486485 L10.8674492,9.79896855 C10.9882669,10.0689204 10.8990695,10.3837069 10.6579062,10.5380325 C10.4116122,10.69151 10.0895926,10.6377053 9.90657173,10.4124955 L9.43651573,9.91412283 C9.25942016,9.80141925 9.04437748,9.76484158 8.8399788,9.81265492 C8.63708804,9.86107149 8.46302316,9.99076689 8.35859615,10.1713322 C8.13961424,10.5484153 8.26562322,11.0434843 8.63987465,11.2780403 L12.4588437,13.6594686 L12.4706422,13.6656039 L12.5178366,13.6953363 L12.5763576,13.731676 C12.6131693,13.7552732 12.6509248,13.7779265 12.6830169,13.7939726 L12.7061422,13.8057712 L12.7278516,13.8246489 C13.3413785,14.23524 13.5325157,14.2965927 13.7953884,14.1738873 L18.5568291,11.9543358 L18.5549414,11.9505602 L18.5549414,11.9515041 Z" id="形状" fill="#6B7685"></path>
                        <path d="M3.92185275,2.40408158 L5.10029635,3.0308229 C5.13399373,3.04868911 5.17513206,3.04451938 5.20455913,3.02025495 C5.2339862,2.99599052 5.24591828,2.95640044 5.23480032,2.91991612 L4.5013997,0.520082038 C4.49410308,0.496095186 4.47756291,0.475996914 4.45542823,0.464221268 C4.43329356,0.452445621 4.40738331,0.449960267 4.38341376,0.457313521 L1.98357968,1.19118608 C1.94733488,1.20253194 1.92142051,1.23449597 1.91781488,1.27230356 C1.91420925,1.31011115 1.93361475,1.34639724 1.96706164,1.36438944 L3.0846245,1.9590386 C1.46729919,4.39590993 0.464890849,7.1885645 0.163292548,10.097709 C0.089209576,10.8035856 0.0561179754,11.513164 0.0641843498,12.2228718 C0.0368116046,12.4824408 0.264288502,12.7184127 0.502620122,12.7434257 C0.740951726,12.7684388 1.01279135,12.5957073 1.0113755,12.3224519 C1.0113755,12.3007425 1.0104316,12.279977 1.00854385,12.2587395 C0.999104973,11.5786685 1.02930937,10.8901025 1.10246065,10.1963452 C1.39141115,7.40763712 2.35962458,4.73228923 3.92232468,2.40455352 L3.92185275,2.40408158 Z" id="路径" fill="#6B7685" opacity="0.9"></path>
                    </g>
                </g>
            </g>
        </g>
    </g>
</svg>