<?xml version="1.0" encoding="UTF-8"?>
<svg width="30px" height="30px" viewBox="0 0 30 30" version="1.1" xmlns="http://www.w3.org/2000/svg" xmlns:xlink="http://www.w3.org/1999/xlink">
    <!-- Generator: Sketch 52.2 (67145) - http://www.bohemiancoding.com/sketch -->
    <title>me_item_phone</title>
    <desc>Created with Sketch.</desc>
    <g id="me_item_phone" stroke="none" stroke-width="1" fill="none" fill-rule="evenodd">
        <g>
            <rect id="矩形" x="0" y="0" width="30" height="30"></rect>
            <path d="M8.75,22 L21.25,22 L21.25,4 C21.25,3.86192881 21.1380712,3.75 21,3.75 L9,3.75 C8.86192881,3.75 8.75,3.86192881 8.75,4 L8.75,22 Z M9,1.25 L21,1.25 C22.5187831,1.25 23.75,2.48121694 23.75,4 L23.75,25.375 C23.75,26.8937831 22.5187831,28.125 21,28.125 L9,28.125 C7.48121694,28.125 6.25,26.8937831 6.25,25.375 L6.25,4 C6.25,2.48121694 7.48121694,1.25 9,1.25 Z M13.5,24.5823864 C12.9477153,24.5823864 12.5,25.0301016 12.5,25.5823864 L12.5,25.6278409 C12.5,26.1801257 12.9477153,26.6278409 13.5,26.6278409 L16.5,26.6278409 C17.0522847,26.6278409 17.5,26.1801257 17.5,25.6278409 L17.5,25.5823864 C17.5,25.0301016 17.0522847,24.5823864 16.5,24.5823864 L13.5,24.5823864 Z" id="合并形状" fill="#3A99FA" fill-rule="nonzero"></path>
        </g>
    </g>
</svg>