<?xml version="1.0" encoding="UTF-8"?>
<svg width="39px" height="38px" viewBox="0 0 39 38" version="1.1" xmlns="http://www.w3.org/2000/svg" xmlns:xlink="http://www.w3.org/1999/xlink">
    <!-- Generator: Sketch 59.1 (86144) - https://sketch.com -->
    <title>切片</title>
    <desc>Created with Sketch.</desc>
    <g id="2-11_优化" stroke="none" stroke-width="1" fill="none" fill-rule="evenodd">
        <g id="我_添加使用说明" transform="translate(-14.000000, -520.000000)">
            <g id="编组" transform="translate(15.000000, 518.000000)">
                <g id="frame/line/black备份" transform="translate(0.000000, 2.000000)">
                    <g id="me_list_icon_instructions">
                        <g>
                            <rect id="矩形" fill="#FF685D" fill-rule="nonzero" x="0" y="0" width="38" height="38" rx="6"></rect>
                            <g id="编组-8" transform="translate(11.000000, 9.000000)">
                                <path d="M3,0 L16,0 L16,0 L16,20 L3,20 C1.34314575,20 2.02906125e-16,18.6568542 0,17 L0,3 C-2.02906125e-16,1.34314575 1.34314575,3.04359188e-16 3,0 Z" id="矩形" fill="#FFFFFF"></path>
                                <path d="M2.5,15 L15,15 L15,15 L15,18 L2.5,18 C1.67157288,18 1,17.3284271 1,16.5 C1,15.6715729 1.67157288,15 2.5,15 Z" id="矩形" fill="#FF685D"></path>
                                <polygon id="矩形" fill="#FF685D" points="5 2 9 2 9 9 6.89296875 7.25 5 9"></polygon>
                            </g>
                        </g>
                    </g>
                </g>
            </g>
        </g>
    </g>
</svg>