<?xml version="1.0" encoding="UTF-8"?>
<svg width="38px" height="38px" viewBox="0 0 38 38" version="1.1" xmlns="http://www.w3.org/2000/svg" xmlns:xlink="http://www.w3.org/1999/xlink">
    <!-- Generator: Sketch 59.1 (86144) - https://sketch.com -->
    <title>切片</title>
    <desc>Created with Sketch.</desc>
    <g id="我的" stroke="none" stroke-width="1" fill="none" fill-rule="evenodd">
        <g id="我" transform="translate(-15.000000, -374.000000)" fill-rule="nonzero">
            <g id="me_list_icon_订单管理" transform="translate(15.000000, 374.000000)">
                <g id="me_list_icon_number">
                    <g>
                        <rect id="矩形" fill="#DCA0F6" x="0" y="0" width="38" height="38" rx="6"></rect>
                        <g id="订单" transform="translate(8.000000, 8.000000)">
                            <rect id="矩形" fill="#000000" opacity="0" x="0" y="0" width="22" height="22"></rect>
                            <path d="M18.3068359,15.4451172 L13.6017578,15.4451172 L13.6017578,20.4037109 C13.6017578,20.8849609 13.2171875,21.2738281 12.7380859,21.2824219 C12.9679688,21.2802734 13.2,21.1900391 13.3697266,21.0095703 L18.8332031,15.2689453 C18.6871094,15.3785156 18.5044922,15.4451172 18.3068359,15.4451172 L18.3068359,15.4451172 Z" id="路径" fill="#FFFFFF"></path>
                            <path d="M11.8400391,20.4037109 L11.8400391,15.0390625 C11.89375,14.3 12.4953125,13.715625 13.2408203,13.6855469 L18.3046875,13.6855469 C18.7580078,13.6855469 19.1318359,14.0292969 19.1791016,14.471875 L19.1791016,2.46210938 C19.1791016,1.62851563 18.5023438,0.951757813 17.66875,0.951757813 L4.25605469,0.951757813 C3.42246094,0.951757813 2.74570313,1.62851563 2.74570313,2.46210938 L2.74570313,19.7742188 C2.74570313,20.6078125 3.42246094,21.2845703 4.25605469,21.2845703 L12.7208984,21.2845703 C12.2353516,21.2824219 11.8400391,20.8892578 11.8400391,20.4037109 Z M6.05214844,4.73945313 C6.05214844,4.25390625 6.4453125,3.85859375 6.93300781,3.85859375 L15.0046875,3.85859375 C15.4902344,3.85859375 15.8855469,4.25175781 15.8855469,4.73945313 C15.8855469,5.225 15.4923828,5.6203125 15.0046875,5.6203125 L6.93085938,5.6203125 C6.4453125,5.61816406 6.05214844,5.225 6.05214844,4.73945313 L6.05214844,4.73945313 Z M6.05214844,8.58945313 C6.05214844,8.10390625 6.4453125,7.70859375 6.93300781,7.70859375 L15.0046875,7.70859375 C15.4902344,7.70859375 15.8855469,8.10175781 15.8855469,8.58945313 C15.8855469,9.075 15.4923828,9.4703125 15.0046875,9.4703125 L6.93085938,9.4703125 C6.4453125,9.46816406 6.05214844,9.075 6.05214844,8.58945313 Z M11.2083984,12.0076172 C11.2083984,12.4931641 10.8152344,12.8884766 10.3275391,12.8884766 L6.93085938,12.8884766 C6.4453125,12.8884766 6.05,12.4953125 6.05,12.0076172 C6.05,11.5220703 6.44316406,11.1267578 6.93085938,11.1267578 L10.3275391,11.1267578 C10.8130859,11.1289063 11.2083984,11.5220703 11.2083984,12.0076172 Z" id="形状" fill="#FFFFFF"></path>
                        </g>
                    </g>
                </g>
            </g>
        </g>
    </g>
</svg>