<?xml version="1.0" encoding="UTF-8"?>
<svg width="24px" height="24px" viewBox="0 0 24 24" version="1.1" xmlns="http://www.w3.org/2000/svg" xmlns:xlink="http://www.w3.org/1999/xlink">
    <!-- Generator: Sketch 52.2 (67145) - http://www.bohemiancoding.com/sketch -->
    <title>nav_icon_switch</title>
    <desc>Created with Sketch.</desc>
    <g id="nav_icon_switch" stroke="none" stroke-width="1" fill="none" fill-rule="evenodd" opacity="0.87">
        <g>
            <rect id="矩形" x="0" y="0" width="24" height="24"></rect>
            <path d="M17.5857864,7.91621723 L15.376676,5.70710678 C14.9861517,5.31658249 14.9861517,4.68341751 15.376676,4.29289322 C15.7672003,3.90236893 16.4003653,3.90236893 16.7908895,4.29289322 L19.8535534,7.35555706 C20.134858,7.63686163 20.2928932,8.0183925 20.2928932,8.41621723 C20.2928932,9.24464436 19.6213203,9.91621723 18.7928932,9.91621723 L4,9.91621723 C3.44771525,9.91621723 3,9.46850198 3,8.91621723 C3,8.36393248 3.44771525,7.91621723 4,7.91621723 L17.5857864,7.91621723 Z M7.91621723,18.2091105 C8.30674152,18.5996347 8.30674152,19.2327997 7.91621723,19.623324 C7.52569294,20.0138483 6.89252796,20.0138483 6.50200367,19.623324 L3.43933983,16.5606602 C3.15803526,16.2793556 3,15.8978247 3,15.5 C3,14.6715729 3.67157288,14 4.5,14 L19.2928932,14 C19.845178,14 20.2928932,14.4477153 20.2928932,15 C20.2928932,15.5522847 19.845178,16 19.2928932,16 L5.70710678,16 L7.91621723,18.2091105 Z" id="合并形状" fill="#FFFFFF" fill-rule="nonzero"></path>
        </g>
    </g>
</svg>