<?xml version="1.0" encoding="UTF-8"?>
<svg width="24px" height="24px" viewBox="0 0 24 24" version="1.1" xmlns="http://www.w3.org/2000/svg" xmlns:xlink="http://www.w3.org/1999/xlink">
    <!-- Generator: Sketch 52.2 (67145) - http://www.bohemiancoding.com/sketch -->
    <title>nav_icon_switch</title>
    <desc>Created with Sketch.</desc>
    <g id="nav_icon_switch" stroke="none" stroke-width="1" fill="none" fill-rule="evenodd">
        <g>
            <rect id="矩形" x="0" y="0" width="24" height="24"></rect>
            <g id="分组-12" transform="translate(3.000000, 4.000000)" fill="#272E3E" fill-rule="nonzero">
                <path d="M14.5857864,3.91621723 L12.376676,1.70710678 C11.9861517,1.31658249 11.9861517,0.683417511 12.376676,0.292893219 C12.7672003,-0.0976310729 13.4003653,-0.0976310729 13.7908895,0.292893219 L16.8535534,3.35555706 C17.134858,3.63686163 17.2928932,4.0183925 17.2928932,4.41621723 C17.2928932,5.24464436 16.6213203,5.91621723 15.7928932,5.91621723 L1,5.91621723 C0.44771525,5.91621723 -5.5067062e-14,5.46850198 -5.5067062e-14,4.91621723 C-5.5067062e-14,4.36393248 0.44771525,3.91621723 1,3.91621723 L14.5857864,3.91621723 Z" id="路径-2"></path>
                <path d="M12.376676,11.7071068 C11.9861517,11.3165825 11.9861517,10.6834175 12.376676,10.2928932 C12.7672003,9.90236893 13.4003653,9.90236893 13.7908895,10.2928932 L16.8535534,13.3555571 C17.134858,13.6368616 17.2928932,14.0183925 17.2928932,14.4162172 C17.2928932,15.2446444 16.6213203,15.9162172 15.7928932,15.9162172 L1,15.9162172 C0.44771525,15.9162172 -5.5067062e-14,15.468502 -5.5067062e-14,14.9162172 C-5.5067062e-14,14.3639325 0.44771525,13.9162172 1,13.9162172 L14.5857864,13.9162172 L12.376676,11.7071068 Z" id="路径-2-copy" transform="translate(8.646447, 12.958109) rotate(-180.000000) translate(-8.646447, -12.958109) "></path>
            </g>
        </g>
    </g>
</svg>