<?xml version="1.0" encoding="UTF-8"?>
<svg width="160px" height="160px" viewBox="0 0 160 160" version="1.1" xmlns="http://www.w3.org/2000/svg" xmlns:xlink="http://www.w3.org/1999/xlink">
    <!-- Generator: Sketch 52.2 (67145) - http://www.bohemiancoding.com/sketch -->
    <title>pic_无搜索结果</title>
    <desc>Created with Sketch.</desc>
    <defs>
        <linearGradient x1="0.464008309%" y1="49.5359917%" x2="99.5359917%" y2="49.5359917%" id="linearGradient-1">
            <stop stop-color="#222222" offset="0%"></stop>
            <stop stop-color="#1D1D1D" offset="100%"></stop>
        </linearGradient>
        <path d="M6,-1.42108547e-14 L56.2222222,-1.42108547e-14 C59.5359307,-1.48195731e-14 62.2222222,2.6862915 62.2222222,6 L62.2222222,74.8888889 C62.2222222,78.2025974 59.5359307,80.8888889 56.2222222,80.8888889 L6,80.8888889 C2.6862915,80.8888889 -4.82366169e-16,78.2025974 -8.8817842e-16,74.8888889 L-8.8817842e-16,6 C-1.29399067e-15,2.6862915 2.6862915,-1.36021363e-14 6,-1.42108547e-14 Z" id="path-2"></path>
        <linearGradient x1="50%" y1="0%" x2="50%" y2="96.6269491%" id="linearGradient-4">
            <stop stop-color="#404042" offset="0%"></stop>
            <stop stop-color="#2D2D2D" offset="100%"></stop>
        </linearGradient>
        <path d="M9.11111111,3.11111111 L59.3333333,3.11111111 C62.6470418,3.11111111 65.3333333,5.79740261 65.3333333,9.11111111 L65.3333333,78 C65.3333333,81.3137085 62.6470418,84 59.3333333,84 L9.11111111,84 C5.79740261,84 3.11111111,81.3137085 3.11111111,78 L3.11111111,9.11111111 C3.11111111,5.79740261 5.79740261,3.11111111 9.11111111,3.11111111 Z" id="path-5"></path>
        <linearGradient x1="50%" y1="0%" x2="52.5744377%" y2="95.2592411%" id="linearGradient-7">
            <stop stop-color="#606060" offset="0%"></stop>
            <stop stop-color="#454545" offset="100%"></stop>
        </linearGradient>
    </defs>
    <g id="pic_无搜索结果" stroke="none" stroke-width="1" fill="none" fill-rule="evenodd">
        <g>
            <rect id="矩形" x="0" y="0" width="160" height="160"></rect>
            <g id="分组-5" transform="translate(46.000000, 40.000000)">
                <g id="分组-3">
                    <g id="合并形状">
                        <g id="Mask-Copy-2">
                            <mask id="mask-3" fill="white">
                                <use xlink:href="#path-2"></use>
                            </mask>
                            <use id="Mask-Copy" fill="url(#linearGradient-1)" xlink:href="#path-2"></use>
                        </g>
                        <mask id="mask-6" fill="white">
                            <use xlink:href="#path-5"></use>
                        </mask>
                        <use id="Mask" fill="url(#linearGradient-4)" xlink:href="#path-5"></use>
                        <rect id="矩形" fill="#727272" mask="url(#mask-6)" x="13" y="22" width="40" height="4" rx="2"></rect>
                        <rect id="矩形-copy-2" fill="#727272" mask="url(#mask-6)" x="13" y="38" width="40" height="4" rx="2"></rect>
                        <rect id="矩形-copy-4" fill="#727272" mask="url(#mask-6)" x="13" y="54" width="30" height="4" rx="2"></rect>
                        <path d="M46,75.5459415 C34.4020203,75.5459415 25,66.1439213 25,54.5459415 C25,42.9479618 34.4020203,33.5459415 46,33.5459415 C57.5979797,33.5459415 67,42.9479618 67,54.5459415 C67,66.1439213 57.5979797,75.5459415 46,75.5459415 Z M46,71.5459415 C55.3888407,71.5459415 63,63.9347823 63,54.5459415 C63,45.1571008 55.3888407,37.5459415 46,37.5459415 C36.6111593,37.5459415 29,45.1571008 29,54.5459415 C29,63.9347823 36.6111593,71.5459415 46,71.5459415 Z" fill="#1A1A1A" opacity="0.300000012" mask="url(#mask-6)"></path>
                    </g>
                    <path d="M59.3401527,62.7379566 L66.7092693,70.1070733 L63.8808422,72.9355004 L56.5421341,65.5967923 C52.8859701,68.6846489 48.1603491,70.5459415 43,70.5459415 C31.4020203,70.5459415 22,61.1439213 22,49.5459415 C22,37.9479618 31.4020203,28.5459415 43,28.5459415 C54.5979797,28.5459415 64,37.9479618 64,49.5459415 C64,54.5430707 62.2545893,59.1325374 59.3401527,62.7379566 Z M43,66.5459415 C52.3888407,66.5459415 60,58.9347823 60,49.5459415 C60,40.1571008 52.3888407,32.5459415 43,32.5459415 C33.6111593,32.5459415 26,40.1571008 26,49.5459415 C26,58.9347823 33.6111593,66.5459415 43,66.5459415 Z" id="合并形状" fill="#282828"></path>
                    <path d="M60.3401527,60.7379566 L67.7092693,68.1070733 L64.8808422,70.9355004 L57.5421341,63.5967923 C53.8859701,66.6846489 49.1603491,68.5459415 44,68.5459415 C32.4020203,68.5459415 23,59.1439213 23,47.5459415 C23,35.9479618 32.4020203,26.5459415 44,26.5459415 C55.5979797,26.5459415 65,35.9479618 65,47.5459415 C65,52.5430707 63.2545893,57.1325374 60.3401527,60.7379566 Z M44,64.5459415 C53.3888407,64.5459415 61,56.9347823 61,47.5459415 C61,38.1571008 53.3888407,30.5459415 44,30.5459415 C34.6111593,30.5459415 27,38.1571008 27,47.5459415 C27,56.9347823 34.6111593,64.5459415 44,64.5459415 Z" id="合并形状" fill="url(#linearGradient-7)"></path>
                    <path d="M66.0459415,66.0918831 L75.0459415,66.0918831 L75.0459415,79.5918831 C75.0459415,82.0771645 73.0312229,84.0918831 70.5459415,84.0918831 L70.5459415,84.0918831 C68.0606602,84.0918831 66.0459415,82.0771645 66.0459415,79.5918831 L66.0459415,66.0918831 Z" id="矩形" fill="#2D2D2D" transform="translate(70.545942, 75.091883) rotate(-45.000000) translate(-70.545942, -75.091883) "></path>
                </g>
            </g>
            <ellipse id="椭圆形" fill="#A5ACB9" opacity="0.1" cx="80" cy="145" rx="30" ry="4"></ellipse>
        </g>
    </g>
</svg>