<?xml version="1.0" encoding="UTF-8"?>
<svg width="220px" height="146px" viewBox="0 0 220 146" version="1.1" xmlns="http://www.w3.org/2000/svg" xmlns:xlink="http://www.w3.org/1999/xlink">
    <!-- Generator: Sketch 59.1 (86144) - https://sketch.com -->
    <title>切片</title>
    <desc>Created with Sketch.</desc>
    <defs>
        <rect id="path-1" x="0" y="0" width="220" height="146"></rect>
        <linearGradient x1="19.3832492%" y1="46.5972634%" x2="62.5830422%" y2="59.0678837%" id="linearGradient-3">
            <stop stop-color="#9D9FA0" stop-opacity="0" offset="0%"></stop>
            <stop stop-color="#616264" offset="100%"></stop>
        </linearGradient>
        <linearGradient x1="71.8287373%" y1="0%" x2="28.1712627%" y2="92.2675169%" id="linearGradient-4">
            <stop stop-color="#F3F5F4" offset="0%"></stop>
            <stop stop-color="#AFB4BA" offset="43.2839411%"></stop>
            <stop stop-color="#DCE0E6" offset="65.6827042%"></stop>
            <stop stop-color="#AFB4BA" offset="100%"></stop>
        </linearGradient>
        <linearGradient x1="47.0974683%" y1="11.2666377%" x2="54.1435574%" y2="104.300937%" id="linearGradient-5">
            <stop stop-color="#FBFCFE" offset="0%"></stop>
            <stop stop-color="#EDEFF2" offset="100%"></stop>
        </linearGradient>
        <linearGradient x1="45.7581014%" y1="76.7010837%" x2="34.716695%" y2="93.0173747%" id="linearGradient-6">
            <stop stop-color="#8C939B" offset="0%"></stop>
            <stop stop-color="#C6CAD0" offset="100%"></stop>
        </linearGradient>
        <linearGradient x1="45.3297483%" y1="10.4237195%" x2="50%" y2="89.8705996%" id="linearGradient-7">
            <stop stop-color="#EAEDF0" offset="0%"></stop>
            <stop stop-color="#FCFDFF" offset="33.652061%"></stop>
            <stop stop-color="#F7F8FB" offset="76.5626929%"></stop>
            <stop stop-color="#EBEDF1" offset="100%"></stop>
        </linearGradient>
        <linearGradient x1="50%" y1="23.9837483%" x2="58.18683%" y2="57.7268834%" id="linearGradient-8">
            <stop stop-color="#BFC4CD" offset="0%"></stop>
            <stop stop-color="#ECECF0" offset="45.9981181%"></stop>
            <stop stop-color="#DDE3E8" offset="68.8392393%"></stop>
            <stop stop-color="#B5BAC1" offset="100%"></stop>
        </linearGradient>
        <linearGradient x1="36.8731689%" y1="53.7336457%" x2="12.5183105%" y2="77.174738%" id="linearGradient-9">
            <stop stop-color="#D9DDE0" offset="0%"></stop>
            <stop stop-color="#DBDFE3" offset="100%"></stop>
        </linearGradient>
        <linearGradient x1="36.8731689%" y1="67.3205813%" x2="12.5183105%" y2="176.065057%" id="linearGradient-10">
            <stop stop-color="#D9DDE0" offset="0%"></stop>
            <stop stop-color="#DBDFE3" offset="100%"></stop>
        </linearGradient>
        <linearGradient x1="39.5555387%" y1="100%" x2="20.1774136%" y2="413.916934%" id="linearGradient-11">
            <stop stop-color="#DBDEE2" offset="0%"></stop>
            <stop stop-color="#DBDFE3" offset="100%"></stop>
        </linearGradient>
        <polygon id="path-12" points="0 8.67797101 2.98588235 0 9.67647059 5.34028986"></polygon>
        <linearGradient x1="67.1354299%" y1="65.6052593%" x2="50%" y2="50%" id="linearGradient-14">
            <stop stop-color="#A1A8B0" offset="0%"></stop>
            <stop stop-color="#EBEDF1" offset="100%"></stop>
        </linearGradient>
        <linearGradient x1="44.2265217%" y1="0%" x2="50%" y2="100%" id="linearGradient-15">
            <stop stop-color="#CACFD1" offset="0%"></stop>
            <stop stop-color="#DFE0E3" stop-opacity="0" offset="100%"></stop>
        </linearGradient>
    </defs>
    <g id="云通知" stroke="none" stroke-width="1" fill="none" fill-rule="evenodd">
        <g id="个人号_无记录" transform="translate(-78.000000, -232.000000)">
            <g id="pic_无记录" transform="translate(78.000000, 232.000000)">
                <g>
                    <mask id="mask-2" fill="white">
                        <use xlink:href="#path-1"></use>
                    </mask>
                    <g id="蒙版"></g>
                    <g id="编组-4" mask="url(#mask-2)">
                        <g transform="translate(19.000000, 10.000000)">
                            <g id="编组-2" stroke-width="1" fill="none">
                                <path d="M-2.27373675e-13,89.4103424 L64.6276596,81.360028 L126.987757,113.745839 C127.968017,114.254923 128.34998,115.462273 127.840897,116.442532 C127.545585,117.011167 126.995703,117.403883 126.362016,117.498725 L59.7657488,127.465955 C57.2508833,127.842346 54.6870842,127.246533 52.5959202,125.799725 L-2.27373675e-13,89.4103424 L-2.27373675e-13,89.4103424 Z" id="矩形" fill="url(#linearGradient-3)"></path>
                                <path d="M52.4356703,10.5778205 C48.593834,11.0996312 45.7287234,14.3801975 45.7287234,18.2573088 L45.7287234,116.424865 C45.7287234,116.77374 45.7522809,117.122217 45.7992351,117.467918 C46.3752974,121.709182 50.2805122,124.680416 54.5217765,124.104353 L121.5005,115.007085 C125.342336,114.485274 128.207447,111.204708 128.207447,107.327597 L128.207447,9.16004064 C128.207447,8.81116551 128.183889,8.46268851 128.136935,8.11698755 C127.560873,3.87572328 123.655658,0.904490041 119.414394,1.48055236 L52.4356703,10.5778205 Z" id="矩形" stroke="#CED3DA" stroke-width="0.5" fill="url(#linearGradient-4)"></path>
                                <path d="M56.425032,12.1878834 C52.5831957,12.7096941 49.7180851,15.9902604 49.7180851,19.8673717 L49.7180851,118.034928 C49.7180851,118.383803 49.7416426,118.73228 49.7885968,119.077981 C50.3646591,123.319245 54.2698739,126.290479 58.5111382,125.714416 L125.489862,116.617148 C129.331698,116.095337 132.196809,112.814771 132.196809,108.93766 L132.196809,10.7701035 C132.196809,10.4212284 132.173251,10.0727514 132.126297,9.72705044 C131.550234,5.48578618 127.64502,2.51455293 123.403755,3.09061525 L56.425032,12.1878834 Z" id="矩形" stroke="#FFFFFF" stroke-width="0.5" fill="url(#linearGradient-5)"></path>
                                <path d="M64.0576653,24.0414758 L119.08958,15.9676314 C121.275321,15.6469569 123.307172,17.1588919 123.627847,19.3446328 C123.656053,19.536891 123.670213,19.730949 123.670213,19.9252653 L123.670213,105.63611 C123.670213,107.620978 122.21469,109.305625 120.250845,109.593744 L65.2189304,117.667589 C63.0331896,117.988263 61.0013385,116.476328 60.680664,114.290587 C60.6524574,114.098329 60.6382979,113.904271 60.6382979,113.709955 L60.6382979,27.9991097 C60.6382979,26.0142418 62.0938202,24.3295955 64.0576653,24.0414758 Z" id="矩形" fill="url(#linearGradient-6)"></path>
                                <path d="M58.9029255,20.6714186 L122.333777,12.2185884 C125.525266,59.7154437 131.110372,88.0257163 139.089096,97.149406 C121.269947,101.979595 112.360372,104.394689 112.360372,104.394689 C85.7646277,111.908316 70.206117,107.883159 65.6848404,92.3192173 C62.7593085,83.4638714 60.6316489,62.1305381 59.3018617,28.3192173" id="路径-7" fill-opacity="0.8" fill="#FFFFFF"></path>
                                <path d="M59.8404255,19.7232704 L123.271277,11.2704403 C126.462766,58.7672956 132.047872,87.0775681 140.026596,96.2012579 C122.207447,101.031447 113.297872,103.446541 113.297872,103.446541 C86.7021277,110.960168 71.143617,106.93501 66.6223404,91.3710692 C63.6968085,82.5157233 61.5691489,61.1823899 60.2393617,27.3710692" id="路径-7" fill="url(#linearGradient-7)"></path>
                                <path d="M105.29779,6.46445379 C105.312017,6.58790976 105.319149,6.71209331 105.319149,6.83638109 L105.319149,17.7106918 L75.7978723,21.1736868 L75.7978723,12.0754717 C75.7978723,9.46846032 73.7508711,7.3438416 71.1901103,7.24861462 L71.0106383,7.24528302 L101.75904,3.63780638 C103.509854,3.43239661 105.094206,4.69792976 105.29779,6.46445379 Z" id="路径" fill="#A0A7AF"></path>
                                <path d="M106.089773,6.44572617 C106.107923,6.6004274 106.117021,6.75605671 106.117021,6.911819 L106.117021,17.7106918 L76.5955106,21.8659195 L76.5957447,11.2274856 C76.5957447,8.65502646 74.5667164,6.55647225 72.0217528,6.44491597 L71.8085106,6.44025157 L71.8085106,6.44025157 L101.650928,2.93906712 C103.845019,2.68165116 105.832357,4.25163589 106.089773,6.44572617 Z" id="形状结合" fill="url(#linearGradient-8)"></path>
                                <g id="编组" transform="translate(67.021277, 30.644864)">
                                    <path d="M16.849676,5.74169163 L51.2550537,0.345431089 C52.2954956,0.182244514 53.2712293,0.893400491 53.4344159,1.93384242 C53.4497466,2.03158761 53.4574468,2.13037771 53.4574468,2.22931785 L53.4574468,2.74787231 C53.4574468,3.73279654 52.740374,4.57110392 51.7673453,4.72371718 L17.3619676,10.1199777 C16.3215257,10.2831643 15.345792,9.57200831 15.1826054,8.53156638 C15.1672747,8.4338212 15.1595745,8.3350311 15.1595745,8.23609095 L15.1595745,7.7175365 C15.1595745,6.73261226 15.8766473,5.89430488 16.849676,5.74169163 Z" id="矩形" fill="url(#linearGradient-9)"></path>
                                    <path d="M17.6475483,11.3769118 L52.052926,5.98065121 C53.093368,5.81746464 54.0691017,6.52862062 54.2322882,7.56906255 C54.2476189,7.66680774 54.2553191,7.76559783 54.2553191,7.86453798 L54.2553191,8.38309244 C54.2553191,9.36801667 53.5382464,10.206324 52.5652176,10.3589373 L18.1598399,15.7551978 C17.119398,15.9183844 16.1436643,15.2072284 15.9804777,14.1667865 C15.965147,14.0690413 15.9574468,13.9702512 15.9574468,13.8713111 L15.9574468,13.3527566 C15.9574468,12.3678324 16.6745196,11.529525 17.6475483,11.3769118 Z" id="矩形备份" fill="url(#linearGradient-9)"></path>
                                    <path d="M18.5113788,17.0614152 L24.5166244,16.3234443 C25.4024818,16.2145834 26.2088604,16.8444634 26.3177214,17.7303208 C26.3257578,17.7957168 26.3297872,17.8615431 26.3297872,17.9274311 L26.3297872,18.1257838 C26.3297872,19.0741176 25.6637865,19.8920745 24.7351341,20.0842766 L18.9383706,21.2840256 C17.9566876,21.4872033 16.9961681,20.8561001 16.7929904,19.874417 C16.7679417,19.7533907 16.7553191,19.6301225 16.7553191,19.5065312 L16.7553191,19.0464827 C16.7553191,18.0362506 17.5086892,17.1846334 18.5113788,17.0614152 Z" id="矩形备份-2" fill="url(#linearGradient-10)"></path>
                                    <path d="M1.95321683,8.60900309 L10.750119,7.49952378 C11.8460069,7.36130865 12.8464451,8.13765584 12.9846602,9.23354377 C12.9859765,9.2439799 12.9872103,9.25442625 12.9883617,9.26488184 L14.1462068,19.7789887 C14.2657676,20.8646914 13.4921665,21.8455163 12.4084853,21.9821919 L3.61158314,23.0916712 C2.51569521,23.2298863 1.51525701,22.4535391 1.37704188,21.3576512 C1.37572566,21.3472151 1.37449179,21.3367687 1.37334039,21.3263131 L0.215495346,10.8122063 C0.0959345015,9.72650359 0.869535639,8.74567869 1.95321683,8.60900309 Z" id="矩形" fill="url(#linearGradient-11)"></path>
                                </g>
                            </g>
                            <g id="编组-3" stroke-width="1" fill="none" transform="translate(103.000000, 22.000000)">
                                <g id="路径-2" transform="translate(0.000000, 36.985240)">
                                    <mask id="mask-13" fill="white">
                                        <use xlink:href="#path-12"></use>
                                    </mask>
                                    <use id="蒙版" fill="#E0E0E2" xlink:href="#path-12"></use>
                                    <polygon fill="#B9BDC4" mask="url(#mask-13)" points="4.4408921e-16 3.58221114 6.11 8.54946605 -3.76 12.6135837"></polygon>
                                </g>
                                <path d="M40.0331556,1.33507246 L45.8979824,6.99930522 L9.73155029,41.9287405 C8.61183138,42.8316966 6.51959581,42.3852481 4.95682243,40.8759261 C3.39407957,39.3666336 2.93180801,37.346008 3.87136413,36.2692949 L3.86672346,36.2645078 L40.0331556,1.33507246 Z" id="形状结合" fill="url(#linearGradient-14)"></path>
                                <ellipse id="椭圆形" fill="#B9BDC4" transform="translate(42.703883, 4.537238) rotate(45.000000) translate(-42.703883, -4.537238) " cx="42.7038826" cy="4.5372385" rx="3.68629163" ry="2.30467716"></ellipse>
                            </g>
                            <polygon id="路径-9" fill="url(#linearGradient-15)" points="103.723404 69.2327044 103.723404 97.408805 113.297872 95.7987421"></polygon>
                        </g>
                    </g>
                </g>
            </g>
        </g>
    </g>
</svg>