<?xml version="1.0" encoding="UTF-8"?>
<svg width="16px" height="16px" viewBox="0 0 16 16" version="1.1" xmlns="http://www.w3.org/2000/svg" xmlns:xlink="http://www.w3.org/1999/xlink">
    <!-- Generator: Sketch 59.1 (86144) - https://sketch.com -->
    <title>切片</title>
    <desc>Created with Sketch.</desc>
    <g id="云通知" stroke="none" stroke-width="1" fill="none" fill-rule="evenodd">
        <g id="个人号_历史记录" transform="translate(-15.000000, -494.000000)" fill-rule="nonzero">
            <g id="编组-2" transform="translate(0.000000, 178.000000)">
                <g id="编组-7" transform="translate(15.000000, 287.000000)">
                    <g id="编组" transform="translate(0.000000, 27.000000)">
                        <g id="icon_套餐模板" transform="translate(0.000000, 2.000000)">
                            <g>
                                <rect id="矩形" fill="#000000" opacity="0" x="0" y="0" width="16" height="16"></rect>
                                <path d="M12.0422013,16 L3.84150505,16 C2.8265527,16 2,15.1480096 2,14.1007446 L2,3.89973876 C2,2.85247373 2.8265527,2 3.84150505,2 L12.0422013,2 C13.0571537,2 13.8837064,2.85247373 13.8837064,3.89973876 L13.8837064,14.1007446 C13.8837064,15.1480096 13.0571537,16 12.0422013,16 Z M3.84150505,3.0870611 C3.40706108,3.0870611 3.05400701,3.45167045 3.05400701,3.89973876 L3.05400701,14.1007446 C3.05400701,14.5488129 3.40706108,14.9129389 3.84150505,14.9129389 L12.0422013,14.9129389 C12.4766453,14.9129389 12.8296994,14.5488129 12.8296994,14.1007446 L12.8296994,3.89973876 C12.8296994,3.45167045 12.4766453,3.0870611 12.0422013,3.0870611 L3.84150505,3.0870611 Z M15.4729184,13.8257167 C15.1815707,13.8257167 14.9458368,13.5825901 14.9458368,13.2821056 L14.9458368,4.71821666 C14.9458368,4.41773215 15.1815707,4.17460555 15.4729184,4.17460555 C15.7642661,4.17460555 16,4.41773215 16,4.71821666 L16,13.2822667 C16,13.5825901 15.7642661,13.8257167 15.4729184,13.8257167 Z M10.6546676,7.88707951 L5.23013234,7.88707951 C4.93878462,7.88707951 4.70305073,7.64395291 4.70305073,7.3434684 C4.70305073,7.0429839 4.93878462,6.7998573 5.23013234,6.7998573 L10.6546676,6.7998573 C10.9460153,6.7998573 11.1817492,7.0429839 11.1817492,7.3434684 C11.181593,7.64395291 10.9460153,7.88707951 10.6546676,7.88707951 Z M7.65620746,11.2004649 L5.23013234,11.2004649 C4.93878462,11.2004649 4.70305073,10.9573383 4.70305073,10.6568538 C4.70305073,10.3563693 4.93878462,10.1132427 5.23013234,10.1132427 L7.65620746,10.1132427 C7.94755518,10.1132427 8.18328907,10.3563693 8.18328907,10.6568538 C8.18328907,10.9573383 7.94755518,11.2004649 7.65620746,11.2004649 Z" id="形状" fill="#0F88FF"></path>
                            </g>
                        </g>
                    </g>
                </g>
            </g>
        </g>
    </g>
</svg>