<?xml version="1.0" encoding="UTF-8"?>
<svg width="16px" height="16px" viewBox="0 0 16 16" version="1.1" xmlns="http://www.w3.org/2000/svg" xmlns:xlink="http://www.w3.org/1999/xlink">
    <!-- Generator: Sketch 59.1 (86144) - https://sketch.com -->
    <title>切片</title>
    <desc>Created with Sketch.</desc>
    <g id="云通知" stroke="none" stroke-width="1" fill="none" fill-rule="evenodd">
        <g id="个人号_历史记录" transform="translate(-127.000000, -277.000000)">
            <g id="编组-2" transform="translate(0.000000, 178.000000)">
                <g id="编组-7" transform="translate(15.000000, 15.000000)">
                    <g id="编组-5" transform="translate(112.000000, 82.000000)">
                        <g id="icon_失败2" transform="translate(0.000000, 2.000000)">
                            <g>
                                <rect id="矩形" x="0" y="0" width="16" height="16"></rect>
                                <g id="分组-13" transform="translate(2.000000, 1.000000)">
                                    <g id="编组-4" transform="translate(0.000000, 0.187500)">
                                        <circle id="椭圆形" stroke="#F25643" stroke-width="1.5" transform="translate(6.500000, 6.500000) scale(-1, 1) translate(-6.500000, -6.500000) " cx="6.5" cy="6.5" r="5.75"></circle>
                                        <path d="M8.00843321,4.22333221 C8.23241038,3.99935504 8.6068972,4.01070312 8.84487294,4.24867886 C9.08284868,4.48665461 9.09419677,4.86114143 8.8702196,5.0851186 L8.8702196,5.0851186 L7.4085,6.5465 L8.8702196,8.00843321 C9.09419677,8.23241038 9.08284868,8.6068972 8.84487294,8.84487294 C8.6068972,9.08284868 8.23241038,9.09419677 8.00843321,8.8702196 L6.5465,7.4085 L5.0851186,8.8702196 C4.88602778,9.06931042 4.56801576,9.08246523 4.33266636,8.91579264 L4.24867886,8.84487294 C4.01070312,8.6068972 3.99935504,8.23241038 4.22333221,8.00843321 L4.22333221,8.00843321 L5.6845,6.5465 L4.22333221,5.0851186 C3.99935504,4.86114143 4.01070312,4.48665461 4.24867886,4.24867886 C4.48665461,4.01070312 4.86114143,3.99935504 5.0851186,4.22333221 L6.5465,5.6845 Z" id="合并形状" fill="#F25643" fill-rule="nonzero"></path>
                                    </g>
                                </g>
                            </g>
                        </g>
                    </g>
                </g>
            </g>
        </g>
    </g>
</svg>