<?xml version="1.0" encoding="UTF-8"?>
<svg width="20px" height="20px" viewBox="0 0 20 20" version="1.1" xmlns="http://www.w3.org/2000/svg" xmlns:xlink="http://www.w3.org/1999/xlink">
    <!-- Generator: Sketch 52.2 (67145) - http://www.bohemiancoding.com/sketch -->
    <title>number_icon_personal</title>
    <desc>Created with Sketch.</desc>
    <g id="number_icon_personal" stroke="none" stroke-width="1" fill="none" fill-rule="evenodd">
        <g>
            <rect id="矩形" x="0" y="0" width="20" height="20"></rect>
            <path d="M5,17 C5,14.0544813 7.38781467,11.6666667 10.3333333,11.6666667 C13.278852,11.6666667 15.6666667,14.0544813 15.6666667,17 L14.3333333,17 C14.3333333,14.790861 12.5424723,13 10.3333333,13 C8.12419433,13 6.33333333,14.790861 6.33333333,17 L5,17 Z M10.3333333,11 C8.12333333,11 6.33333333,9.21 6.33333333,7 C6.33333333,4.79 8.12333333,3 10.3333333,3 C12.5433333,3 14.3333333,4.79 14.3333333,7 C14.3333333,9.21 12.5433333,11 10.3333333,11 Z M10.3333333,9.66666667 C11.8066667,9.66666667 13,8.47333333 13,7 C13,5.52666667 11.8066667,4.33333333 10.3333333,4.33333333 C8.86,4.33333333 7.66666667,5.52666667 7.66666667,7 C7.66666667,8.47333333 8.86,9.66666667 10.3333333,9.66666667 Z" id="形状" fill="#212121" fill-rule="nonzero"></path>
        </g>
    </g>
</svg>