<?xml version="1.0" encoding="UTF-8"?>
<svg width="355px" height="120px" viewBox="0 0 355 120" version="1.1" xmlns="http://www.w3.org/2000/svg" xmlns:xlink="http://www.w3.org/1999/xlink">
    <!-- Generator: Sketch 52.2 (67145) - http://www.bohemiancoding.com/sketch -->
    <title>bg</title>
    <desc>Created with Sketch.</desc>
    <defs>
        <linearGradient x1="1.68197754%" y1="0%" x2="100%" y2="71.6347625%" id="linearGradient-1">
            <stop stop-color="#43A7FF" offset="0%"></stop>
            <stop stop-color="#217CFB" offset="100%"></stop>
        </linearGradient>
        <path d="M6,0 L349,0 C352.313708,3.17660898e-14 355,2.6862915 355,6 L355,114 C355,117.313708 352.313708,120 349,120 L6,120 C2.6862915,120 7.7637232e-15,117.313708 0,114 L-1.77635684e-15,6 C-2.18216909e-15,2.6862915 2.6862915,6.08718376e-16 6,0 Z" id="path-2"></path>
    </defs>
    <g id="bg" stroke="none" stroke-width="1" fill="none" fill-rule="evenodd">
        <g>
            <mask id="mask-3" fill="white">
                <use xlink:href="#path-2"></use>
            </mask>
            <use id="Mask" fill="url(#linearGradient-1)" xlink:href="#path-2"></use>
            <path d="M321.708148,81.9171683 C308.240153,74.622737 295.169043,77.3571925 292.133545,84 C278.533021,65.2440832 258.72756,22.2605568 293.18885,-9 C296.753057,1.94129919 330.025807,2.33213439 353,-1.57552214 C321.708148,23.8238976 314.578324,57.0379349 321.708148,81.9171683 M230,60.0076694 C230,68.055607 231.17958,75.8246593 233.340053,83.1725944 C251.675833,103.856833 302.503751,100.555526 330.410724,92.7836852 C304.556862,108.061729 283.012791,118.247324 254.808832,116.680685 C254.071245,116.638852 253.368517,116.597019 252.643479,116.553792 C263.231816,127.666681 276.896681,135.812228 292.284208,139.612043 C307.792342,128.761306 317.229682,122.798735 341.379008,96.7006317 C337.069915,110.412734 327.669525,124.515972 314.350446,140.18585 C313.814337,140.816828 313.230124,141.415038 312.624299,142 C321.970312,141.928884 330.940559,140.291826 339.294525,137.34331 C342.285305,129.780633 344.883588,117.191742 347.255298,104.144085 C349.726002,111.911743 350.910463,122.84754 350.549338,132.392395 C376.400411,118.593142 394,91.3599748 394,60.0076694 C394,14.7166677 357.28661,-22 312.000349,-22 C266.71339,-22 230,14.7166677 230,60.0076694 Z" id="Fill-1" fill="#FFFFFF" opacity="0.0765625015" mask="url(#mask-3)"></path>
        </g>
    </g>
</svg>