<?xml version="1.0" encoding="UTF-8"?>
<svg width="160px" height="160px" viewBox="0 0 160 160" version="1.1" xmlns="http://www.w3.org/2000/svg" xmlns:xlink="http://www.w3.org/1999/xlink">
    <!-- Generator: Sketch 52.2 (67145) - http://www.bohemiancoding.com/sketch -->
    <title>pic_无搜索结果</title>
    <desc>Created with Sketch.</desc>
    <defs>
        <linearGradient x1="99.5359917%" y1="49.5359917%" x2="0.464008309%" y2="49.5359917%" id="linearGradient-1">
            <stop stop-color="#E9EAED" offset="0%"></stop>
            <stop stop-color="#D0D2D8" offset="100%"></stop>
        </linearGradient>
        <path d="M6,-1.42108547e-14 L56.2222222,-1.42108547e-14 C59.5359307,-1.48195731e-14 62.2222222,2.6862915 62.2222222,6 L62.2222222,74.8888889 C62.2222222,78.2025974 59.5359307,80.8888889 56.2222222,80.8888889 L6,80.8888889 C2.6862915,80.8888889 -4.82366169e-16,78.2025974 -8.8817842e-16,74.8888889 L-8.8817842e-16,6 C-1.29399067e-15,2.6862915 2.6862915,-1.36021363e-14 6,-1.42108547e-14 Z" id="path-2"></path>
        <linearGradient x1="50%" y1="0%" x2="50%" y2="99.0719834%" id="linearGradient-4">
            <stop stop-color="#E9EAED" offset="0%"></stop>
            <stop stop-color="#D0D2D8" offset="100%"></stop>
        </linearGradient>
        <path d="M9.11111111,3.11111111 L59.3333333,3.11111111 C62.6470418,3.11111111 65.3333333,5.79740261 65.3333333,9.11111111 L65.3333333,78 C65.3333333,81.3137085 62.6470418,84 59.3333333,84 L9.11111111,84 C5.79740261,84 3.11111111,81.3137085 3.11111111,78 L3.11111111,9.11111111 C3.11111111,5.79740261 5.79740261,3.11111111 9.11111111,3.11111111 Z" id="path-5"></path>
        <linearGradient x1="50%" y1="0%" x2="50%" y2="100%" id="linearGradient-7">
            <stop stop-color="#E0E2E5" offset="0%"></stop>
            <stop stop-color="#ABB1BE" offset="100%"></stop>
        </linearGradient>
    </defs>
    <g id="pic_无搜索结果" stroke="none" stroke-width="1" fill="none" fill-rule="evenodd">
        <g>
            <rect id="矩形" x="0" y="0" width="160" height="160"></rect>
            <g id="分组-5" transform="translate(46.000000, 40.000000)">
                <g id="分组-3">
                    <g id="合并形状">
                        <g id="Mask-Copy-2">
                            <mask id="mask-3" fill="white">
                                <use xlink:href="#path-2"></use>
                            </mask>
                            <use id="Mask-Copy" fill="url(#linearGradient-1)" xlink:href="#path-2"></use>
                        </g>
                        <mask id="mask-6" fill="white">
                            <use xlink:href="#path-5"></use>
                        </mask>
                        <use id="Mask" fill="url(#linearGradient-4)" xlink:href="#path-5"></use>
                        <rect id="矩形" fill="#FFFFFF" mask="url(#mask-6)" x="13" y="22" width="40" height="4" rx="2"></rect>
                        <rect id="矩形-copy-2" fill="#FFFFFF" mask="url(#mask-6)" x="13" y="38" width="40" height="4" rx="2"></rect>
                        <rect id="矩形-copy-4" fill="#FFFFFF" mask="url(#mask-6)" x="13" y="54" width="30" height="4" rx="2"></rect>
                        <path d="M46,75.5459415 C34.4020203,75.5459415 25,66.1439213 25,54.5459415 C25,42.9479618 34.4020203,33.5459415 46,33.5459415 C57.5979797,33.5459415 67,42.9479618 67,54.5459415 C67,66.1439213 57.5979797,75.5459415 46,75.5459415 Z M46,71.5459415 C55.3888407,71.5459415 63,63.9347823 63,54.5459415 C63,45.1571008 55.3888407,37.5459415 46,37.5459415 C36.6111593,37.5459415 29,45.1571008 29,54.5459415 C29,63.9347823 36.6111593,71.5459415 46,71.5459415 Z" fill="#8B94A5" opacity="0.300000012" mask="url(#mask-6)"></path>
                    </g>
                    <g id="分组-2" transform="translate(22.000000, 26.000000)">
                        <path d="M37.3401527,36.7379566 L44.7092693,44.1070733 L41.8808422,46.9355004 L34.5421341,39.5967923 C30.8859701,42.6846489 26.1603491,44.5459415 21,44.5459415 C9.40202025,44.5459415 1.70530257e-13,35.1439213 1.70530257e-13,23.5459415 C1.70530257e-13,11.9479618 9.40202025,2.54594155 21,2.54594155 C32.5979797,2.54594155 42,11.9479618 42,23.5459415 C42,28.5430707 40.2545893,33.1325374 37.3401527,36.7379566 Z M21,40.5459415 C30.3888407,40.5459415 38,32.9347823 38,23.5459415 C38,14.1571008 30.3888407,6.54594155 21,6.54594155 C11.6111593,6.54594155 4,14.1571008 4,23.5459415 C4,32.9347823 11.6111593,40.5459415 21,40.5459415 Z" id="合并形状" fill="#8E97A7"></path>
                        <path d="M38.3401527,34.7379566 L45.7092693,42.1070733 L42.8808422,44.9355004 L35.5421341,37.5967923 C31.8859701,40.6846489 27.1603491,42.5459415 22,42.5459415 C10.4020203,42.5459415 1,33.1439213 1,21.5459415 C1,9.9479618 10.4020203,0.545941546 22,0.545941546 C33.5979797,0.545941546 43,9.9479618 43,21.5459415 C43,26.5430707 41.2545893,31.1325374 38.3401527,34.7379566 Z M22,38.5459415 C31.3888407,38.5459415 39,30.9347823 39,21.5459415 C39,12.1571008 31.3888407,4.54594155 22,4.54594155 C12.6111593,4.54594155 5,12.1571008 5,21.5459415 C5,30.9347823 12.6111593,38.5459415 22,38.5459415 Z" id="合并形状" fill="url(#linearGradient-7)"></path>
                        <path d="M44.0459415,40.0918831 L53.0459415,40.0918831 L53.0459415,53.5918831 C53.0459415,56.0771645 51.0312229,58.0918831 48.5459415,58.0918831 L48.5459415,58.0918831 C46.0606602,58.0918831 44.0459415,56.0771645 44.0459415,53.5918831 L44.0459415,40.0918831 Z" id="矩形" fill="#99A1AF" transform="translate(48.545942, 49.091883) rotate(-45.000000) translate(-48.545942, -49.091883) "></path>
                    </g>
                </g>
            </g>
            <ellipse id="椭圆形" fill="#A5ACB9" opacity="0.1" cx="80" cy="145" rx="30" ry="4"></ellipse>
        </g>
    </g>
</svg>