<?xml version="1.0" encoding="UTF-8"?>
<svg width="20px" height="20px" viewBox="0 0 20 20" version="1.1" xmlns="http://www.w3.org/2000/svg" xmlns:xlink="http://www.w3.org/1999/xlink">
    <!-- Generator: Sketch 52.2 (67145) - http://www.bohemiancoding.com/sketch -->
    <title>search_icon_delete</title>
    <desc>Created with Sketch.</desc>
    <g id="search_icon_delete" stroke="none" stroke-width="1" fill="none" fill-rule="evenodd">
        <g>
            <rect id="矩形" x="0" y="0" width="20" height="20"></rect>
            <g id="分组-13" transform="translate(3.000000, 3.000000)" fill="#CCCCCC">
                <path d="M7,14 C3.13400675,14 0,10.8659932 0,7 C0,3.13400675 3.13400675,0 7,0 C10.8659932,0 14,3.13400675 14,7 C14,10.8659932 10.8659932,14 7,14 Z M7.05757034,5.99691017 L5.2586075,4.19794733 C4.9829433,3.92228312 4.52203644,3.93625 4.22914322,4.22914322 C3.93625,4.52203644 3.92228312,4.9829433 4.19794733,5.2586075 L5.99691017,7.05757034 L4.19794733,8.85653318 C3.92228312,9.13219739 3.93625,9.59310425 4.22914322,9.88599747 C4.52203644,10.1788907 4.9829433,10.1928576 5.2586075,9.91719336 L7.05757034,8.11823051 L8.85653318,9.91719336 C9.13219739,10.1928576 9.59310425,10.1788907 9.88599747,9.88599747 C10.1788907,9.59310425 10.1928576,9.13219739 9.91719336,8.85653318 L8.11823051,7.05757034 L9.91719336,5.2586075 C10.1928576,4.9829433 10.1788907,4.52203644 9.88599747,4.22914322 C9.59310425,3.93625 9.13219739,3.92228312 8.85653318,4.19794733 L7.05757034,5.99691017 Z" id="合并形状"></path>
            </g>
        </g>
    </g>
</svg>