<?xml version="1.0" encoding="UTF-8"?>
<svg width="56px" height="56px" viewBox="0 0 56 56" version="1.1" xmlns="http://www.w3.org/2000/svg" xmlns:xlink="http://www.w3.org/1999/xlink">
    <!-- Generator: Sketch 59.1 (86144) - https://sketch.com -->
    <title>切片</title>
    <desc>Created with Sketch.</desc>
    <g id="深色" stroke="none" stroke-width="1" fill="none" fill-rule="evenodd">
        <g id="分机管理_分享" transform="translate(-72.000000, -614.000000)">
            <g id="分组-6">
                <g id="分组-5" transform="translate(72.000000, 614.000000)">
                    <g id="icon_短信通知_dark">
                        <g>
                            <circle id="椭圆形" fill-opacity="0.1" fill="#FFFFFF" cx="28" cy="28" r="28"></circle>
                            <path d="M38,18 C39.6568542,18 41,19.3431458 41,21 L41,33.6553033 C41,35.3121576 39.6568542,36.6553033 38,36.6553033 L30.7333333,36.6553033 L28.2557144,39.5143177 C27.8940224,39.9316873 27.2624682,39.9768228 26.8450987,39.6151308 C26.8091386,39.5839678 26.7754486,39.5502778 26.7442856,39.5143177 L24.2666667,36.6553033 L17,36.6553033 C15.3431458,36.6553033 14,35.3121576 14,33.6553033 L14,21 C14,19.3431458 15.3431458,18 17,18 L38,18 Z M20.5,26 C19.6715729,26 19,26.6715729 19,27.5 C19,28.3284271 19.6715729,29 20.5,29 C21.3284271,29 22,28.3284271 22,27.5 C22,26.6715729 21.3284271,26 20.5,26 Z M27.5,26 C26.6715729,26 26,26.6715729 26,27.5 C26,28.3284271 26.6715729,29 27.5,29 C28.3284271,29 29,28.3284271 29,27.5 C29,26.6715729 28.3284271,26 27.5,26 Z M34.5,26 C33.6715729,26 33,26.6715729 33,27.5 C33,28.3284271 33.6715729,29 34.5,29 C35.3284271,29 36,28.3284271 36,27.5 C36,26.6715729 35.3284271,26 34.5,26 Z" id="合并形状" fill="#0F88FF"></path>
                        </g>
                    </g>
                </g>
            </g>
        </g>
    </g>
</svg>