<?xml version="1.0" encoding="UTF-8"?>
<svg width="56px" height="56px" viewBox="0 0 56 56" version="1.1" xmlns="http://www.w3.org/2000/svg" xmlns:xlink="http://www.w3.org/1999/xlink">
    <!-- Generator: Sketch 59.1 (86144) - https://sketch.com -->
    <title>切片</title>
    <desc>Created with Sketch.</desc>
    <g id="Page-1" stroke="none" stroke-width="1" fill="none" fill-rule="evenodd">
        <g id="分机管理_分享" transform="translate(-245.000000, -614.000000)">
            <g id="分组-6">
                <g id="分组-5" transform="translate(72.000000, 614.000000)">
                    <g id="icon_微信通知" transform="translate(173.000000, 0.000000)">
                        <g>
                            <circle id="椭圆形-copy" fill="#F9F9F9" cx="28" cy="28" r="28"></circle>
                            <g id="分组" transform="translate(14.000000, 17.000000)">
                                <path d="M11,2.84217094e-14 C17.0751322,2.84217094e-14 22,4.4771525 22,10 C22,15.5228475 17.0751322,20 11,20 C9.67034841,20 8.39579814,19.7855302 7.21592389,19.3925676 L5.4472136,20.2763932 C4.9532351,20.5233825 4.35256206,20.3231581 4.10557281,19.8291796 C4.03614509,19.6903242 4,19.5372111 4,19.381966 L4.00010735,17.7143313 C1.55703895,15.8801653 0,13.1053854 0,10 C0,4.4771525 4.92486775,2.84217094e-14 11,2.84217094e-14 Z" id="合并形状" fill="#63D677"></path>
                                <path d="M20,9 C24.418278,9 28,12.1340068 28,16 C28,18.2102789 26.8292509,20.1812951 25.0007634,21.464164 L25,22.381966 C25,22.5372111 24.9638549,22.6903242 24.8944272,22.8291796 C24.6474379,23.3231581 24.0467649,23.5233825 23.5527864,23.2763932 L23.5527864,23.2763932 L22.37321,22.6868554 C21.6233722,22.8903808 20.8263164,23 20,23 C15.581722,23 12,19.8659932 12,16 C12,12.1340068 15.581722,9 20,9 Z" id="合并形状" stroke="#F9F9F9" fill="#63D677"></path>
                                <circle id="椭圆形" fill="#FFFFFF" cx="7.5" cy="6.5" r="1.5"></circle>
                                <circle id="椭圆形-copy-2" fill="#FFFFFF" cx="14.5" cy="6.5" r="1.5"></circle>
                                <circle id="椭圆形-copy-4" fill="#FFFFFF" cx="23" cy="14" r="1"></circle>
                                <circle id="椭圆形-copy-5" fill="#FFFFFF" cx="17" cy="14" r="1"></circle>
                            </g>
                        </g>
                    </g>
                </g>
            </g>
        </g>
    </g>
</svg>