<?xml version="1.0" encoding="UTF-8"?>
<svg width="24px" height="24px" viewBox="0 0 24 24" version="1.1" xmlns="http://www.w3.org/2000/svg" xmlns:xlink="http://www.w3.org/1999/xlink">
    <!-- Generator: Sketch 52.2 (67145) - http://www.bohemiancoding.com/sketch -->
    <title>tab_item_workbench_unselected</title>
    <desc>Created with Sketch.</desc>
    <g id="tab_item_workbench_unselected" stroke="none" stroke-width="1" fill="none" fill-rule="evenodd">
        <g>
            <rect id="矩形-copy-19" x="0" y="0" width="24" height="24"></rect>
            <path d="M4,3 C3.44771525,3 3,3.44771525 3,4 L3,9 C3,9.55228475 3.44771525,10 4,10 L9,10 C9.55228475,10 10,9.55228475 10,9 L10,4 C10,3.44771525 9.55228475,3 9,3 L4,3 Z M15,3 C14.4477153,3 14,3.44771525 14,4 L14,9 C14,9.55228475 14.4477153,10 15,10 L20,10 C20.5522847,10 21,9.55228475 21,9 L21,4 C21,3.44771525 20.5522847,3 20,3 L15,3 Z M15,14 C14.4477153,14 14,14.4477153 14,15 L14,20 C14,20.5522847 14.4477153,21 15,21 L20,21 C20.5522847,21 21,20.5522847 21,20 L21,15 C21,14.4477153 20.5522847,14 20,14 L15,14 Z M4,14 C3.44771525,14 3,14.4477153 3,15 L3,20 C3,20.5522847 3.44771525,21 4,21 L9,21 C9.55228475,21 10,20.5522847 10,20 L10,15 C10,14.4477153 9.55228475,14 9,14 L4,14 Z" id="形状" stroke="#FFFFFF" stroke-width="2" opacity="0.38"></path>
        </g>
    </g>
</svg>