<?xml version="1.0" encoding="UTF-8"?>
<svg width="24px" height="24px" viewBox="0 0 24 24" version="1.1" xmlns="http://www.w3.org/2000/svg" xmlns:xlink="http://www.w3.org/1999/xlink">
    <!-- Generator: Sketch 52.2 (67145) - http://www.bohemiancoding.com/sketch -->
    <title>tab_item_phone_selected</title>
    <desc>Created with Sketch.</desc>
    <defs>
        <rect id="path-1" x="0" y="0" width="24" height="24"></rect>
    </defs>
    <g id="tab_item_phone_selected" stroke="none" stroke-width="1" fill="none" fill-rule="evenodd">
        <g>
            <mask id="mask-2" fill="white">
                <use xlink:href="#path-1"></use>
            </mask>
            <g id="Mask"></g>
            <path d="M15.6477786,14.0386886 C16.1698715,13.2057709 17.2550109,12.926607 18.1104384,13.4105066 L22.4249343,15.8511374 C23.0798899,16.2216338 23.4394038,16.9552212 23.3334693,17.7005741 C23.1233399,19.1790408 22.3143961,20.4720458 20.9184754,21.583986 C17.484557,24.0639971 11.4765204,22.0621496 6.80793806,17.3935673 C2.13935576,12.724985 0.137508338,6.71694835 2.64642419,3.24495862 C3.72945961,1.88710933 5.02246457,1.07816552 6.50093125,0.868036069 C7.24628424,0.762101578 7.97987161,1.12161548 8.35036796,1.77657113 L10.7909988,6.09106702 C11.2748984,6.94649451 10.9957345,8.03163391 10.1628167,8.55372679 L8.77946543,9.42084465 C8.44488877,10.2893104 9.12206906,12.1322628 10.5956558,13.6058495 C12.0692426,15.0794363 13.912195,15.7566166 14.7806607,15.42204 L15.6477786,14.0386886 Z" id="路径" fill="#333D4B" fill-rule="nonzero" mask="url(#mask-2)"></path>
        </g>
    </g>
</svg>