<?xml version="1.0" encoding="UTF-8"?>
<svg width="24px" height="24px" viewBox="0 0 24 24" version="1.1" xmlns="http://www.w3.org/2000/svg" xmlns:xlink="http://www.w3.org/1999/xlink">
    <!-- Generator: Sketch 52.2 (67145) - http://www.bohemiancoding.com/sketch -->
    <title>tab_item_me_selected</title>
    <desc>Created with Sketch.</desc>
    <g id="tab_item_me_selected" stroke="none" stroke-width="1" fill="none" fill-rule="evenodd">
        <g>
            <rect id="矩形-copy-19" x="0" y="0" width="24" height="24"></rect>
            <path d="M12,12 C9.23857625,12 7,9.76142375 7,7 C7,4.23857625 9.23857625,2 12,2 C14.7614237,2 17,4.23857625 17,7 C17,9.76142375 14.7614237,12 12,12 Z M7.5,13 L16.5,13 C18.9852814,13 21,15.0147186 21,17.5 L21,21 C21,21.5522847 20.5522847,22 20,22 L4,22 C3.44771525,22 3,21.5522847 3,21 L3,17.5 C3,15.0147186 5.01471863,13 7.5,13 Z" id="合并形状" fill="#FFFFFF" opacity="0.870118118"></path>
        </g>
    </g>
</svg>