<?xml version="1.0" encoding="UTF-8"?>
<svg width="24px" height="24px" viewBox="0 0 24 24" version="1.1" xmlns="http://www.w3.org/2000/svg" xmlns:xlink="http://www.w3.org/1999/xlink">
    <!-- Generator: Sketch 52.2 (67145) - http://www.bohemiancoding.com/sketch -->
    <title>tab_item_workbench_selected</title>
    <desc>Created with Sketch.</desc>
    <g id="tab_item_workbench_selected" stroke="none" stroke-width="1" fill="none" fill-rule="evenodd">
        <g>
            <rect id="矩形-copy-19" x="0" y="0" width="24" height="24"></rect>
            <path d="M4,2 L9,2 C10.1045695,2 11,2.8954305 11,4 L11,9 C11,10.1045695 10.1045695,11 9,11 L4,11 C2.8954305,11 2,10.1045695 2,9 L2,4 C2,2.8954305 2.8954305,2 4,2 Z M15,2 L20,2 C21.1045695,2 22,2.8954305 22,4 L22,9 C22,10.1045695 21.1045695,11 20,11 L15,11 C13.8954305,11 13,10.1045695 13,9 L13,4 C13,2.8954305 13.8954305,2 15,2 Z M15,13 L20,13 C21.1045695,13 22,13.8954305 22,15 L22,20 C22,21.1045695 21.1045695,22 20,22 L15,22 C13.8954305,22 13,21.1045695 13,20 L13,15 C13,13.8954305 13.8954305,13 15,13 Z M4,13 L9,13 C10.1045695,13 11,13.8954305 11,15 L11,20 C11,21.1045695 10.1045695,22 9,22 L4,22 C2.8954305,22 2,21.1045695 2,20 L2,15 C2,13.8954305 2.8954305,13 4,13 Z" id="形状" fill="#FFFFFF" opacity="0.870744978"></path>
        </g>
    </g>
</svg>